G04*
G04 #@! TF.GenerationSoftware,Altium Limited,Altium Designer,22.9.1 (49)*
G04*
G04 Layer_Physical_Order=2*
G04 Layer_Color=16711680*
%FSLAX44Y44*%
%MOMM*%
G71*
G04*
G04 #@! TF.SameCoordinates,28A18DAE-CB9E-4B37-A36C-106CF66A5601*
G04*
G04*
G04 #@! TF.FilePolarity,Positive*
G04*
G01*
G75*
%ADD21C,0.3000*%
%ADD23C,1.5000*%
%ADD24R,1.5000X1.5000*%
%ADD25C,0.6000*%
G36*
X22647Y218881D02*
X115257D01*
X116520Y218864D01*
X117747Y218759D01*
X119747Y218495D01*
X122770Y217243D01*
X125366Y215251D01*
X127358Y212655D01*
X128611Y209631D01*
X128970Y206900D01*
X128881Y206451D01*
Y20120D01*
X128982Y19609D01*
X128643Y17030D01*
X127391Y14006D01*
X125399Y11410D01*
X122802Y9418D01*
X119779Y8166D01*
X117204Y7827D01*
X116690Y7929D01*
X22432D01*
X22151Y7873D01*
X19253Y8255D01*
X16230Y9507D01*
X13634Y11499D01*
X11642Y14095D01*
X10389Y17119D01*
X10034Y19816D01*
X10119Y20242D01*
Y205257D01*
X10136Y206520D01*
X10242Y207747D01*
X10505Y209747D01*
X11757Y212770D01*
X13749Y215366D01*
X16345Y217358D01*
X19369Y218611D01*
X22159Y218978D01*
X22647Y218881D01*
D02*
G37*
%LPC*%
G36*
X36940Y210930D02*
X16860D01*
Y190850D01*
X36940D01*
Y210930D01*
D02*
G37*
G36*
X110728Y215540D02*
X107273D01*
X103884Y214866D01*
X100692Y213544D01*
X97819Y211624D01*
X95376Y209181D01*
X93456Y206308D01*
X92134Y203116D01*
X91460Y199727D01*
Y196273D01*
X92134Y192884D01*
X93456Y189692D01*
X95376Y186819D01*
X97819Y184376D01*
X100692Y182456D01*
X103884Y181134D01*
X107273Y180460D01*
X110728D01*
X114116Y181134D01*
X117308Y182456D01*
X120181Y184376D01*
X122624Y186819D01*
X124544Y189692D01*
X125866Y192884D01*
X126540Y196273D01*
Y199727D01*
X125866Y203116D01*
X124544Y206308D01*
X122624Y209181D01*
X120181Y211624D01*
X117308Y213544D01*
X114116Y214866D01*
X110728Y215540D01*
D02*
G37*
G36*
X28222Y185530D02*
X28170D01*
Y176760D01*
X36940D01*
Y176812D01*
X36256Y179365D01*
X34934Y181655D01*
X33065Y183524D01*
X30775Y184846D01*
X28222Y185530D01*
D02*
G37*
G36*
X25630D02*
X25578D01*
X23025Y184846D01*
X20735Y183524D01*
X18866Y181655D01*
X17544Y179365D01*
X16860Y176812D01*
Y176760D01*
X25630D01*
Y185530D01*
D02*
G37*
G36*
X36940Y174220D02*
X28170D01*
Y165450D01*
X28222D01*
X30775Y166134D01*
X33065Y167456D01*
X34934Y169325D01*
X36256Y171615D01*
X36940Y174168D01*
Y174220D01*
D02*
G37*
G36*
X25630D02*
X16860D01*
Y174168D01*
X17544Y171615D01*
X18866Y169325D01*
X20735Y167456D01*
X23025Y166134D01*
X25578Y165450D01*
X25630D01*
Y174220D01*
D02*
G37*
G36*
X28222Y134730D02*
X25578D01*
X23025Y134046D01*
X20735Y132724D01*
X18866Y130855D01*
X17544Y128565D01*
X16860Y126012D01*
Y123368D01*
X17544Y120815D01*
X18866Y118525D01*
X20735Y116656D01*
X23025Y115334D01*
X25578Y114650D01*
X28222D01*
X30775Y115334D01*
X33065Y116656D01*
X34934Y118525D01*
X36256Y120815D01*
X36940Y123368D01*
Y126012D01*
X36256Y128565D01*
X34934Y130855D01*
X33065Y132724D01*
X30775Y134046D01*
X28222Y134730D01*
D02*
G37*
G36*
Y109330D02*
X25578D01*
X23025Y108646D01*
X20735Y107324D01*
X18866Y105455D01*
X17544Y103165D01*
X16860Y100612D01*
Y97968D01*
X17544Y95415D01*
X18866Y93125D01*
X20735Y91256D01*
X23025Y89934D01*
X25578Y89250D01*
X28222D01*
X30775Y89934D01*
X33065Y91256D01*
X34934Y93125D01*
X36256Y95415D01*
X36940Y97968D01*
Y100612D01*
X36256Y103165D01*
X34934Y105455D01*
X33065Y107324D01*
X30775Y108646D01*
X28222Y109330D01*
D02*
G37*
G36*
Y160130D02*
X25578D01*
X23025Y159446D01*
X20735Y158124D01*
X18866Y156255D01*
X17544Y153965D01*
X16860Y151412D01*
Y148768D01*
X17544Y146215D01*
X18866Y143925D01*
X20735Y142056D01*
X23025Y140734D01*
X25578Y140050D01*
X28222D01*
X30775Y140734D01*
X33065Y142056D01*
X34934Y143925D01*
X35109Y144229D01*
X35352Y144517D01*
X35587Y144714D01*
X35962Y144941D01*
X36495Y145179D01*
X37188Y145407D01*
X38039Y145609D01*
X39010Y145770D01*
X41224Y145951D01*
X45881Y141294D01*
Y79847D01*
X45815Y77920D01*
X45706Y76791D01*
X45657Y76492D01*
X45303Y76138D01*
X44460Y74102D01*
Y71898D01*
X45303Y69862D01*
X46862Y68303D01*
X48898Y67460D01*
X51102D01*
X53138Y68303D01*
X54697Y69862D01*
X55540Y71898D01*
Y74102D01*
X54697Y76138D01*
X54367Y76467D01*
X54119Y80215D01*
Y143000D01*
X53806Y144576D01*
X52913Y145913D01*
X45823Y153003D01*
X44486Y153896D01*
X42910Y154209D01*
X42176D01*
X40164Y154285D01*
X39042Y154405D01*
X38039Y154571D01*
X37188Y154773D01*
X36495Y155001D01*
X35962Y155239D01*
X35587Y155466D01*
X35352Y155663D01*
X35109Y155951D01*
X34934Y156255D01*
X33065Y158124D01*
X30775Y159446D01*
X28222Y160130D01*
D02*
G37*
G36*
Y83930D02*
X25578D01*
X23025Y83246D01*
X20735Y81924D01*
X18866Y80055D01*
X17544Y77765D01*
X16860Y75212D01*
Y72568D01*
X17544Y70015D01*
X18866Y67725D01*
X20735Y65856D01*
X23025Y64534D01*
X25578Y63850D01*
X28222D01*
X30775Y64534D01*
X33065Y65856D01*
X34934Y67725D01*
X36256Y70015D01*
X36940Y72568D01*
Y75212D01*
X36256Y77765D01*
X34934Y80055D01*
X33065Y81924D01*
X30775Y83246D01*
X28222Y83930D01*
D02*
G37*
G36*
Y58530D02*
X25578D01*
X23025Y57846D01*
X20735Y56524D01*
X18866Y54655D01*
X17544Y52365D01*
X16860Y49812D01*
Y47168D01*
X17544Y44615D01*
X18866Y42325D01*
X20735Y40456D01*
X23025Y39134D01*
X25578Y38450D01*
X28222D01*
X30775Y39134D01*
X33065Y40456D01*
X34934Y42325D01*
X36256Y44615D01*
X36940Y47168D01*
Y49812D01*
X36256Y52365D01*
X34934Y54655D01*
X33065Y56524D01*
X30775Y57846D01*
X28222Y58530D01*
D02*
G37*
G36*
X68102Y137540D02*
X65898D01*
X63862Y136697D01*
X62303Y135138D01*
X61460Y133102D01*
Y130898D01*
X62303Y128862D01*
X62633Y128532D01*
X62881Y124785D01*
Y37706D01*
X52384Y27209D01*
X47298D01*
X46801Y27217D01*
X42414Y27511D01*
X40581Y27756D01*
X38937Y28070D01*
X37510Y28441D01*
X36307Y28859D01*
X35332Y29311D01*
X34582Y29775D01*
X33871Y30375D01*
X33742Y30446D01*
X33065Y31124D01*
X30775Y32446D01*
X28222Y33130D01*
X25578D01*
X23025Y32446D01*
X20735Y31124D01*
X18866Y29255D01*
X17544Y26965D01*
X16860Y24412D01*
Y21768D01*
X17544Y19215D01*
X18866Y16925D01*
X20735Y15056D01*
X23025Y13734D01*
X25578Y13050D01*
X28222D01*
X30775Y13734D01*
X33065Y15056D01*
X33742Y15734D01*
X33871Y15805D01*
X34582Y16405D01*
X35332Y16869D01*
X36307Y17321D01*
X37510Y17739D01*
X38937Y18110D01*
X40523Y18412D01*
X46827Y18964D01*
X47298Y18971D01*
X54090D01*
X55666Y19284D01*
X57003Y20177D01*
X69913Y33087D01*
X70806Y34424D01*
X71119Y36000D01*
Y125153D01*
X71185Y127080D01*
X71294Y128209D01*
X71343Y128508D01*
X71697Y128862D01*
X72540Y130898D01*
Y133102D01*
X71697Y135138D01*
X70138Y136697D01*
X68102Y137540D01*
D02*
G37*
G36*
X110728Y46540D02*
X107273D01*
X103884Y45866D01*
X100692Y44544D01*
X97819Y42624D01*
X95376Y40181D01*
X93456Y37308D01*
X92134Y34116D01*
X91460Y30728D01*
Y27273D01*
X92134Y23884D01*
X93456Y20692D01*
X95376Y17819D01*
X97819Y15376D01*
X100692Y13456D01*
X103884Y12134D01*
X107273Y11460D01*
X110728D01*
X114116Y12134D01*
X117308Y13456D01*
X120181Y15376D01*
X122624Y17819D01*
X124544Y20692D01*
X125866Y23884D01*
X126540Y27273D01*
Y30728D01*
X125866Y34116D01*
X124544Y37308D01*
X122624Y40181D01*
X120181Y42624D01*
X117308Y44544D01*
X114116Y45866D01*
X110728Y46540D01*
D02*
G37*
%LPD*%
G36*
X33516Y153821D02*
X34077Y153353D01*
X34758Y152940D01*
X35561Y152582D01*
X36484Y152279D01*
X37527Y152031D01*
X38692Y151838D01*
X39977Y151700D01*
X42910Y151590D01*
Y148590D01*
X41383Y148562D01*
X38692Y148342D01*
X37527Y148149D01*
X36484Y147901D01*
X35561Y147598D01*
X34758Y147240D01*
X34077Y146827D01*
X33516Y146358D01*
X33076Y145835D01*
Y154345D01*
X33516Y153821D01*
D02*
G37*
G36*
X51506Y80479D02*
X51805Y75965D01*
X51898Y75579D01*
X52004Y75297D01*
X52123Y75120D01*
X47877D01*
X47996Y75297D01*
X48102Y75579D01*
X48195Y75965D01*
X48276Y76456D01*
X48400Y77751D01*
X48494Y80479D01*
X48500Y81598D01*
X51500D01*
X51506Y80479D01*
D02*
G37*
G36*
X69004Y129703D02*
X68899Y129421D01*
X68805Y129035D01*
X68724Y128544D01*
X68600Y127249D01*
X68506Y124521D01*
X68500Y123402D01*
X65500D01*
X65494Y124521D01*
X65195Y129035D01*
X65101Y129421D01*
X64996Y129703D01*
X64877Y129880D01*
X69123D01*
X69004Y129703D01*
D02*
G37*
G36*
X33057Y27673D02*
X34102Y27026D01*
X35335Y26455D01*
X36757Y25960D01*
X38368Y25542D01*
X40167Y25199D01*
X42155Y24933D01*
X46695Y24628D01*
X49248Y24590D01*
Y21590D01*
X46695Y21552D01*
X40167Y20981D01*
X38368Y20638D01*
X36757Y20220D01*
X35335Y19725D01*
X34102Y19154D01*
X33057Y18507D01*
X32200Y17783D01*
Y28397D01*
X33057Y27673D01*
D02*
G37*
D21*
X26900Y150090D02*
X42910D01*
X50000Y73000D02*
Y143000D01*
X42910Y150090D02*
X50000Y143000D01*
X26900Y23090D02*
X54090D01*
X67000Y36000D02*
Y132000D01*
X54090Y23090D02*
X67000Y36000D01*
D23*
X26900Y150090D02*
D03*
Y124690D02*
D03*
Y99290D02*
D03*
Y73890D02*
D03*
Y48490D02*
D03*
Y23090D02*
D03*
Y175490D02*
D03*
D24*
Y200890D02*
D03*
D25*
X67000Y132000D02*
D03*
X50000Y73000D02*
D03*
M02*
