G04*
G04 #@! TF.GenerationSoftware,Altium Limited,Altium Designer,22.9.1 (49)*
G04*
G04 Layer_Color=32896*
%FSLAX44Y44*%
%MOMM*%
G71*
G04*
G04 #@! TF.SameCoordinates,28A18DAE-CB9E-4B37-A36C-106CF66A5601*
G04*
G04*
G04 #@! TF.FilePolarity,Positive*
G04*
G01*
G75*
%ADD26C,0.0254*%
%ADD27C,0.0023*%
%ADD28C,0.0015*%
%ADD29C,0.0026*%
D26*
X112606Y94342D02*
Y102724D01*
X113622Y95104D02*
Y104502D01*
X113114Y94596D02*
Y103486D01*
X117940Y99930D02*
Y124314D01*
X112352Y94088D02*
Y102470D01*
X111082Y93326D02*
Y100946D01*
X111844Y93834D02*
Y101708D01*
X111590Y93580D02*
Y101454D01*
X111336Y93326D02*
Y101200D01*
X110828Y93072D02*
Y100692D01*
X87968Y93326D02*
Y101200D01*
X89238Y115932D02*
Y119488D01*
X90000Y92056D02*
Y99168D01*
X88730Y92818D02*
Y100438D01*
X88222Y93072D02*
Y100946D01*
Y105010D02*
Y108820D01*
X88476Y93072D02*
Y100692D01*
Y105010D02*
Y108820D01*
X88730Y105010D02*
Y108820D01*
X87968Y105010D02*
Y108820D01*
X89238Y105010D02*
Y108820D01*
X90000Y105010D02*
Y108820D01*
Y115932D02*
Y119488D01*
X104986Y112630D02*
Y116440D01*
X104478Y112884D02*
Y116694D01*
X104224Y113138D02*
Y116948D01*
X104732Y112630D02*
Y116694D01*
X105240Y112376D02*
Y116440D01*
X105494Y108312D02*
Y116186D01*
X105748Y108566D02*
Y115932D01*
X120988Y107296D02*
Y116948D01*
X120734Y106534D02*
Y117964D01*
X120480Y105518D02*
Y118980D01*
X120226Y104756D02*
Y119742D01*
X119972Y103994D02*
Y120504D01*
X119718Y103486D02*
Y121012D01*
X119464Y102724D02*
Y121520D01*
X119210Y102216D02*
Y122282D01*
X118956Y101708D02*
Y122536D01*
X118702Y101454D02*
Y123044D01*
X118448Y100946D02*
Y123552D01*
X117432Y99168D02*
Y125076D01*
X117686Y99676D02*
Y124822D01*
X118194Y100438D02*
Y124060D01*
X121242Y108820D02*
Y115678D01*
X115400Y96882D02*
Y110090D01*
X112098Y93834D02*
Y102216D01*
X114384Y95866D02*
Y106026D01*
X112860Y94342D02*
Y103232D01*
X113368Y94850D02*
Y103994D01*
X113876Y95358D02*
Y105010D01*
X114892Y96374D02*
Y107550D01*
X115146Y96628D02*
Y108566D01*
X114638Y95866D02*
Y106788D01*
X114130Y95612D02*
Y105518D01*
X106256Y91040D02*
Y97390D01*
X108542Y91802D02*
Y98660D01*
X107526Y91294D02*
Y98152D01*
X106764Y91040D02*
Y97644D01*
X107018Y91294D02*
Y97898D01*
X107272Y91294D02*
Y97898D01*
X107780Y91548D02*
Y98152D01*
X108034Y91548D02*
Y98406D01*
X108288Y91802D02*
Y98660D01*
X106510Y91040D02*
Y97644D01*
X108796Y92056D02*
Y98914D01*
X109050Y92056D02*
Y99168D01*
X109304Y92310D02*
Y99168D01*
X109558Y92310D02*
Y99422D01*
X111844Y112122D02*
Y112630D01*
X109050Y110598D02*
Y114154D01*
X109304Y110598D02*
Y113900D01*
X109558Y110852D02*
Y113900D01*
X109812Y110852D02*
Y113646D01*
X110574Y111360D02*
Y113138D01*
X110320Y111360D02*
Y113392D01*
X110066Y111106D02*
Y113646D01*
X110828Y111614D02*
Y113138D01*
X111082Y111614D02*
Y112884D01*
X111336Y111868D02*
Y112884D01*
X111590Y112122D02*
Y112630D01*
X92032Y91294D02*
Y97898D01*
X93810Y90786D02*
Y97136D01*
X94826Y90532D02*
Y96628D01*
X94064Y90532D02*
Y96882D01*
X94572Y90532D02*
Y96882D01*
X94318Y90532D02*
Y96882D01*
X95080Y90278D02*
Y96628D01*
X95334Y90278D02*
Y96628D01*
X95588Y90278D02*
Y96374D01*
X93302Y90786D02*
Y97390D01*
X92286Y91294D02*
Y97644D01*
X92540Y91040D02*
Y97644D01*
X92794Y91040D02*
Y97644D01*
X104986Y108058D02*
Y111868D01*
X103462Y107296D02*
Y111106D01*
X102700Y106788D02*
Y110598D01*
X102954Y107042D02*
Y110852D01*
X102192Y106534D02*
Y110344D01*
X101938Y106280D02*
Y110090D01*
X101684Y106280D02*
Y110090D01*
X102446Y106534D02*
Y110344D01*
X103208Y107042D02*
Y110852D01*
X103716Y107296D02*
Y111106D01*
X103970Y107550D02*
Y111360D01*
X104478Y107804D02*
Y111614D01*
X104224Y107804D02*
Y111614D01*
X105240Y108312D02*
Y112122D01*
X95080Y102216D02*
Y122282D01*
X95842Y102724D02*
Y121774D01*
X95588Y102724D02*
Y122028D01*
X95334Y102470D02*
Y122028D01*
X96096Y102978D02*
Y121520D01*
X96604Y103232D02*
Y121266D01*
X96858Y117456D02*
Y121266D01*
X96350Y102978D02*
Y121520D01*
X97112Y117202D02*
Y121012D01*
X99398Y104756D02*
Y108566D01*
X99144Y104756D02*
Y108566D01*
X99398Y115932D02*
Y119742D01*
X97620Y116948D02*
Y120758D01*
X97874Y116694D02*
Y120504D01*
X97366Y116948D02*
Y121012D01*
X98128Y116694D02*
Y120504D01*
X98636Y116440D02*
Y120250D01*
X98890Y116186D02*
Y119996D01*
X98382Y116440D02*
Y120250D01*
X99144Y115932D02*
Y119996D01*
X100922Y114916D02*
Y118726D01*
X102700Y113900D02*
Y117710D01*
X101176Y114916D02*
Y118726D01*
X101938Y114408D02*
Y118218D01*
X101684Y114408D02*
Y118472D01*
X101430Y114662D02*
Y118472D01*
X102192Y114154D02*
Y118218D01*
X102446Y114154D02*
Y117964D01*
X102954Y113900D02*
Y117710D01*
X103208Y113646D02*
Y117456D01*
X103462Y113392D02*
Y117456D01*
X103716Y113392D02*
Y117202D01*
X103970Y113138D02*
Y117202D01*
X96858Y103232D02*
Y107042D01*
X97874Y103994D02*
Y107804D01*
X97112Y103486D02*
Y107296D01*
X97620Y103740D02*
Y107550D01*
X97366Y103740D02*
Y107550D01*
X98128Y103994D02*
Y107804D01*
X98636Y104502D02*
Y108058D01*
X98890Y104502D02*
Y108312D01*
X98382Y104248D02*
Y108058D01*
X100922Y105772D02*
Y109582D01*
X101176Y105772D02*
Y109582D01*
X101430Y106026D02*
Y109836D01*
X104732Y108058D02*
Y111868D01*
X106002Y108820D02*
Y115932D01*
X106510Y109074D02*
Y115678D01*
X107018Y109328D02*
Y115424D01*
X106256Y108820D02*
Y115678D01*
X106764Y109074D02*
Y115424D01*
X107272Y109582D02*
Y115170D01*
X107526Y109582D02*
Y114916D01*
X108034Y109836D02*
Y114662D01*
X108288Y110090D02*
Y114662D01*
X108542Y110090D02*
Y114408D01*
X87460Y78340D02*
Y82404D01*
X86952Y77832D02*
Y82150D01*
X87206Y78086D02*
Y82404D01*
X80348Y105010D02*
Y108820D01*
X99144Y75546D02*
Y87738D01*
X98128Y76308D02*
Y87738D01*
X97874Y76562D02*
Y87738D01*
X98382Y76054D02*
Y87738D01*
X98636Y75800D02*
Y87738D01*
X98890Y75546D02*
Y87738D01*
X99398Y75292D02*
Y87738D01*
X97620Y76816D02*
Y87738D01*
X99652Y75038D02*
Y87738D01*
X95588Y78340D02*
Y82404D01*
X93048Y80626D02*
Y84690D01*
X93810Y79864D02*
Y83928D01*
X93302Y80372D02*
Y84436D01*
X93556Y80118D02*
Y84182D01*
X94064Y79610D02*
Y83674D01*
X94318Y79610D02*
Y83420D01*
X94572Y79356D02*
Y83166D01*
X94826Y79102D02*
Y83166D01*
X95080Y78848D02*
Y82912D01*
X95334Y78594D02*
Y82658D01*
X90254Y80626D02*
Y84690D01*
X92286Y81134D02*
Y85198D01*
X92540Y81134D02*
Y84944D01*
X92794Y80880D02*
Y84690D01*
X92032Y81388D02*
Y85452D01*
X99906Y90024D02*
Y95866D01*
X100668Y90024D02*
Y95866D01*
X100160Y90024D02*
Y95866D01*
X100414Y90024D02*
Y95866D01*
X100922Y90024D02*
Y96120D01*
X101938Y90024D02*
Y96120D01*
X101684Y90024D02*
Y96120D01*
X101430Y90024D02*
Y96120D01*
X101176Y90024D02*
Y96120D01*
X102192Y90024D02*
Y96120D01*
X102446Y90024D02*
Y96120D01*
X102700Y90024D02*
Y96374D01*
X102954Y90278D02*
Y96374D01*
X99144Y90024D02*
Y95866D01*
X99398Y90024D02*
Y95866D01*
X99652Y89770D02*
Y95866D01*
Y105010D02*
Y108820D01*
Y115678D02*
Y119488D01*
X99906Y105264D02*
Y108820D01*
Y115678D02*
Y119488D01*
X100160Y105264D02*
Y109074D01*
Y115424D02*
Y119234D01*
X100414Y105518D02*
Y109328D01*
Y115170D02*
Y119234D01*
X100668Y105518D02*
Y109328D01*
Y115170D02*
Y118980D01*
X95588Y87230D02*
Y87738D01*
X95334Y87484D02*
Y87738D01*
X93556Y90786D02*
Y97136D01*
X93048Y91040D02*
Y97390D01*
X97366Y76816D02*
Y87738D01*
X97112Y77070D02*
Y87738D01*
Y90024D02*
Y96120D01*
X97366Y90024D02*
Y96120D01*
X95842Y78086D02*
Y82150D01*
X96096Y78086D02*
Y81896D01*
X95842Y86722D02*
Y87738D01*
Y90278D02*
Y96374D01*
X96096Y86468D02*
Y87738D01*
Y90278D02*
Y96374D01*
X96350Y77832D02*
Y81642D01*
Y86214D02*
Y87738D01*
Y90024D02*
Y96374D01*
X96604Y77578D02*
Y87738D01*
Y90024D02*
Y96374D01*
X96858Y77324D02*
Y87738D01*
Y90024D02*
Y96120D01*
X97620Y90024D02*
Y96120D01*
X97874Y90024D02*
Y96120D01*
X98128Y90024D02*
Y96120D01*
X98382Y90024D02*
Y95866D01*
X98636Y90024D02*
Y95866D01*
X98890Y90024D02*
Y95866D01*
X103970Y90278D02*
Y96628D01*
X103208Y90278D02*
Y96374D01*
X103462Y90278D02*
Y96374D01*
X103716Y90278D02*
Y96628D01*
X104224Y90278D02*
Y96628D01*
X104986Y90532D02*
Y96882D01*
X104478Y90532D02*
Y96628D01*
X104732Y90532D02*
Y96882D01*
X105240Y90532D02*
Y96882D01*
X105494Y90786D02*
Y97136D01*
X106002Y90786D02*
Y97390D01*
X105748Y90786D02*
Y97136D01*
X110320Y92818D02*
Y100184D01*
X110066Y92564D02*
Y99930D01*
X109812Y92564D02*
Y99676D01*
X110574Y92818D02*
Y100438D01*
X95334Y127870D02*
Y134220D01*
X92032Y126600D02*
Y133204D01*
X93048Y127108D02*
Y133458D01*
X94318Y127616D02*
Y133966D01*
X93556Y101454D02*
Y123044D01*
X93810Y101454D02*
Y123044D01*
X94064Y101708D02*
Y122790D01*
X94572Y101962D02*
Y122536D01*
X94826Y102216D02*
Y122282D01*
X94318Y101962D02*
Y122790D01*
X87714Y78594D02*
Y82658D01*
X88730Y79356D02*
Y83420D01*
X88476Y79102D02*
Y83420D01*
X88222Y78848D02*
Y83166D01*
X87968Y78594D02*
Y82912D01*
X105494Y127362D02*
Y133712D01*
X103208Y128124D02*
Y134220D01*
X104986Y127616D02*
Y133966D01*
X104224Y127870D02*
Y133966D01*
X104732Y127616D02*
Y133966D01*
X102700Y128124D02*
Y134220D01*
X102954Y128124D02*
Y134220D01*
X103462Y127870D02*
Y134220D01*
X103716Y127870D02*
Y134220D01*
X103970Y127870D02*
Y134220D01*
X104478Y127616D02*
Y133966D01*
X105240Y127362D02*
Y133712D01*
X105748Y127108D02*
Y133712D01*
X106002Y127108D02*
Y133458D01*
X106510Y126854D02*
Y133458D01*
X100668Y128378D02*
Y134474D01*
X101176Y128378D02*
Y134474D01*
X101430Y128378D02*
Y134474D01*
X101938Y128378D02*
Y134474D01*
X100922Y128378D02*
Y134474D01*
X101684Y128378D02*
Y134474D01*
X102192Y128124D02*
Y134474D01*
X102446Y128124D02*
Y134474D01*
X77808Y75038D02*
Y101454D01*
Y105010D02*
Y108820D01*
Y115932D02*
Y119488D01*
X78062Y75038D02*
Y101454D01*
Y105010D02*
Y108820D01*
Y115932D02*
Y119488D01*
X78316Y75038D02*
Y101454D01*
Y105010D02*
Y108820D01*
Y115932D02*
Y119488D01*
X77808Y123044D02*
Y149460D01*
X78062Y123044D02*
Y149460D01*
X78316Y123044D02*
Y149460D01*
X78570Y75038D02*
Y101454D01*
Y105010D02*
Y108820D01*
Y115932D02*
Y119488D01*
X78824Y75038D02*
Y101454D01*
Y105010D02*
Y108820D01*
Y115932D02*
Y119488D01*
Y123044D02*
Y149460D01*
X78570Y123044D02*
Y149460D01*
X90254Y105010D02*
Y108820D01*
X88984Y79610D02*
Y83674D01*
X89238Y79864D02*
Y83928D01*
X88984Y92818D02*
Y100184D01*
Y105010D02*
Y108820D01*
X89238Y92564D02*
Y99930D01*
X89492Y92564D02*
Y99676D01*
Y105010D02*
Y108820D01*
X89746Y92310D02*
Y99422D01*
Y105010D02*
Y108820D01*
X90254Y92056D02*
Y99168D01*
X87968Y141840D02*
Y145904D01*
X89746Y140316D02*
Y144380D01*
X88730Y141078D02*
Y145142D01*
X88222Y141586D02*
Y145650D01*
X88476Y141332D02*
Y145396D01*
X88984Y140824D02*
Y144888D01*
X89492Y140316D02*
Y144380D01*
X89238Y140570D02*
Y144634D01*
X90000Y140062D02*
Y144126D01*
X90254Y139808D02*
Y143872D01*
X79078Y75038D02*
Y101454D01*
X79840Y75038D02*
Y101454D01*
X79332Y75038D02*
Y101454D01*
X79078Y105010D02*
Y108820D01*
Y115932D02*
Y119488D01*
X79332Y105010D02*
Y108820D01*
Y115932D02*
Y119488D01*
X79586Y75038D02*
Y101454D01*
Y105010D02*
Y108820D01*
Y115932D02*
Y119488D01*
X79840Y105010D02*
Y108820D01*
Y115932D02*
Y119488D01*
X90254Y115932D02*
Y119488D01*
X89492Y115932D02*
Y119488D01*
X89746Y115932D02*
Y119488D01*
X85428Y123044D02*
Y129140D01*
X85682Y123044D02*
Y129394D01*
X86190Y123044D02*
Y129902D01*
X86444Y123044D02*
Y129902D01*
X86698Y123044D02*
Y130156D01*
X85936Y123044D02*
Y129648D01*
X88222Y123552D02*
Y131172D01*
X88476Y123806D02*
Y131426D01*
X88730Y124060D02*
Y131680D01*
X88984Y115932D02*
Y119488D01*
Y124314D02*
Y131680D01*
X89492Y124822D02*
Y131934D01*
X89746Y125076D02*
Y132188D01*
X83904Y115932D02*
Y119488D01*
X84412Y115932D02*
Y119488D01*
X84158Y123044D02*
Y127870D01*
Y115932D02*
Y119488D01*
X84412Y123044D02*
Y128124D01*
X84666Y115932D02*
Y119488D01*
Y123044D02*
Y128378D01*
X83904Y123044D02*
Y127616D01*
X84920Y115932D02*
Y119488D01*
Y123044D02*
Y128632D01*
X85174Y115932D02*
Y119488D01*
Y123044D02*
Y128886D01*
X85428Y115932D02*
Y119488D01*
Y95358D02*
Y101454D01*
X86190Y94596D02*
Y101454D01*
X85682Y95104D02*
Y101454D01*
Y105010D02*
Y108820D01*
X85428Y105010D02*
Y108820D01*
X86190Y105010D02*
Y108820D01*
X86444Y94342D02*
Y101454D01*
Y105010D02*
Y108820D01*
X86698Y94342D02*
Y101454D01*
Y105010D02*
Y108820D01*
X85936Y94850D02*
Y101454D01*
Y105010D02*
Y108820D01*
X85682Y144126D02*
Y147682D01*
X85936Y143872D02*
Y147428D01*
X87206Y142602D02*
Y146412D01*
X87460Y142348D02*
Y146158D01*
X86952Y142856D02*
Y146666D01*
X86190Y143618D02*
Y147428D01*
X86444Y143364D02*
Y147174D01*
X86698Y143110D02*
Y146920D01*
X87714Y142094D02*
Y145904D01*
X100414Y128378D02*
Y134474D01*
X98382Y128378D02*
Y134474D01*
X99906Y128378D02*
Y134474D01*
X98890Y128378D02*
Y134474D01*
X99398Y128378D02*
Y134474D01*
X99652Y128378D02*
Y134474D01*
X100160Y128378D02*
Y134474D01*
X99144Y128378D02*
Y134474D01*
X98128Y128378D02*
Y134474D01*
X98636Y128378D02*
Y134474D01*
X83142Y123044D02*
Y149460D01*
X82380Y123044D02*
Y149460D01*
X82634Y123044D02*
Y149460D01*
X82888Y123044D02*
Y149460D01*
X83396Y123044D02*
Y149460D01*
X83650Y123044D02*
Y127362D01*
Y127616D02*
Y145650D01*
X84412Y145142D02*
Y148698D01*
X83650Y145904D02*
Y149460D01*
X84158Y145650D02*
Y148952D01*
X84666Y145142D02*
Y148698D01*
X83904Y145650D02*
Y149206D01*
X84920Y144888D02*
Y148444D01*
X85174Y144634D02*
Y148190D01*
X85428Y144380D02*
Y147936D01*
X94572Y127616D02*
Y133966D01*
X92794Y126854D02*
Y133458D01*
X92286Y126600D02*
Y133204D01*
X92540Y126854D02*
Y133458D01*
X93302Y127108D02*
Y133458D01*
X93556Y127362D02*
Y133712D01*
X93810Y127362D02*
Y133712D01*
X94064Y127362D02*
Y133712D01*
X94826Y127616D02*
Y133966D01*
X95080Y127870D02*
Y133966D01*
X79078Y123044D02*
Y149460D01*
X80094Y123044D02*
Y149460D01*
X79586Y123044D02*
Y149460D01*
X79332Y123044D02*
Y149460D01*
X79840Y123044D02*
Y149460D01*
X80348Y123044D02*
Y149460D01*
X80602Y123044D02*
Y149460D01*
X81364Y123044D02*
Y149460D01*
X80856Y123044D02*
Y149460D01*
X81110Y123044D02*
Y149460D01*
X81618Y123044D02*
Y149460D01*
X81872Y123044D02*
Y149460D01*
X82126Y123044D02*
Y149460D01*
X90508Y139554D02*
Y143618D01*
X92032Y139046D02*
Y143110D01*
X91778Y138792D02*
Y142856D01*
X90762Y139300D02*
Y143364D01*
X91270Y138792D02*
Y142856D01*
X91524Y138538D02*
Y142856D01*
X91016Y139046D02*
Y143110D01*
X92286Y139300D02*
Y143364D01*
X92540Y139554D02*
Y143618D01*
X92794Y139808D02*
Y143618D01*
X93048Y139808D02*
Y143872D01*
X94826Y141332D02*
Y145396D01*
X93810Y140570D02*
Y144634D01*
X93302Y140062D02*
Y144126D01*
X93556Y140316D02*
Y144380D01*
X94064Y140824D02*
Y144888D01*
X94572Y141332D02*
Y145142D01*
X94318Y141078D02*
Y144888D01*
X95080Y141586D02*
Y145650D01*
X95588Y142094D02*
Y146158D01*
X95842Y142348D02*
Y146412D01*
X95334Y141840D02*
Y145904D01*
X96096Y142602D02*
Y146412D01*
X97366Y128378D02*
Y134474D01*
X96350Y128124D02*
Y134220D01*
X95588Y127870D02*
Y134220D01*
X95842Y128124D02*
Y134220D01*
X96096Y128124D02*
Y134220D01*
X96604Y128124D02*
Y134220D01*
X96858Y128124D02*
Y134474D01*
X97112Y128124D02*
Y134474D01*
X97620Y128378D02*
Y134474D01*
X97874Y128378D02*
Y134474D01*
X86952Y123044D02*
Y130410D01*
X87968Y123298D02*
Y131172D01*
X87206Y123044D02*
Y130664D01*
X87460Y123044D02*
Y130664D01*
X87714Y123044D02*
Y130918D01*
X97620Y136760D02*
Y147682D01*
X98890Y136760D02*
Y148952D01*
X97874Y136760D02*
Y147936D01*
X98128Y136760D02*
Y148190D01*
X98636Y136760D02*
Y148698D01*
X98382Y136760D02*
Y148444D01*
X99398Y136760D02*
Y149460D01*
X99652Y136760D02*
Y149460D01*
X99144Y136760D02*
Y149206D01*
X89238Y124568D02*
Y131934D01*
X90000Y125076D02*
Y132188D01*
X91016Y125838D02*
Y132696D01*
X90254Y125330D02*
Y132442D01*
X91270Y126092D02*
Y132950D01*
X90508Y125584D02*
Y132442D01*
X90762Y125838D02*
Y132696D01*
X91524Y126092D02*
Y132950D01*
X91778Y126346D02*
Y132950D01*
X95334Y136760D02*
Y137014D01*
X96096Y136760D02*
Y138030D01*
X95842Y136760D02*
Y137776D01*
X95588Y136760D02*
Y137268D01*
X96604Y136760D02*
Y146920D01*
X96858Y136760D02*
Y147174D01*
X96350Y136760D02*
Y138284D01*
Y142856D02*
Y146666D01*
X97112Y136760D02*
Y147428D01*
X97366Y136760D02*
Y147682D01*
X83904Y75292D02*
Y79610D01*
X85936Y77070D02*
Y81134D01*
X85428Y76562D02*
Y80880D01*
X85174Y76308D02*
Y80626D01*
X84920Y76054D02*
Y80372D01*
X84666Y75800D02*
Y80118D01*
X84412Y75800D02*
Y79864D01*
X84158Y75546D02*
Y79864D01*
X85682Y76816D02*
Y81134D01*
X86190Y77324D02*
Y81388D01*
X86444Y77324D02*
Y81642D01*
X86698Y77578D02*
Y81896D01*
X83650Y75038D02*
Y79356D01*
X89492Y80118D02*
Y84182D01*
X89746Y80118D02*
Y84436D01*
X90000Y80372D02*
Y84436D01*
X90508Y105010D02*
Y108820D01*
X90762Y105010D02*
Y108820D01*
X91270Y105010D02*
Y108820D01*
X91524Y105010D02*
Y108820D01*
X91016Y105010D02*
Y108820D01*
X80094Y75038D02*
Y101454D01*
X80602Y75038D02*
Y101454D01*
X80348Y75038D02*
Y101454D01*
Y115932D02*
Y119488D01*
X80602Y105010D02*
Y108820D01*
Y115932D02*
Y119488D01*
X80856Y75038D02*
Y101454D01*
Y105010D02*
Y108820D01*
Y115932D02*
Y119488D01*
X81110Y75038D02*
Y101454D01*
Y105010D02*
Y108820D01*
Y115932D02*
Y119488D01*
X80094Y105010D02*
Y108820D01*
X81364Y75038D02*
Y101454D01*
X81618Y75038D02*
Y101454D01*
X81364Y105010D02*
Y108820D01*
X81618Y105010D02*
Y108820D01*
X81872Y75038D02*
Y101454D01*
Y105010D02*
Y108820D01*
X82126Y75038D02*
Y101454D01*
Y105010D02*
Y108820D01*
X82380Y105010D02*
Y108820D01*
X82634Y105010D02*
Y108820D01*
X82888Y105010D02*
Y108820D01*
X83142Y105010D02*
Y108820D01*
X83396Y105010D02*
Y108820D01*
X83650Y105010D02*
Y108820D01*
X80094Y115932D02*
Y119488D01*
X81364Y115932D02*
Y119488D01*
X81618Y115932D02*
Y119488D01*
X81872Y115932D02*
Y119488D01*
X82126Y115932D02*
Y119488D01*
X82380Y115932D02*
Y119488D01*
X82634Y115932D02*
Y119488D01*
X82888Y115932D02*
Y119488D01*
X83142Y115932D02*
Y119488D01*
X83396Y115932D02*
Y119488D01*
X83650Y115932D02*
Y119488D01*
X86190Y115932D02*
Y119488D01*
X85682Y115932D02*
Y119488D01*
X85936Y115932D02*
Y119488D01*
X82380Y75038D02*
Y101454D01*
X83396Y75038D02*
Y101454D01*
X82634Y75038D02*
Y101454D01*
X82888Y75038D02*
Y101454D01*
X83142Y75038D02*
Y101454D01*
X83650Y79610D02*
Y96628D01*
Y96882D02*
Y101454D01*
X83904Y96628D02*
Y101454D01*
X84920Y95612D02*
Y101454D01*
X84158Y96374D02*
Y101454D01*
Y105010D02*
Y108820D01*
X84412Y96120D02*
Y101454D01*
Y105010D02*
Y108820D01*
X84666Y95866D02*
Y101454D01*
Y105010D02*
Y108820D01*
X83904Y105010D02*
Y108820D01*
X84920Y105010D02*
Y108820D01*
X85174Y95612D02*
Y101454D01*
Y105010D02*
Y108820D01*
X86444Y115932D02*
Y119488D01*
X88730Y115932D02*
Y119488D01*
X86698Y115932D02*
Y119488D01*
X88222Y115932D02*
Y119488D01*
X88476Y115932D02*
Y119488D01*
X87968Y115932D02*
Y119488D01*
X87206Y115932D02*
Y119488D01*
X87460Y115932D02*
Y119488D01*
X87714Y115932D02*
Y119488D01*
X86952Y115932D02*
Y119488D01*
X90508Y115932D02*
Y119488D01*
X90762Y115932D02*
Y119488D01*
X91270Y115932D02*
Y119488D01*
X91524Y115932D02*
Y119488D01*
X91016Y115932D02*
Y119488D01*
X86952Y94088D02*
Y101454D01*
X87714Y93580D02*
Y101454D01*
X87206Y93834D02*
Y101454D01*
Y105010D02*
Y108820D01*
X87460Y93580D02*
Y101454D01*
Y105010D02*
Y108820D01*
X87714Y105010D02*
Y108820D01*
X86952Y105010D02*
Y108820D01*
X90508Y80880D02*
Y84944D01*
X91778Y91294D02*
Y98152D01*
X91524Y91548D02*
Y98152D01*
X90508Y92056D02*
Y98914D01*
X90762Y91802D02*
Y98660D01*
X91270Y91548D02*
Y98406D01*
X91016Y91802D02*
Y98406D01*
X90762Y81134D02*
Y85198D01*
X91016Y81388D02*
Y85452D01*
X91270Y81642D02*
Y85706D01*
X91524Y81642D02*
Y85706D01*
X91778Y81642D02*
Y85706D01*
X116162Y97644D02*
Y126854D01*
X114892Y116948D02*
Y128124D01*
X115908Y97390D02*
Y127108D01*
X115654Y97136D02*
Y127362D01*
X116416Y97898D02*
Y126600D01*
X116670Y98152D02*
Y126092D01*
X116924Y98660D02*
Y125838D01*
X117178Y98914D02*
Y125584D01*
X106256Y127108D02*
Y133458D01*
X107780Y109836D02*
Y114916D01*
X107272Y126600D02*
Y133204D01*
X106764Y126854D02*
Y133204D01*
X107018Y126600D02*
Y133204D01*
X107526Y126346D02*
Y132950D01*
X107780Y126092D02*
Y132950D01*
X108796Y110344D02*
Y114408D01*
X108034Y126092D02*
Y132950D01*
X110320Y124314D02*
Y131680D01*
X109304Y125076D02*
Y132188D01*
X108796Y125584D02*
Y132442D01*
X108288Y125838D02*
Y132696D01*
X110574Y124060D02*
Y131426D01*
X111844Y122790D02*
Y130664D01*
X110066Y124568D02*
Y131934D01*
X109812Y124822D02*
Y131934D01*
X108542Y125584D02*
Y132696D01*
X109050Y125330D02*
Y132442D01*
X109558Y124822D02*
Y132188D01*
X110828Y123806D02*
Y131426D01*
X111336Y123298D02*
Y131172D01*
X111082Y123552D02*
Y131172D01*
X111590Y123044D02*
Y130918D01*
X112098Y122282D02*
Y130410D01*
X114638Y117710D02*
Y128378D01*
X113622Y119996D02*
Y129394D01*
X113114Y121012D02*
Y129648D01*
X112606Y121774D02*
Y130156D01*
X112352Y122028D02*
Y130410D01*
X112860Y121266D02*
Y129902D01*
X113368Y120504D02*
Y129648D01*
X114130Y118980D02*
Y128886D01*
X113876Y119488D02*
Y129140D01*
X114384Y118472D02*
Y128632D01*
X115146Y115932D02*
Y127870D01*
X115400Y114408D02*
Y127616D01*
D27*
X69897Y13149D02*
X70655D01*
X65620Y13126D02*
X66402D01*
X65643Y13149D02*
X66402D01*
X69897Y13126D02*
X70655D01*
X69874Y13103D02*
X70632D01*
X65620Y13081D02*
X66379D01*
X65620Y13103D02*
X66379D01*
X69874Y13081D02*
X70632D01*
X69874Y13058D02*
X70632D01*
X69851Y13035D02*
X70632D01*
X65620Y13058D02*
X66379D01*
X65597Y13035D02*
X66379D01*
X69851Y13012D02*
X70632D01*
X69851Y12989D02*
X70632D01*
X65597Y13012D02*
X66379D01*
X65597Y12989D02*
X66356D01*
X69828Y12966D02*
X70609D01*
X69828Y12943D02*
X70609D01*
X65574Y12966D02*
X66356D01*
X65574Y12943D02*
X66356D01*
X69828Y12920D02*
X70609D01*
X69805Y12897D02*
X70586D01*
X65574Y12920D02*
X66356D01*
X65552Y12897D02*
X66333D01*
X69805Y12874D02*
X70586D01*
X69782Y12851D02*
X70586D01*
X65552Y12874D02*
X66333D01*
X65528Y12851D02*
X66333D01*
X69782Y12828D02*
X70586D01*
X69782Y12805D02*
X70563D01*
X65528Y12828D02*
X66333D01*
X65505Y12805D02*
X66310D01*
X69759Y12782D02*
X70563D01*
X69759Y12759D02*
X70563D01*
X65505Y12782D02*
X66310D01*
X65483Y12759D02*
X66310D01*
X69736Y12736D02*
X70540D01*
X69713Y12713D02*
X70540D01*
X65483Y12736D02*
X66287D01*
X65459Y12713D02*
X66287D01*
X69713Y12690D02*
X70540D01*
X69690Y12667D02*
X70517D01*
X65459Y12690D02*
X66287D01*
X65437Y12667D02*
X66264D01*
X69690Y12644D02*
X70517D01*
X69667Y12621D02*
X70494D01*
X65437Y12644D02*
X66264D01*
X65413Y12621D02*
X66241D01*
X69644Y12598D02*
X70494D01*
X69644Y12575D02*
X70494D01*
X65391Y12598D02*
X66241D01*
X65391Y12575D02*
X66241D01*
X69621Y12552D02*
X70471D01*
X69598Y12529D02*
X70471D01*
X65367Y12552D02*
X66218D01*
X65345Y12529D02*
X66218D01*
X69598Y12506D02*
X70448D01*
X69575Y12483D02*
X70448D01*
X65345Y12506D02*
X66195D01*
X65321Y12483D02*
X66195D01*
X69552Y12460D02*
X70425D01*
X69529Y12437D02*
X70425D01*
X65299Y12460D02*
X66172D01*
X65276Y12437D02*
X66172D01*
X69506Y12414D02*
X70402D01*
X69506Y12391D02*
X70402D01*
X65253Y12414D02*
X66149D01*
X65253Y12391D02*
X66149D01*
X69437Y12322D02*
X70356D01*
X65138Y12276D02*
X66080D01*
X69391D02*
X70333D01*
X69414Y12299D02*
X70356D01*
X65184Y12322D02*
X66103D01*
X65161Y12299D02*
X66103D01*
X69483Y12368D02*
X70379D01*
X69460Y12345D02*
X70379D01*
X65230Y12368D02*
X66126D01*
X65207Y12345D02*
X66126D01*
X69368Y12253D02*
X70310D01*
X65115D02*
X66057D01*
X69345Y12230D02*
X70310D01*
X65023Y12184D02*
X66011D01*
X69276D02*
X70265D01*
X69299Y12207D02*
X70287D01*
X65069Y12230D02*
X66057D01*
X65046Y12207D02*
X66034D01*
X69253Y12161D02*
X70265D01*
X65000D02*
X66011D01*
X69230Y12138D02*
X70241D01*
X64908Y12092D02*
X65965D01*
X69161D02*
X70219D01*
X69184Y12115D02*
X70219D01*
X64977Y12138D02*
X65988D01*
X64931Y12115D02*
X65965D01*
X69115Y12069D02*
X70195D01*
X64862D02*
X65942D01*
X69069Y12046D02*
X70173D01*
X64747Y12000D02*
X65896D01*
X69000D02*
X70149D01*
X69046Y12023D02*
X70149D01*
X64816Y12046D02*
X65919D01*
X64793Y12023D02*
X65896D01*
X68954Y11977D02*
X70127D01*
X64701D02*
X65873D01*
X68908Y11954D02*
X70104D01*
X64540Y11908D02*
X65804D01*
X68793D02*
X70058D01*
X68862Y11931D02*
X70080D01*
X64655Y11954D02*
X65850D01*
X64586Y11931D02*
X65827D01*
X68724Y11885D02*
X70058D01*
X64471D02*
X65781D01*
X68655Y11862D02*
X70035D01*
X64172Y11816D02*
X65735D01*
X68425D02*
X69989D01*
X68563Y11839D02*
X70012D01*
X64402Y11862D02*
X65781D01*
X64310Y11839D02*
X65758D01*
X67942Y11793D02*
X69966D01*
X63689D02*
X65712D01*
X67942Y11770D02*
X69943D01*
X63689Y11724D02*
X65643D01*
X67942D02*
X69897D01*
X67942Y11747D02*
X69920D01*
X63689Y11770D02*
X65689D01*
X63689Y11747D02*
X65666D01*
X67942Y11701D02*
X69874D01*
X63689D02*
X65620D01*
X67942Y11678D02*
X69828D01*
X67942Y11655D02*
X69805D01*
X63689Y11678D02*
X65574D01*
X63689Y11655D02*
X65552D01*
X67942Y11632D02*
X69782D01*
X67942Y11609D02*
X69759D01*
X63689Y11632D02*
X65528D01*
X63689Y11609D02*
X65505D01*
X67942Y11586D02*
X69736D01*
X67942Y11563D02*
X69690D01*
X63689Y11586D02*
X65483D01*
X63689Y11563D02*
X65437D01*
X67942Y11540D02*
X69667D01*
X67942Y11517D02*
X69644D01*
X63689Y11540D02*
X65413D01*
X63689Y11517D02*
X65391D01*
X67942Y11494D02*
X69598D01*
X67942Y11471D02*
X69575D01*
X63689Y11494D02*
X65345D01*
X63689Y11471D02*
X65321D01*
X67942Y11448D02*
X69529D01*
X67942Y11425D02*
X69506D01*
X63689Y11448D02*
X65276D01*
X63689Y11425D02*
X65253D01*
X67942Y11402D02*
X69460D01*
X67942Y11379D02*
X69414D01*
X63689Y11402D02*
X65207D01*
X63689Y11379D02*
X65161D01*
X67942Y11356D02*
X69368D01*
X67942Y11333D02*
X69345D01*
X63689Y11356D02*
X65115D01*
X63689Y11333D02*
X65069D01*
X67942Y11310D02*
X69299D01*
X63689Y11264D02*
X64931D01*
X67942D02*
X69184D01*
X67942Y11287D02*
X69253D01*
X63689Y11310D02*
X65023D01*
X63689Y11287D02*
X65000D01*
X67942Y11241D02*
X69138D01*
X63689D02*
X64885D01*
X67942Y11218D02*
X69069D01*
X63689Y11172D02*
X64701D01*
X67942D02*
X68954D01*
X67942Y11195D02*
X69023D01*
X63689Y11218D02*
X64816D01*
X63689Y11195D02*
X64770D01*
X67942Y11149D02*
X68885D01*
X63689D02*
X64632D01*
X67942Y11126D02*
X68793D01*
X67942Y11103D02*
X68701D01*
X63689Y11126D02*
X64540D01*
X63689Y11103D02*
X64448D01*
X67942Y11080D02*
X68563D01*
X68034Y11057D02*
X68356D01*
X63689Y11080D02*
X64310D01*
X63781Y11057D02*
X64103D01*
X63689Y15701D02*
X65207D01*
X67942Y15678D02*
X69506D01*
X63689Y15655D02*
X65276D01*
X67942Y15701D02*
X69460D01*
X67942Y15448D02*
X69805D01*
X63689Y15425D02*
X65574D01*
X67942D02*
X69828D01*
X69322Y14874D02*
X70310D01*
X67942Y15540D02*
X69690D01*
X63689Y15517D02*
X65483D01*
X67942Y15495D02*
X69759D01*
X63689Y15472D02*
X65528D01*
X63689Y15495D02*
X65505D01*
X63689Y15540D02*
X65437D01*
X67942Y15472D02*
X69782D01*
X67942Y15517D02*
X69736D01*
X63689Y15334D02*
X65689D01*
X67942D02*
X69943D01*
X67942Y15311D02*
X69966D01*
X64172Y15288D02*
X65735D01*
X63689Y15311D02*
X65712D01*
X68862Y15173D02*
X70080D01*
X64655Y15150D02*
X65850D01*
X68908D02*
X70104D01*
X64609Y15173D02*
X65827D01*
X69046Y15081D02*
X70149D01*
X64816Y15058D02*
X65919D01*
X69069D02*
X70173D01*
X64793Y15081D02*
X65896D01*
X69115Y15035D02*
X70195D01*
X64908Y15012D02*
X65965D01*
X69161D02*
X70219D01*
X64862Y15035D02*
X65942D01*
X69184Y14989D02*
X70219D01*
X64977Y14966D02*
X65988D01*
X69230D02*
X70241D01*
X64931Y14989D02*
X65965D01*
X68954Y15127D02*
X70127D01*
X64747Y15104D02*
X65896D01*
X69000D02*
X70149D01*
X64701Y15127D02*
X65873D01*
X68425Y15288D02*
X69989D01*
X68563Y15265D02*
X70012D01*
X64402Y15242D02*
X65781D01*
X64310Y15265D02*
X65758D01*
X67942Y15403D02*
X69874D01*
X63689Y15380D02*
X65643D01*
X63689Y15403D02*
X65597D01*
X67942Y15380D02*
X69897D01*
X67942Y15357D02*
X69920D01*
X63689D02*
X65666D01*
X68655Y15242D02*
X70035D01*
X68724Y15219D02*
X70058D01*
X64540Y15196D02*
X65804D01*
X64471Y15219D02*
X65781D01*
X69253Y14943D02*
X70265D01*
X65023Y14920D02*
X66011D01*
X65046Y14897D02*
X66034D01*
X69276Y14920D02*
X70265D01*
X69299Y14897D02*
X70287D01*
X65092Y14874D02*
X66057D01*
X65000Y14943D02*
X66011D01*
X69897Y13885D02*
X70655D01*
X64172D02*
X66402D01*
X64172Y13862D02*
X66402D01*
X69920D02*
X70655D01*
X69920Y13839D02*
X70678D01*
X64172Y13816D02*
X66425D01*
X64172Y13839D02*
X66425D01*
X69920Y13816D02*
X70678D01*
X69920Y13793D02*
X70678D01*
X64172Y13770D02*
X66425D01*
X64172Y13793D02*
X66425D01*
X69920Y13770D02*
X70678D01*
X69920Y13747D02*
X70678D01*
X64172Y13724D02*
X66425D01*
X64172Y13747D02*
X66425D01*
X69920Y13724D02*
X70678D01*
X69851Y14069D02*
X70632D01*
X65597D02*
X66379D01*
X65620Y14046D02*
X66379D01*
X69874D02*
X70632D01*
X69874Y14023D02*
X70632D01*
X65620Y14000D02*
X66379D01*
X65620Y14023D02*
X66379D01*
X69874Y14000D02*
X70632D01*
X69897Y13977D02*
X70655D01*
X65643Y13954D02*
X66402D01*
X65620Y13977D02*
X66402D01*
X69897Y13954D02*
X70655D01*
X69897Y13931D02*
X70655D01*
X64172Y13908D02*
X66402D01*
X65643Y13931D02*
X66402D01*
X69897Y13908D02*
X70655D01*
X69782Y14253D02*
X70586D01*
X65528D02*
X66333D01*
X65552Y14230D02*
X66333D01*
X69805D02*
X70586D01*
X69805Y14207D02*
X70586D01*
X65552D02*
X66333D01*
X65574Y14184D02*
X66356D01*
X69828D02*
X70609D01*
X69828Y14161D02*
X70609D01*
X65574Y14138D02*
X66356D01*
X65574Y14161D02*
X66356D01*
X69828Y14138D02*
X70609D01*
X69851Y14115D02*
X70632D01*
X65597Y14092D02*
X66379D01*
X65597Y14115D02*
X66356D01*
X69851Y14092D02*
X70632D01*
X69690Y14437D02*
X70517D01*
X65437D02*
X66264D01*
X65459Y14414D02*
X66287D01*
X69713D02*
X70540D01*
X69713Y14391D02*
X70540D01*
X65459D02*
X66287D01*
X65483Y14368D02*
X66287D01*
X69736D02*
X70540D01*
X69759Y14345D02*
X70563D01*
X65505Y14322D02*
X66310D01*
X65483Y14345D02*
X66310D01*
X69759Y14322D02*
X70563D01*
X69759Y14299D02*
X70563D01*
X65505D02*
X66310D01*
X65528Y14276D02*
X66333D01*
X69782D02*
X70586D01*
X69368Y14851D02*
X70310D01*
X69391Y14828D02*
X70333D01*
X65115Y14851D02*
X66057D01*
X65138Y14828D02*
X66080D01*
X69414Y14805D02*
X70356D01*
X69437Y14782D02*
X70356D01*
X65161Y14805D02*
X66103D01*
X65184Y14782D02*
X66103D01*
X69460Y14759D02*
X70379D01*
X65230Y14736D02*
X66126D01*
X65207Y14759D02*
X66126D01*
X69483Y14736D02*
X70379D01*
X69506Y14713D02*
X70402D01*
X65253Y14690D02*
X66149D01*
X65253Y14713D02*
X66149D01*
X69506Y14690D02*
X70402D01*
X69529Y14667D02*
X70425D01*
X65276D02*
X66172D01*
X65299Y14644D02*
X66172D01*
X69552D02*
X70425D01*
X69575Y14621D02*
X70448D01*
X65321D02*
X66195D01*
X65345Y14598D02*
X66195D01*
X69598D02*
X70448D01*
X69598Y14575D02*
X70471D01*
X65345D02*
X66218D01*
X65367Y14552D02*
X66218D01*
X69621D02*
X70471D01*
X69644Y14529D02*
X70494D01*
X65391Y14506D02*
X66241D01*
X65391Y14529D02*
X66241D01*
X69644Y14506D02*
X70494D01*
X69667Y14483D02*
X70494D01*
X65413D02*
X66241D01*
X65437Y14460D02*
X66264D01*
X69690D02*
X70517D01*
X69920Y13333D02*
X70678D01*
X64172Y13310D02*
X66425D01*
X64172Y13333D02*
X66425D01*
X69920Y13310D02*
X70678D01*
X69920Y13288D02*
X70678D01*
X64172Y13264D02*
X66425D01*
X64172Y13288D02*
X66425D01*
X69920Y13264D02*
X70678D01*
X64172Y13218D02*
X66402D01*
X69897D02*
X70655D01*
X64172Y13241D02*
X66402D01*
X69920D02*
X70655D01*
X69897Y13196D02*
X70655D01*
X65643Y13173D02*
X66402D01*
X64172Y13196D02*
X66402D01*
X69897Y13173D02*
X70655D01*
X69943Y13517D02*
X70678D01*
X64172Y13494D02*
X66425D01*
X64172Y13517D02*
X66425D01*
X69943Y13494D02*
X70678D01*
X69943Y13471D02*
X70678D01*
X64172Y13448D02*
X66425D01*
X64172Y13471D02*
X66425D01*
X69943Y13448D02*
X70678D01*
X69943Y13425D02*
X70678D01*
X64172Y13402D02*
X66425D01*
X64172Y13425D02*
X66425D01*
X69943Y13402D02*
X70678D01*
X69920Y13379D02*
X70678D01*
X64172Y13356D02*
X66425D01*
X64172Y13379D02*
X66425D01*
X69920Y13356D02*
X70678D01*
X69943Y13701D02*
X70678D01*
X64172Y13678D02*
X66425D01*
X64172Y13701D02*
X66425D01*
X69943Y13678D02*
X70678D01*
X69943Y13655D02*
X70678D01*
X64172Y13632D02*
X66425D01*
X64172Y13655D02*
X66425D01*
X69943Y13632D02*
X70678D01*
X69943Y13609D02*
X70678D01*
X64172Y13586D02*
X66425D01*
X64172Y13609D02*
X66425D01*
X69943Y13586D02*
X70678D01*
X69943Y13563D02*
X70678D01*
X64172Y13540D02*
X66425D01*
X64172Y13563D02*
X66425D01*
X69943Y13540D02*
X70678D01*
X67942Y16023D02*
X68563D01*
X67942Y16000D02*
X68701D01*
X67942Y15977D02*
X68793D01*
X68034Y16046D02*
X68333D01*
X67942Y15885D02*
X69069D01*
X67942Y15862D02*
X69138D01*
X63689Y15563D02*
X65413D01*
X67942D02*
X69667D01*
X63689Y15448D02*
X65552D01*
X63689Y15587D02*
X65391D01*
X63689Y15632D02*
X65321D01*
X63689Y15678D02*
X65253D01*
X63689Y15724D02*
X65161D01*
X67942Y15587D02*
X69644D01*
X67942Y15793D02*
X69276D01*
X63689Y15816D02*
X65000D01*
X67942Y15839D02*
X69184D01*
X63689D02*
X64931D01*
X67942Y15816D02*
X69253D01*
X63689Y15793D02*
X65023D01*
X67942Y15655D02*
X69529D01*
X67942Y15954D02*
X68885D01*
X67942Y15931D02*
X68954D01*
X67942Y15908D02*
X69023D01*
X63689Y15862D02*
X64885D01*
X67942Y15770D02*
X69322D01*
X63689Y15747D02*
X65115D01*
X67942Y15724D02*
X69414D01*
X67942Y15747D02*
X69368D01*
X63689Y15770D02*
X65069D01*
X67942Y15632D02*
X69575D01*
X63689Y15610D02*
X65345D01*
X67942D02*
X69598D01*
X68793Y15196D02*
X70058D01*
X63689Y16000D02*
X64448D01*
X63689Y15931D02*
X64701D01*
X63689Y15977D02*
X64540D01*
X63689Y15908D02*
X64770D01*
X63689Y15954D02*
X64632D01*
X63689Y15885D02*
X64816D01*
X63689Y16023D02*
X64310D01*
X63781Y16046D02*
X64080D01*
D28*
X76275Y12796D02*
X76573D01*
X76141Y12037D02*
X76647D01*
X80186Y14357D02*
X80498D01*
X76126Y12022D02*
X76647D01*
X77896Y13881D02*
X78238D01*
X80082Y13123D02*
X80394D01*
X76290Y12573D02*
X76602D01*
X80022Y12424D02*
X80424D01*
X79442Y13063D02*
X79799D01*
X77346Y18416D02*
X78847D01*
X81256Y11220D02*
X81613D01*
X74922Y17673D02*
X75264D01*
X80230Y16349D02*
X80676D01*
X80260Y15071D02*
X80557D01*
X75457Y18491D02*
X75844D01*
X79056Y13465D02*
X79398D01*
X74684Y17911D02*
X75026D01*
X76781Y10654D02*
X80097D01*
X80230Y14877D02*
X80543D01*
X81911Y18104D02*
X82238D01*
X79621Y12885D02*
X79978D01*
X80528Y11963D02*
X80885D01*
X80453Y17464D02*
X80766D01*
X83323Y19591D02*
X83650D01*
X80201Y16305D02*
X80662D01*
X80305Y15665D02*
X80617D01*
X76483Y16082D02*
X76825D01*
X76915Y10759D02*
X80186D01*
X75234Y18134D02*
X76171D01*
X72974Y19650D02*
X73316D01*
X75249Y16974D02*
X75517D01*
X81866Y10595D02*
X82223D01*
X80230Y16334D02*
X80662D01*
X79918Y11190D02*
X80230D01*
X75889Y11770D02*
X77063D01*
X73599Y19011D02*
X73956D01*
X75918Y16528D02*
X76394D01*
X75814Y17598D02*
X76126D01*
X80424Y17093D02*
X80736D01*
X80067Y12989D02*
X80379D01*
X75680Y11547D02*
X77286D01*
X75978Y15992D02*
X76275D01*
X80171Y16275D02*
X80662D01*
X78937Y13584D02*
X79279D01*
X82372Y10089D02*
X82713D01*
X76186Y13747D02*
X76483D01*
X76736Y12662D02*
X77078D01*
X80230Y18327D02*
X80691D01*
X80557Y11933D02*
X80899D01*
X81301Y11175D02*
X81658D01*
X78654Y14684D02*
X78996D01*
X79115Y13405D02*
X79457D01*
X79145Y13376D02*
X79487D01*
X79517Y12989D02*
X79873D01*
X76037Y15309D02*
X76335D01*
X76052Y15130D02*
X76364D01*
X81405Y11071D02*
X81762D01*
X81955Y10506D02*
X82312D01*
X74669Y17925D02*
X75011D01*
X75844Y17286D02*
X76156D01*
X79933Y11383D02*
X80245D01*
X73703Y9465D02*
X74045D01*
X80706Y11784D02*
X81048D01*
X76260Y11100D02*
X76840D01*
X79651Y18535D02*
X80453D01*
X79903Y11071D02*
X80216D01*
X76915Y11324D02*
X77390D01*
X75680Y10982D02*
X76097D01*
X75844Y10536D02*
X77271D01*
X77004Y11011D02*
X77435D01*
X76082Y14818D02*
X76394D01*
X79992Y12082D02*
X80305D01*
X76885Y11368D02*
X77375D01*
X82862Y9584D02*
X83219D01*
X79487Y10610D02*
X80052D01*
X74342Y10149D02*
X74699D01*
X74149Y18461D02*
X74491D01*
X82520Y9941D02*
X82862D01*
X82788Y9658D02*
X83145D01*
X82163Y10298D02*
X82520D01*
X79948Y11561D02*
X80260D01*
X75918Y16513D02*
X76409D01*
X76126Y14387D02*
X76424D01*
X74298Y10089D02*
X74640D01*
X82936Y19189D02*
X83264D01*
X81182Y17345D02*
X81524D01*
X76022Y15472D02*
X76320D01*
X77346Y18937D02*
X79130D01*
X80468Y17569D02*
X80780D01*
X75249Y16379D02*
X76543D01*
X76052Y15071D02*
X76364D01*
X78550Y18714D02*
X80201D01*
X80453Y17331D02*
X80751D01*
X80230Y14758D02*
X80528D01*
X80111Y13494D02*
X80424D01*
X76037Y15249D02*
X76350D01*
X75770Y16810D02*
X76290D01*
X76231Y13212D02*
X76543D01*
X76082Y11978D02*
X76647D01*
X76067Y14952D02*
X76379D01*
X75978Y18386D02*
X76469D01*
X74565Y18030D02*
X74907D01*
X82728Y9718D02*
X83085D01*
X79427Y18580D02*
X80394D01*
X78060Y14476D02*
X78401D01*
X74996Y10833D02*
X75338D01*
X80305Y15710D02*
X80617D01*
X79085Y15130D02*
X79413D01*
X76543Y16022D02*
X76885D01*
X75130Y17464D02*
X75472D01*
X75071Y10907D02*
X75413D01*
X76245Y13004D02*
X76558D01*
X82609Y9837D02*
X82966D01*
X74238Y10030D02*
X74580D01*
X81717Y17911D02*
X82059D01*
X76037Y15338D02*
X76335D01*
X77822Y14714D02*
X78178D01*
X80468Y17584D02*
X80780D01*
X80201Y14506D02*
X80513D01*
X76275Y12662D02*
X76587D01*
X76825Y18832D02*
X80201D01*
X75725Y16855D02*
X76290D01*
X75844Y17301D02*
X76156D01*
X81524Y10952D02*
X81866D01*
X76112Y18520D02*
X76840D01*
X79487Y10506D02*
X80052D01*
X75680Y11100D02*
X76097D01*
X73807Y18803D02*
X74149D01*
X75249Y16409D02*
X76513D01*
X74208Y18401D02*
X74550D01*
X78625Y14654D02*
X78966D01*
X73643Y18966D02*
X73985D01*
X75978Y15844D02*
X76290D01*
X80468Y17598D02*
X80780D01*
X80290Y15457D02*
X80587D01*
X77019Y11071D02*
X77435D01*
X80201Y14416D02*
X80498D01*
X75249Y18208D02*
X76231D01*
X76156Y14030D02*
X76469D01*
X74387Y18208D02*
X74744D01*
X80290Y15561D02*
X80602D01*
X81093Y17256D02*
X81435D01*
X82520Y18758D02*
X82862D01*
X75829Y17539D02*
X76141D01*
X75249Y16810D02*
X75517D01*
X72974Y19963D02*
X73019D01*
X79680Y18297D02*
X80201D01*
X79903Y10996D02*
X80216D01*
X75948Y10417D02*
X77167D01*
X75740Y11621D02*
X77227D01*
X76454Y16111D02*
X76796D01*
X79933Y11428D02*
X80245D01*
X76320Y10863D02*
X76781D01*
X77227Y13182D02*
X77569D01*
X75249Y16795D02*
X75517D01*
X79903Y12602D02*
X80349D01*
X82773Y19026D02*
X83115D01*
X80245Y16364D02*
X80676D01*
X75814Y17613D02*
X76126D01*
X76007Y15606D02*
X76320D01*
X76424Y16141D02*
X76766D01*
X80617Y11874D02*
X80959D01*
X81242Y11234D02*
X81598D01*
X76260Y12959D02*
X76558D01*
X74922Y10759D02*
X75264D01*
X79903Y10967D02*
X80201D01*
X80156Y14015D02*
X80468D01*
X79680Y18371D02*
X80647D01*
X82267Y18491D02*
X82609D01*
X75695Y10833D02*
X76156D01*
X79190Y13331D02*
X79531D01*
X79487Y10446D02*
X80052D01*
X80438Y18163D02*
X80795D01*
X82386Y10075D02*
X82728D01*
X74550Y18044D02*
X74892D01*
X81331Y17494D02*
X81658D01*
X75249Y16736D02*
X75517D01*
X80082Y13108D02*
X80394D01*
X83055Y9391D02*
X83412D01*
X80156Y13896D02*
X80453D01*
X79933Y11338D02*
X80245D01*
X83264Y9182D02*
X83368D01*
X79963Y12543D02*
X80349D01*
X80201Y14461D02*
X80513D01*
X76022Y15413D02*
X76335D01*
X82832Y9614D02*
X83189D01*
X74967Y17628D02*
X75309D01*
X75963Y16082D02*
X76275D01*
X82624Y9822D02*
X82981D01*
X73792Y9569D02*
X74149D01*
X77881Y13866D02*
X78223D01*
X73227Y19397D02*
X73569D01*
X75799Y17747D02*
X80795D01*
X78684Y13836D02*
X79041D01*
X81851Y18044D02*
X82178D01*
X82238Y10223D02*
X82595D01*
X79814Y12692D02*
X80349D01*
X76275Y12721D02*
X76587D01*
X78491Y14506D02*
X78818D01*
X76350Y16215D02*
X76691D01*
X80245Y15041D02*
X80557D01*
X81465Y17643D02*
X81806D01*
X75249Y16468D02*
X76454D01*
X78595Y14625D02*
X78937D01*
X77970Y13970D02*
X78312D01*
X74967Y10803D02*
X75309D01*
X80572Y11918D02*
X80914D01*
X76097Y14669D02*
X76394D01*
X81212Y17375D02*
X81554D01*
X82892Y19145D02*
X83219D01*
X73970Y18639D02*
X74313D01*
X78149Y14387D02*
X78714D01*
X74327Y10134D02*
X74684D01*
X80186Y14268D02*
X80498D01*
X74223Y18386D02*
X74565D01*
X82491Y18728D02*
X82832D01*
X76245Y13033D02*
X76558D01*
X74313Y10119D02*
X74669D01*
X80126Y13628D02*
X80438D01*
X81123Y11353D02*
X81479D01*
X76974Y10877D02*
X80201D01*
X73851Y18758D02*
X74194D01*
X76126Y14372D02*
X76424D01*
X75324Y17881D02*
X81152D01*
X76959Y10848D02*
X80201D01*
X76409Y10788D02*
X76691D01*
X75249Y18030D02*
X81152D01*
X77034Y16126D02*
X78907D01*
X76156Y14074D02*
X76454D01*
X79487Y10550D02*
X80052D01*
X75993Y15814D02*
X76290D01*
X79784Y15874D02*
X80126D01*
X80141Y13732D02*
X80438D01*
X78818Y13703D02*
X79160D01*
X76037Y15323D02*
X76335D01*
X80111Y13420D02*
X80424D01*
X75472Y11338D02*
X76201D01*
X73495Y19130D02*
X73837D01*
X81673Y17866D02*
X82015D01*
X80334Y16007D02*
X80647D01*
X81896Y18089D02*
X82223D01*
X81881Y18074D02*
X82208D01*
X75844Y17420D02*
X76141D01*
X77034Y15903D02*
X78907D01*
X78134Y14402D02*
X78729D01*
X79799Y12706D02*
X80349D01*
X78015Y14520D02*
X78357D01*
X76662Y12587D02*
X77004D01*
X80543Y11948D02*
X80899D01*
X76275Y18624D02*
X78847D01*
X79918Y16007D02*
X80245D01*
X79859Y12647D02*
X80349D01*
X76364Y18669D02*
X77658D01*
X80156Y13955D02*
X80468D01*
X76617Y18773D02*
X77658D01*
X74313Y18297D02*
X74654D01*
X76141Y14089D02*
X76454D01*
X80409Y16944D02*
X80721D01*
X76573Y18758D02*
X77658D01*
X80141Y13851D02*
X80453D01*
X73331Y19293D02*
X73673D01*
X77836Y13822D02*
X78178D01*
X80438Y17301D02*
X80751D01*
X79680Y18089D02*
X80201D01*
X79071Y15115D02*
X79398D01*
X80245Y14952D02*
X80543D01*
X80186Y14282D02*
X80498D01*
X79978Y11829D02*
X80275D01*
X75547Y11413D02*
X76275D01*
X75799Y10595D02*
X76498D01*
X80780Y11710D02*
X81123D01*
X74952Y17643D02*
X75294D01*
X75918Y16543D02*
X76379D01*
X76141Y14134D02*
X76454D01*
X75249Y17122D02*
X76290D01*
X74952Y10788D02*
X75294D01*
X76097Y14684D02*
X76394D01*
X80201Y14520D02*
X80513D01*
X78104Y14431D02*
X78758D01*
X75249Y16959D02*
X75517D01*
X76216Y13435D02*
X76513D01*
X75338Y18401D02*
X75948D01*
X80320Y15918D02*
X80632D01*
X80111Y13435D02*
X80424D01*
X79487Y10268D02*
X80052D01*
X74729Y10550D02*
X75071D01*
X80453Y17360D02*
X80751D01*
X76900Y12840D02*
X77242D01*
X77643Y14907D02*
X77985D01*
X76706Y15859D02*
X78907D01*
X75338Y11190D02*
X76112D01*
X76022Y15517D02*
X76320D01*
X82000Y10461D02*
X82357D01*
X74030Y18580D02*
X74372D01*
X76736Y15829D02*
X78907D01*
X77093Y13033D02*
X77435D01*
X77346Y18609D02*
X78847D01*
X83472Y19754D02*
X83680D01*
X81687Y17881D02*
X82029D01*
X75561Y17732D02*
X75740D01*
X78535Y13985D02*
X78892D01*
X78773Y14803D02*
X79100D01*
X80944Y11532D02*
X81301D01*
X77212Y15338D02*
X77554D01*
X81702Y17896D02*
X82044D01*
X76037Y15264D02*
X76350D01*
X77732Y13717D02*
X78074D01*
X79948Y11472D02*
X80245D01*
X83427Y19710D02*
X83680D01*
X77004Y11115D02*
X77435D01*
X76766Y11457D02*
X77331D01*
X83160Y9287D02*
X83472D01*
X75755Y16825D02*
X76290D01*
X79680Y18208D02*
X80201D01*
X80379Y12112D02*
X80736D01*
X75249Y16662D02*
X75517D01*
X81018Y17167D02*
X81346D01*
X81569Y10907D02*
X81911D01*
X74372Y10179D02*
X74714D01*
X75829Y17524D02*
X76141D01*
X77926Y14610D02*
X78282D01*
X76097D02*
X76409D01*
X80201Y14535D02*
X80513D01*
X83398Y19680D02*
X83680D01*
X80453Y17345D02*
X80751D01*
X80453Y17405D02*
X80766D01*
X75918Y16498D02*
X76424D01*
X78729Y14758D02*
X79071D01*
X74863Y17732D02*
X75205D01*
X80082Y13093D02*
X80394D01*
X76082Y14758D02*
X76394D01*
X76112Y10283D02*
X76989D01*
X76305Y12364D02*
X76796D01*
X82892Y9554D02*
X83249D01*
X79680Y18357D02*
X80662D01*
X83189Y9257D02*
X83442D01*
X76885Y10729D02*
X80171D01*
X74283Y18327D02*
X74625D01*
X75904Y16662D02*
X76290D01*
X75710Y10818D02*
X76156D01*
X79992Y16097D02*
X80647D01*
X82267Y10194D02*
X82624D01*
X73822Y9599D02*
X74179D01*
X75963Y16111D02*
X76260D01*
X81762Y17955D02*
X82089D01*
X80275Y15279D02*
X80572D01*
X78744Y13777D02*
X79100D01*
X83561Y19843D02*
X83680D01*
X75978Y15933D02*
X76290D01*
X83293Y9153D02*
X83338D01*
X80230Y14743D02*
X80528D01*
X80468Y17524D02*
X80766D01*
X83531Y19814D02*
X83680D01*
X76677Y12602D02*
X77019D01*
X75249Y17018D02*
X76290D01*
X80825Y16974D02*
X81167D01*
X80825Y11666D02*
X81167D01*
X75963Y16052D02*
X76275D01*
X80438Y17256D02*
X80751D01*
X75249Y16766D02*
X75517D01*
X78535Y14550D02*
X78862D01*
X75100Y10937D02*
X75443D01*
X77034Y15948D02*
X78907D01*
X74773Y17821D02*
X75115D01*
X80305Y16424D02*
X80676D01*
X76067Y14937D02*
X76379D01*
X81940Y10521D02*
X82297D01*
X75249Y18104D02*
X76141D01*
X82758Y18996D02*
X83085D01*
X75249Y16483D02*
X76439D01*
X79963Y11680D02*
X80275D01*
X82788Y19041D02*
X83130D01*
X76186Y13762D02*
X76483D01*
X79606Y15680D02*
X79933D01*
X77034Y16111D02*
X78907D01*
X75056Y17539D02*
X75398D01*
X77256Y13212D02*
X77599D01*
X73792Y18818D02*
X74134D01*
X76260Y11056D02*
X76855D01*
X78788Y13732D02*
X79145D01*
X75249Y16543D02*
X75517D01*
X78253Y14268D02*
X78610D01*
X76231Y13167D02*
X76543D01*
X82877Y9569D02*
X83234D01*
X73599Y9361D02*
X73941D01*
X74818Y10640D02*
X75160D01*
X81360Y17524D02*
X81687D01*
X76186Y13613D02*
X76498D01*
X76231Y13242D02*
X76528D01*
X83234Y9212D02*
X83398D01*
X79680Y18520D02*
X80483D01*
X80126Y13613D02*
X80438D01*
X76245Y12141D02*
X76632D01*
X76944Y15606D02*
X77301D01*
X82029Y10431D02*
X82386D01*
X82996Y9450D02*
X83353D01*
X80007Y12216D02*
X80632D01*
X80067Y12900D02*
X80379D01*
X76260Y12855D02*
X76573D01*
X80022Y12320D02*
X80528D01*
X75933Y10431D02*
X77182D01*
X80320Y16438D02*
X80676D01*
X83174Y19442D02*
X83502D01*
X76007Y15561D02*
X76320D01*
X81732Y17925D02*
X82074D01*
X80230Y14803D02*
X80543D01*
X80260Y15130D02*
X80557D01*
X82654Y18892D02*
X82981D01*
X80424Y16989D02*
X80721D01*
X79561Y15636D02*
X79903D01*
X76691Y15874D02*
X78907D01*
X78714Y14743D02*
X79056D01*
X76007Y15665D02*
X76305D01*
X78446Y14461D02*
X78788D01*
X80156Y13926D02*
X80468D01*
X75829Y17494D02*
X76141D01*
X73019Y19606D02*
X73361D01*
X83219Y19487D02*
X83546D01*
X80260Y18312D02*
X80706D01*
X77256Y15294D02*
X77599D01*
X73480Y19145D02*
X73822D01*
X77509Y15041D02*
X77851D01*
X78476Y14491D02*
X78818D01*
X75234Y11086D02*
X75576D01*
X80320Y15933D02*
X80632D01*
X79041Y13480D02*
X79383D01*
X75695Y10848D02*
X76141D01*
X79487Y10491D02*
X80052D01*
X82000Y18208D02*
X82342D01*
X76052Y15175D02*
X76350D01*
X74402Y10208D02*
X74744D01*
X80409Y16840D02*
X81033D01*
X80111Y13450D02*
X80424D01*
X73777Y9554D02*
X74134D01*
X82966Y9480D02*
X83323D01*
X79368Y15428D02*
X79695D01*
X79487Y10179D02*
X80052D01*
X74208Y10000D02*
X74550D01*
X75249Y16781D02*
X75517D01*
X74015Y18595D02*
X74357D01*
X76915Y15636D02*
X78907D01*
X80438Y12052D02*
X80795D01*
X74833Y10654D02*
X75175D01*
X74253Y10045D02*
X74595D01*
X82327Y18550D02*
X82654D01*
X76156Y13970D02*
X76469D01*
X79680Y18342D02*
X80676D01*
X82684Y9762D02*
X83041D01*
X72974Y19725D02*
X73242D01*
X80320Y15784D02*
X80617D01*
X78550Y18669D02*
X80216D01*
X73762Y18847D02*
X74104D01*
X80022Y12483D02*
X80364D01*
X76260Y11115D02*
X76840D01*
X78015Y14015D02*
X78357D01*
X80409Y18193D02*
X80780D01*
X76171Y13777D02*
X76483D01*
X76186Y13688D02*
X76498D01*
X80111Y13405D02*
X80424D01*
X80379Y16498D02*
X80721D01*
X74104Y18505D02*
X74446D01*
X75249Y16438D02*
X76483D01*
X78535Y18639D02*
X78847D01*
X75993Y18401D02*
X76498D01*
X75249Y17048D02*
X76290D01*
X76766Y15799D02*
X78907D01*
X79680Y12825D02*
X80022D01*
X76007Y11904D02*
X76766D01*
X80230Y14848D02*
X80543D01*
X76915Y10773D02*
X80186D01*
X79487Y10327D02*
X80052D01*
X76855Y10699D02*
X80156D01*
X76260Y12870D02*
X76573D01*
X76067Y11963D02*
X76647D01*
X73614Y18996D02*
X73970D01*
X81598Y17777D02*
X81925D01*
X76201Y13480D02*
X76513D01*
X79680Y18238D02*
X80201D01*
X83293Y19561D02*
X83621D01*
X81152Y17316D02*
X81494D01*
X80959Y17108D02*
X81286D01*
X75993Y15680D02*
X76305D01*
X80260Y15189D02*
X80572D01*
X77346Y13301D02*
X77688D01*
X76944Y11279D02*
X77405D01*
X75829Y17435D02*
X76141D01*
X82327Y10134D02*
X82669D01*
X79680Y18134D02*
X80201D01*
X75740Y10699D02*
X76260D01*
X80424Y17048D02*
X80736D01*
X76900Y10744D02*
X80186D01*
X81970Y10491D02*
X82327D01*
X77465Y15085D02*
X77807D01*
X80424Y17108D02*
X80736D01*
X73643Y9257D02*
X73851D01*
X73405Y19219D02*
X73747D01*
X76112Y14416D02*
X76424D01*
X76335Y16230D02*
X76677D01*
X78773Y13747D02*
X79130D01*
X75918Y16587D02*
X76335D01*
X77346Y18550D02*
X78847D01*
X76320Y16245D02*
X76662D01*
X80186Y14372D02*
X80498D01*
X76156Y14015D02*
X76469D01*
X77465Y13435D02*
X77807D01*
X77539Y15011D02*
X77881D01*
X80245D02*
X80557D01*
X79680Y18178D02*
X80201D01*
X75249Y17152D02*
X76290D01*
X76082Y14862D02*
X76379D01*
X78506Y14520D02*
X78833D01*
X75963Y16126D02*
X76260D01*
Y12944D02*
X76558D01*
X75680Y11175D02*
X76112D01*
X82595Y9851D02*
X82951D01*
X76141Y14238D02*
X76439D01*
X73584Y9346D02*
X73926D01*
X81509Y10967D02*
X81851D01*
X81108Y11368D02*
X81465D01*
X79680Y18416D02*
X80602D01*
X75680Y11115D02*
X76097D01*
X82996Y19249D02*
X83323D01*
X75993Y15784D02*
X76305D01*
X77212Y13167D02*
X77554D01*
X75383Y17821D02*
X81152D01*
X80290Y15576D02*
X80602D01*
X80097Y13286D02*
X80409D01*
X79978Y11918D02*
X80290D01*
X75190Y17390D02*
X75547D01*
X79338Y18595D02*
X80364D01*
X81866Y18059D02*
X82193D01*
X75918Y16602D02*
X76320D01*
X76245Y13123D02*
X76543D01*
X76141Y14119D02*
X76454D01*
X77123Y13078D02*
X77465D01*
X73658Y18951D02*
X74000D01*
X78476Y14045D02*
X78833D01*
X80007Y12186D02*
X80662D01*
X76171Y13792D02*
X76483D01*
X75710Y11576D02*
X77256D01*
X83591Y19873D02*
X83680D01*
X79517Y18565D02*
X80409D01*
X80067Y12915D02*
X80379D01*
X81048Y11428D02*
X81405D01*
X75145Y10996D02*
X75502D01*
X79487Y10298D02*
X80052D01*
X83457Y19740D02*
X83680D01*
X82476Y9985D02*
X82818D01*
X80141Y13762D02*
X80453D01*
X75294Y17925D02*
X81152D01*
X76959Y15591D02*
X77316D01*
X72974Y19843D02*
X73123D01*
X79175Y13346D02*
X79517D01*
X74595Y10402D02*
X74937D01*
X77182Y15368D02*
X77524D01*
X73539Y19085D02*
X73881D01*
X83234Y19502D02*
X83561D01*
X75785Y11666D02*
X77182D01*
X80097Y13316D02*
X80409D01*
X73093Y19531D02*
X73435D01*
X79903Y10952D02*
X80201D01*
X76216Y10238D02*
X76900D01*
X76617Y15948D02*
X76959D01*
X76825Y15725D02*
X78907D01*
X78193Y14342D02*
X78669D01*
X76513Y16052D02*
X76855D01*
X80290Y15472D02*
X80587D01*
X76201Y12097D02*
X76647D01*
X82119Y18327D02*
X82446D01*
X77138Y13093D02*
X77480D01*
X76350Y11264D02*
X76766D01*
X82163Y18371D02*
X82491D01*
X79680Y18074D02*
X80201D01*
X82253Y10208D02*
X82609D01*
X75249Y18059D02*
X81152D01*
X80275Y15353D02*
X80587D01*
X78595Y13926D02*
X78952D01*
X74060Y9851D02*
X74417D01*
X82847Y9599D02*
X83204D01*
X81687Y10788D02*
X82029D01*
X81925Y18134D02*
X82267D01*
X76290Y12558D02*
X76602D01*
X80022Y12469D02*
X80379D01*
X77346Y18386D02*
X78847D01*
X76260Y11041D02*
X76855D01*
X80245Y14966D02*
X80557D01*
X81450Y17628D02*
X81792D01*
X81197Y11279D02*
X81554D01*
X75889Y16691D02*
X76290D01*
X75368Y17836D02*
X81152D01*
X81360Y11115D02*
X81717D01*
X81078Y11398D02*
X81435D01*
X80156Y13881D02*
X80453D01*
X74878Y17717D02*
X75219D01*
X80067Y12885D02*
X80379D01*
X79695Y12810D02*
X80037D01*
X77613Y14937D02*
X77955D01*
X80007Y12290D02*
X80557D01*
X81450Y11026D02*
X81792D01*
X75680Y10996D02*
X76097D01*
X80424Y17063D02*
X80736D01*
X75249Y16706D02*
X75517D01*
X77301Y15249D02*
X77643D01*
X79829Y12677D02*
X80349D01*
X83070Y9376D02*
X83427D01*
X77034Y15517D02*
X77390D01*
X81316Y11160D02*
X81673D01*
X80602Y11889D02*
X80944D01*
X76364Y11279D02*
X76736D01*
X76350Y10194D02*
X76766D01*
X75309Y17911D02*
X81152D01*
X80216Y14565D02*
X80513D01*
X77197Y13153D02*
X77539D01*
X82907Y19160D02*
X83234D01*
X80290Y15428D02*
X80587D01*
X75993Y15829D02*
X76290D01*
X75844Y17316D02*
X76156D01*
X76260Y12929D02*
X76558D01*
X75963Y16007D02*
X76275D01*
X80468Y17539D02*
X80766D01*
X76245Y13093D02*
X76543D01*
X76097Y11993D02*
X76647D01*
X75948Y16186D02*
X76260D01*
X77034Y15992D02*
X78907D01*
X77866Y13851D02*
X78208D01*
X75219Y11071D02*
X75561D01*
X75249Y17197D02*
X76290D01*
X74535Y18059D02*
X74878D01*
X79457Y13048D02*
X79814D01*
X80334Y12156D02*
X80691D01*
X80453Y17435D02*
X80766D01*
X76290Y12602D02*
X76587D01*
X80483Y12007D02*
X80840D01*
X79873Y15963D02*
X80201D01*
X75249Y16364D02*
X76558D01*
X79918Y11220D02*
X80230D01*
X73614Y9287D02*
X73881D01*
X79725Y15814D02*
X80067D01*
X83383Y19665D02*
X83680D01*
X72974Y19858D02*
X73108D01*
X78208Y14327D02*
X78654D01*
X77405Y13376D02*
X77747D01*
X80022Y12335D02*
X80513D01*
X83174Y9272D02*
X83457D01*
X80334Y15963D02*
X80632D01*
X76171Y13822D02*
X76483D01*
X76216Y13376D02*
X76528D01*
X82104Y18312D02*
X82431D01*
X80126Y13673D02*
X80438D01*
X76320Y12260D02*
X76691D01*
X80424Y12067D02*
X80780D01*
X76662Y18788D02*
X80201D01*
X79487Y10521D02*
X80052D01*
X76275Y12736D02*
X76587D01*
X82669Y9777D02*
X83026D01*
X74625Y10446D02*
X74982D01*
X80171Y14193D02*
X80483D01*
X75859Y10506D02*
X77242D01*
X72974Y19799D02*
X73168D01*
X75680Y11071D02*
X76097D01*
X75249Y18238D02*
X76245D01*
X80290Y16409D02*
X80676D01*
X79948Y11606D02*
X80260D01*
X75443Y17777D02*
X81152D01*
X79963Y16067D02*
X80305D01*
X72974Y19918D02*
X73064D01*
X75249Y16870D02*
X75517D01*
X76647Y12573D02*
X76989D01*
X76186Y13703D02*
X76498D01*
X76290Y12528D02*
X76944D01*
X80498Y11993D02*
X80855D01*
X80007Y12141D02*
X80305D01*
X75264Y18000D02*
X81152D01*
X72974Y19784D02*
X73182D01*
X78966Y15011D02*
X79309D01*
X79740Y15829D02*
X80082D01*
X80245Y14937D02*
X80543D01*
X80676Y11814D02*
X81018D01*
X80751Y11740D02*
X81093D01*
X75770Y10654D02*
X76320D01*
X76201Y13524D02*
X76513D01*
X76245Y13108D02*
X76543D01*
X77034Y16156D02*
X78907D01*
X82461Y18684D02*
X82788D01*
X80691Y11799D02*
X81033D01*
X75502Y11368D02*
X76231D01*
X80409Y12082D02*
X80766D01*
X73688Y18922D02*
X74030D01*
X73138Y19487D02*
X73480D01*
X80468Y17643D02*
X80780D01*
X80885Y17033D02*
X81227D01*
X77420Y13390D02*
X77762D01*
X79888Y12617D02*
X80349D01*
X80141Y16245D02*
X80662D01*
X73212Y19412D02*
X73554D01*
X79933Y11279D02*
X80230D01*
X76097Y14654D02*
X76409D01*
X73197Y19427D02*
X73539D01*
X79309Y15368D02*
X79636D01*
X77420Y15130D02*
X77762D01*
X78729Y13792D02*
X79085D01*
X76870Y12810D02*
X77212D01*
X74402Y18193D02*
X74759D01*
X76260Y11086D02*
X76855D01*
X82713Y9733D02*
X83070D01*
X75814Y16766D02*
X76290D01*
X80111Y13480D02*
X80424D01*
X80245Y15026D02*
X80557D01*
X75071Y17524D02*
X75413D01*
X81242Y17405D02*
X81569D01*
X77004Y15546D02*
X77361D01*
X76305Y12216D02*
X76647D01*
X76201Y13599D02*
X76498D01*
X75695Y10863D02*
X76141D01*
X79992Y11978D02*
X80290D01*
X80260Y15145D02*
X80572D01*
X76067Y14907D02*
X76379D01*
X80097Y13227D02*
X80394D01*
X73733Y18877D02*
X74075D01*
X75249Y16394D02*
X76528D01*
X78952Y14996D02*
X79294D01*
X73718Y18892D02*
X74060D01*
X78550Y18758D02*
X80201D01*
X75576Y17004D02*
X76290D01*
X79933Y16022D02*
X80260D01*
X78922Y14966D02*
X79264D01*
X78163Y14164D02*
X78714D01*
X80141Y13822D02*
X80453D01*
X82015Y10446D02*
X82372D01*
X73866Y9643D02*
X74208D01*
X76216Y13420D02*
X76513D01*
X80007Y12245D02*
X80602D01*
X82074Y10387D02*
X82431D01*
X79978Y16082D02*
X80320D01*
X74580Y10387D02*
X74922D01*
X79680Y18505D02*
X80498D01*
X79487Y10372D02*
X80052D01*
X76335Y18654D02*
X77658D01*
X76097Y14625D02*
X76409D01*
X81048Y17197D02*
X81375D01*
X81806Y18000D02*
X82134D01*
X79992Y12067D02*
X80305D01*
X79992Y12022D02*
X80305D01*
X80022Y12454D02*
X80394D01*
X76498Y16067D02*
X76840D01*
X76260Y12825D02*
X76573D01*
X79978Y11904D02*
X80290D01*
X79784Y12721D02*
X80364D01*
X77004Y11160D02*
X77420D01*
X78550Y18773D02*
X80201D01*
X73435Y19189D02*
X73777D01*
X74119Y9911D02*
X74461D01*
X77034Y16052D02*
X78907D01*
X77703Y14833D02*
X78060D01*
X79948Y11502D02*
X80245D01*
X80438Y17212D02*
X80751D01*
X82149Y18357D02*
X82476D01*
X75978Y15888D02*
X76290D01*
X75294Y17286D02*
X75651D01*
X72974Y19814D02*
X73153D01*
X79680Y18267D02*
X80201D01*
X80438Y17167D02*
X80736D01*
X73301Y19323D02*
X73643D01*
X76810Y10669D02*
X80126D01*
X76885Y15665D02*
X78907D01*
X79978Y11889D02*
X80290D01*
X72974Y19992D02*
X72989D01*
X76751Y12677D02*
X77093D01*
X76052Y15189D02*
X76350D01*
X80379Y16617D02*
X80825D01*
X82104Y10357D02*
X82461D01*
X73673Y9227D02*
X73822D01*
X75532Y18520D02*
X75770D01*
X79353Y13153D02*
X79710D01*
X75874Y11755D02*
X77078D01*
X81583Y10892D02*
X81925D01*
X81271Y17435D02*
X81598D01*
X76632Y12558D02*
X76974D01*
X77167Y15383D02*
X77509D01*
X79888Y15978D02*
X80216D01*
X82743Y18981D02*
X83070D01*
X78833Y14877D02*
X79175D01*
X76037Y15279D02*
X76350D01*
X80171Y14104D02*
X80483D01*
X77346Y18476D02*
X78847D01*
X78833Y13688D02*
X79175D01*
X80290Y15442D02*
X80587D01*
X78208Y14208D02*
X78669D01*
X73822Y18788D02*
X74164D01*
X80468Y12022D02*
X80825D01*
X81821Y10640D02*
X82178D01*
X77301Y13256D02*
X77643D01*
X76007Y15621D02*
X76320D01*
X82832Y19085D02*
X83174D01*
X73584Y19026D02*
X73941D01*
X76052Y15115D02*
X76364D01*
X80379Y18223D02*
X80766D01*
X78847Y14892D02*
X79190D01*
X75249Y17078D02*
X76290D01*
X77717Y14818D02*
X78074D01*
X80216Y14595D02*
X80513D01*
X78758Y14788D02*
X79085D01*
X76201Y13465D02*
X76513D01*
X76320Y12320D02*
X76751D01*
X76290Y10907D02*
X76810D01*
X80334Y16067D02*
X80647D01*
X73465Y19160D02*
X73807D01*
X79383Y15442D02*
X79710D01*
X81613Y10863D02*
X81955D01*
X81108Y17271D02*
X81450D01*
X74699Y17896D02*
X75041D01*
X80929Y17078D02*
X81271D01*
X80201Y14491D02*
X80513D01*
X80156Y14030D02*
X80468D01*
X76305Y12439D02*
X76870D01*
X80483Y17673D02*
X80780D01*
X80126Y13584D02*
X80438D01*
X76870Y10714D02*
X80171D01*
X75755Y10684D02*
X76275D01*
X79948Y11457D02*
X80245D01*
X77286Y15264D02*
X77628D01*
X76037Y11933D02*
X76662D01*
X80171Y14178D02*
X80483D01*
X81940Y18148D02*
X82282D01*
X81613Y17792D02*
X81940D01*
X79978Y11933D02*
X80290D01*
X76900Y11353D02*
X77375D01*
X76126Y14327D02*
X76439D01*
X78149Y14149D02*
X78729D01*
X75175Y11026D02*
X75532D01*
X75814Y10565D02*
X77286D01*
X74149Y9941D02*
X74491D01*
X79755Y15844D02*
X80097D01*
X73881Y9658D02*
X74223D01*
X76290Y12543D02*
X76602D01*
X80394Y16632D02*
X80840D01*
X79234Y15294D02*
X79576D01*
X80409Y16810D02*
X81004D01*
X81747Y10714D02*
X82104D01*
X75710Y10803D02*
X76171D01*
X73941Y18669D02*
X74283D01*
X79680Y18446D02*
X80572D01*
X75993Y15740D02*
X76305D01*
X76022Y15383D02*
X76335D01*
X75190Y11041D02*
X75532D01*
X83204Y19472D02*
X83531D01*
X72974Y19754D02*
X73212D01*
X75680Y10922D02*
X76112D01*
X80855Y17004D02*
X81197D01*
X80914Y11561D02*
X81271D01*
X74417Y10223D02*
X74759D01*
X75680Y11011D02*
X76097D01*
X77346Y18996D02*
X78847D01*
X81673Y10803D02*
X82015D01*
X82134Y18342D02*
X82461D01*
X78996Y13524D02*
X79338D01*
X76424Y10179D02*
X76691D01*
X82699Y18937D02*
X83026D01*
X78654Y13866D02*
X79011D01*
X75889Y10476D02*
X77227D01*
X74194Y9985D02*
X74535D01*
X75918Y16617D02*
X76305D01*
X77509Y13480D02*
X77851D01*
X76825Y15740D02*
X78907D01*
X76796Y15769D02*
X78907D01*
X75353Y11205D02*
X76126D01*
X76989Y10892D02*
X80201D01*
X81955Y18163D02*
X82297D01*
X82372Y18595D02*
X82699D01*
X76112Y12007D02*
X76647D01*
X83130Y9316D02*
X83487D01*
X80394Y16691D02*
X80899D01*
X80275Y15264D02*
X80572D01*
X81643Y10833D02*
X81985D01*
X83665Y19963D02*
X83680D01*
X82223Y10238D02*
X82580D01*
Y9866D02*
X82936D01*
X80230Y14892D02*
X80543D01*
X75041Y17554D02*
X75383D01*
X76156Y12052D02*
X76647D01*
X77673Y14862D02*
X78030D01*
X79918Y11175D02*
X80230D01*
X83264Y19531D02*
X83591D01*
X82491Y18714D02*
X82818D01*
X81732Y10744D02*
X82074D01*
X75249Y16840D02*
X75517D01*
X77093Y15457D02*
X77435D01*
X80141Y13717D02*
X80438D01*
X80736Y16870D02*
X81063D01*
X74595Y10417D02*
X74952D01*
X76587Y15978D02*
X76929D01*
X75918Y10446D02*
X77197D01*
X76201Y13554D02*
X76498D01*
X78550Y14580D02*
X78892D01*
X74892Y17702D02*
X75234D01*
Y17345D02*
X75591D01*
X76275Y11130D02*
X76840D01*
X76082Y14848D02*
X76379D01*
X81479Y10996D02*
X81821D01*
X75680Y10952D02*
X76112D01*
X79591Y18550D02*
X80438D01*
X76037Y18446D02*
X76602D01*
X75249Y16914D02*
X75517D01*
X80186Y14327D02*
X80498D01*
X78238Y14297D02*
X78625D01*
X79992Y12126D02*
X80305D01*
X82446Y10015D02*
X82788D01*
X80141Y13836D02*
X80453D01*
X75353Y17851D02*
X81152D01*
X76840Y12781D02*
X77182D01*
X76097Y14714D02*
X76394D01*
X82981Y19234D02*
X83308D01*
X76439Y16126D02*
X76781D01*
X73064Y19561D02*
X73405D01*
X76216Y13405D02*
X76513D01*
X80394Y12097D02*
X80751D01*
X76335Y10848D02*
X76781D01*
X79992Y12037D02*
X80305D01*
X82713Y18951D02*
X83041D01*
X80156Y13911D02*
X80453D01*
X79487Y10402D02*
X80052D01*
X74357Y10164D02*
X74714D01*
X76290Y12587D02*
X76602D01*
X73851Y9628D02*
X74194D01*
X82728Y18966D02*
X83055D01*
X83338Y19620D02*
X83680D01*
X73554Y19056D02*
X73911D01*
X75249Y16290D02*
X76617D01*
X76112Y14535D02*
X76409D01*
X79487Y10417D02*
X80052D01*
X77346Y19026D02*
X78847D01*
X73510Y19115D02*
X73851D01*
X75249Y17063D02*
X76290D01*
X80171Y14074D02*
X80468D01*
X80260Y15085D02*
X80557D01*
X79859Y15948D02*
X80186D01*
X76781Y12706D02*
X77123D01*
X81286Y11190D02*
X81643D01*
X80483Y17702D02*
X80780D01*
X80394Y16676D02*
X80885D01*
X80111Y13465D02*
X80424D01*
X77048Y12989D02*
X77390D01*
X77643Y13613D02*
X77985D01*
X76022Y15398D02*
X76335D01*
X82565Y18803D02*
X82907D01*
X74491Y18104D02*
X74833D01*
X80513Y11978D02*
X80870D01*
X79487Y10194D02*
X80052D01*
X77316Y15234D02*
X77658D01*
X76126Y14297D02*
X76439D01*
X75324Y11175D02*
X75666D01*
X76364Y10818D02*
X76736D01*
X78877Y14922D02*
X79219D01*
X73629Y18981D02*
X73970D01*
X75710Y16870D02*
X76290D01*
X81182Y11294D02*
X81539D01*
X81658Y17851D02*
X82000D01*
X79755Y12751D02*
X80364D01*
X75993Y15695D02*
X76305D01*
X79636Y15710D02*
X79963D01*
X74164Y18446D02*
X74506D01*
X81881Y10580D02*
X82238D01*
X76245Y12974D02*
X76558D01*
X75279Y18312D02*
X76350D01*
X79992Y11963D02*
X80290D01*
X78966Y18639D02*
X80275D01*
X79680Y18476D02*
X80543D01*
X76216Y13301D02*
X76528D01*
X82743Y9703D02*
X83100D01*
X78803Y14833D02*
X79130D01*
X80409Y16914D02*
X80721D01*
X79011Y13509D02*
X79353D01*
X80022Y12394D02*
X80453D01*
X80260Y15115D02*
X80557D01*
X80394Y16662D02*
X80870D01*
X82342Y18565D02*
X82669D01*
X80275Y15338D02*
X80587D01*
X76186Y13658D02*
X76498D01*
X79234Y18609D02*
X80334D01*
X81985Y18193D02*
X82327D01*
X79130Y15189D02*
X79472D01*
X76007Y15591D02*
X76320D01*
X78119Y14416D02*
X78744D01*
X75680Y16899D02*
X76290D01*
X76216Y13331D02*
X76528D01*
X82044Y10417D02*
X82401D01*
X76260Y12915D02*
X76573D01*
X74313Y10104D02*
X74654D01*
X76186Y13732D02*
X76483D01*
X75249Y17241D02*
X76290D01*
X73896Y9673D02*
X74238D01*
X76216Y13346D02*
X76528D01*
X76022Y15487D02*
X76320D01*
X76156Y13926D02*
X76469D01*
X79487Y15561D02*
X79829D01*
X79398Y15472D02*
X79740D01*
X78952Y13569D02*
X79294D01*
X74729Y17866D02*
X75071D01*
X79487Y10476D02*
X80052D01*
X77019Y11041D02*
X77435D01*
X78119Y14119D02*
X78758D01*
X75056Y10892D02*
X75398D01*
X76662Y15903D02*
X77004D01*
X80409Y16855D02*
X81048D01*
X74699Y10521D02*
X75041D01*
X79323Y13182D02*
X79680D01*
X75829Y16751D02*
X76290D01*
X76394Y16171D02*
X76736D01*
X80245Y15056D02*
X80557D01*
X75249Y16587D02*
X75517D01*
X80632Y11859D02*
X80974D01*
X75324Y18371D02*
X76439D01*
X82312Y10149D02*
X82654D01*
X80275Y15368D02*
X80587D01*
X76201Y13569D02*
X76498D01*
X75695Y10892D02*
X76126D01*
X78550Y18684D02*
X80201D01*
X76275Y12171D02*
X76632D01*
X77004Y10937D02*
X80201D01*
X80424Y17078D02*
X80736D01*
X80007Y12305D02*
X80543D01*
X76617Y12543D02*
X76959D01*
X78669Y14699D02*
X79011D01*
X77613Y13584D02*
X77955D01*
X76216Y13390D02*
X76528D01*
X75636Y11502D02*
X76498D01*
X81331Y11145D02*
X81687D01*
X80914Y17063D02*
X81256D01*
X75799Y16781D02*
X76290D01*
X79219Y15279D02*
X79561D01*
X78937Y14981D02*
X79279D01*
X79145Y15204D02*
X79487D01*
X83100Y9346D02*
X83457D01*
X79948Y11547D02*
X80260D01*
X81583Y17762D02*
X81911D01*
X80334Y16082D02*
X80647D01*
X81554Y10922D02*
X81896D01*
X81792Y17985D02*
X82119D01*
X78565Y13955D02*
X78922D01*
X75904Y10461D02*
X77212D01*
X76305Y12335D02*
X76766D01*
X73762Y9539D02*
X74119D01*
X79680Y18104D02*
X80201D01*
X73524Y19100D02*
X73866D01*
X73272Y19353D02*
X73614D01*
X79442Y15517D02*
X79784D01*
X80126Y13599D02*
X80438D01*
X80186Y14208D02*
X80483D01*
X75785Y10625D02*
X76379D01*
X73733Y9182D02*
X73777D01*
X73956Y9733D02*
X74298D01*
X74372Y18223D02*
X74729D01*
X80216Y14684D02*
X80528D01*
X80022Y12364D02*
X80483D01*
X75993Y11874D02*
X76855D01*
X73153Y19472D02*
X73495D01*
X77480Y15071D02*
X77822D01*
X83070Y19338D02*
X83412D01*
X74476Y10283D02*
X74818D01*
X80067Y12974D02*
X80379D01*
X78922Y13599D02*
X79264D01*
X75978Y15903D02*
X76290D01*
X81227Y17390D02*
X81554D01*
X77346Y18951D02*
X78996D01*
X81390Y17569D02*
X81732D01*
X75993Y15799D02*
X76290D01*
X75279Y11130D02*
X75621D01*
X79903Y11056D02*
X80216D01*
X77807Y13792D02*
X78149D01*
X73346Y19279D02*
X73688D01*
X81985Y10476D02*
X82342D01*
X82595Y18832D02*
X82922D01*
X81569Y17747D02*
X81896D01*
X76573Y15992D02*
X76915D01*
X80201Y14387D02*
X80498D01*
X80424Y18178D02*
X80780D01*
X75249Y16647D02*
X75517D01*
X77955Y14580D02*
X78297D01*
X78610Y13911D02*
X78966D01*
X74744Y17851D02*
X75086D01*
X77197Y18907D02*
X79368D01*
X79487Y10283D02*
X80052D01*
X78104Y14104D02*
X78773D01*
X81197Y17360D02*
X81539D01*
X80186Y14238D02*
X80483D01*
X79963Y11621D02*
X80260D01*
X80349Y16468D02*
X80691D01*
X80141Y13807D02*
X80453D01*
X81702Y10773D02*
X82044D01*
X76320Y12305D02*
X76736D01*
X74788Y10610D02*
X75130D01*
X74773Y10595D02*
X75115D01*
X80022Y12409D02*
X80438D01*
X75725Y10773D02*
X76186D01*
X78045Y14491D02*
X78387D01*
X80007Y12260D02*
X80587D01*
X75249Y18193D02*
X76216D01*
X75160Y17435D02*
X75502D01*
X75814Y17732D02*
X76112D01*
X76305Y16260D02*
X76647D01*
X76840Y15710D02*
X78907D01*
X76974Y11220D02*
X77420D01*
X75814Y17702D02*
X76112D01*
X80320Y12171D02*
X80676D01*
X80290Y15517D02*
X80602D01*
X79903Y11086D02*
X80216D01*
X83502Y19784D02*
X83680D01*
X76721Y15844D02*
X78907D01*
X74937Y17658D02*
X75279D01*
X80245Y14922D02*
X80543D01*
X76989Y12929D02*
X77331D01*
X80438Y17271D02*
X80751D01*
X79190Y15249D02*
X79531D01*
X80111Y13346D02*
X80409D01*
X76141Y14149D02*
X76454D01*
X79769Y12736D02*
X80364D01*
X80216Y14714D02*
X80528D01*
X79933Y11398D02*
X80245D01*
X79978Y11799D02*
X80275D01*
X81346Y17509D02*
X81673D01*
X80320Y15859D02*
X80632D01*
X82416Y18639D02*
X82743D01*
X79413Y15487D02*
X79755D01*
X80097Y13256D02*
X80409D01*
X76275Y12677D02*
X76587D01*
X75279Y17301D02*
X75636D01*
X79918Y11100D02*
X80216D01*
X83115Y9331D02*
X83472D01*
X76022Y11918D02*
X76691D01*
X80899Y17048D02*
X81242D01*
X77034Y15978D02*
X78907D01*
X78060Y14059D02*
X78401D01*
X76097Y10298D02*
X77019D01*
X75606Y16974D02*
X76290D01*
X73985Y9762D02*
X74327D01*
X81806Y10654D02*
X82163D01*
X73673Y18937D02*
X74015D01*
X80082Y13048D02*
X80379D01*
X77004Y11100D02*
X77435D01*
X79576Y15651D02*
X79903D01*
X80111Y13509D02*
X80424D01*
X80097Y13212D02*
X80394D01*
X79948Y11532D02*
X80260D01*
X74863Y10684D02*
X75205D01*
X80483Y17687D02*
X80780D01*
X79427Y15502D02*
X79769D01*
X75249Y18074D02*
X76126D01*
X76305Y18639D02*
X77658D01*
X78818Y14862D02*
X79160D01*
X76275Y12186D02*
X76632D01*
X80141Y13777D02*
X80453D01*
X79665Y15740D02*
X79992D01*
X76825Y12751D02*
X77167D01*
X77346Y18966D02*
X78847D01*
X82773Y19011D02*
X83100D01*
X80082Y13078D02*
X80394D01*
X76305Y12483D02*
X76900D01*
X72974Y19680D02*
X73286D01*
X77034Y16171D02*
X78907D01*
X77747Y14788D02*
X78104D01*
X80230Y14729D02*
X80528D01*
X76112Y14491D02*
X76424D01*
X80126Y13658D02*
X80438D01*
X76037Y15204D02*
X76350D01*
X82639Y9807D02*
X82996D01*
X80260Y15219D02*
X80572D01*
X73004Y19620D02*
X73346D01*
X82818Y19070D02*
X83160D01*
X80394Y16647D02*
X80855D01*
X77554Y13524D02*
X77896D01*
X82297Y18520D02*
X82639D01*
X78714Y13807D02*
X79071D01*
X73376Y19249D02*
X73718D01*
X79695Y15784D02*
X80037D01*
X77405Y13361D02*
X77732D01*
X75978Y11859D02*
X76900D01*
X73747Y9510D02*
X74089D01*
X76052Y15056D02*
X76364D01*
X80156Y14000D02*
X80468D01*
X76602Y15963D02*
X76944D01*
X75904Y16676D02*
X76290D01*
X75621Y11487D02*
X76424D01*
X79680Y18148D02*
X80201D01*
X74759Y17836D02*
X75100D01*
X77034Y16022D02*
X78907D01*
X78639Y14669D02*
X78981D01*
X83487Y19769D02*
X83680D01*
X72974D02*
X73197D01*
X81762Y10699D02*
X82119D01*
X77034Y16215D02*
X78907D01*
X76201Y13584D02*
X76498D01*
X75829Y11710D02*
X77138D01*
X75309Y18357D02*
X76424D01*
X74134Y18476D02*
X74476D01*
X80216Y14639D02*
X80528D01*
X73688Y9212D02*
X73807D01*
X81360Y17539D02*
X81702D01*
X79680Y18193D02*
X80201D01*
X80364Y16483D02*
X80706D01*
X77034Y16097D02*
X78907D01*
X78089Y14446D02*
X78773D01*
X81509Y17687D02*
X81836D01*
X75100Y17494D02*
X75443D01*
X80320Y15814D02*
X80617D01*
X77480Y13450D02*
X77822D01*
X77063Y15487D02*
X77420D01*
X80305Y15695D02*
X80617D01*
X75294Y11145D02*
X75636D01*
X75249Y17271D02*
X76290D01*
X74431Y18163D02*
X74788D01*
X81925Y10536D02*
X82282D01*
X83249Y9197D02*
X83383D01*
X73881Y18728D02*
X74223D01*
X75026Y10863D02*
X75368D01*
X73718Y9480D02*
X74060D01*
X81494Y10982D02*
X81836D01*
X77019Y15532D02*
X77375D01*
X76216Y13316D02*
X76528D01*
X76691Y12617D02*
X77034D01*
X82401Y10060D02*
X82743D01*
X75948Y16215D02*
X76260D01*
X75844Y16736D02*
X76290D01*
X80320Y15769D02*
X80617D01*
X75755Y11636D02*
X77212D01*
X80305Y15621D02*
X80602D01*
X76379Y11294D02*
X76721D01*
X79115Y18624D02*
X80305D01*
X75294Y18327D02*
X76364D01*
X81375Y17554D02*
X81717D01*
X80007Y16111D02*
X80647D01*
X81792Y10669D02*
X82149D01*
X80126Y16230D02*
X80662D01*
X83041Y9406D02*
X83398D01*
X75785Y10610D02*
X76424D01*
X79234Y13286D02*
X79576D01*
X76483Y11338D02*
X76617D01*
X76796Y12721D02*
X77138D01*
X75814Y17673D02*
X76126D01*
X79487Y10312D02*
X80052D01*
X80126Y13539D02*
X80424D01*
X77569Y14981D02*
X77911D01*
X78862Y13658D02*
X79204D01*
X76751Y15814D02*
X78907D01*
X81375Y11100D02*
X81732D01*
X80468Y18119D02*
X80810D01*
X80438Y17241D02*
X80751D01*
X82178Y18386D02*
X82505D01*
X82208Y10253D02*
X82565D01*
X74417Y18178D02*
X74773D01*
X79264Y13256D02*
X79606D01*
X76231Y13138D02*
X76543D01*
X79978Y11874D02*
X80290D01*
X76320Y12245D02*
X76677D01*
X75978Y10387D02*
X77138D01*
X83368Y19650D02*
X83680D01*
X74327Y18282D02*
X74669D01*
X81078Y17241D02*
X81420D01*
X75249Y16691D02*
X75517D01*
X77331Y15219D02*
X77673D01*
X75368Y11220D02*
X76126D01*
X82818Y9628D02*
X83174D01*
X76007Y15576D02*
X76320D01*
X77495Y13465D02*
X77836D01*
X76290Y12617D02*
X76587D01*
X75398Y11249D02*
X76141D01*
X75249Y16245D02*
X76290D01*
X76186Y13717D02*
X76483D01*
X76186Y12082D02*
X76647D01*
X81836Y10625D02*
X82193D01*
X79487Y10536D02*
X80052D01*
X74030Y9822D02*
X74387D01*
X75309Y17896D02*
X81152D01*
X80201Y14431D02*
X80498D01*
X77034Y15933D02*
X78907D01*
X80766Y11725D02*
X81108D01*
X79487Y10208D02*
X80052D01*
X80171Y14089D02*
X80468D01*
X76305Y12469D02*
X76900D01*
X79740Y12766D02*
X80364D01*
X75011Y10848D02*
X75353D01*
X80067Y12855D02*
X80364D01*
X75680Y10967D02*
X76097D01*
X78461Y14074D02*
X78803D01*
X76974Y11234D02*
X77420D01*
X75918Y16632D02*
X76290D01*
X81212Y11264D02*
X81569D01*
X74000Y9777D02*
X74342D01*
X79992Y11993D02*
X80290D01*
X79680Y18119D02*
X80201D01*
X81063Y17212D02*
X81390D01*
X77703Y13688D02*
X78045D01*
X76186Y13673D02*
X76498D01*
X74223Y10015D02*
X74565D01*
X76558Y16007D02*
X76900D01*
X82758Y9688D02*
X83115D01*
X76305Y12349D02*
X76781D01*
X76260Y11026D02*
X76855D01*
X77063Y13004D02*
X77405D01*
X79621Y15695D02*
X79948D01*
X76082Y14773D02*
X76394D01*
X76439Y11324D02*
X76662D01*
X78550Y18743D02*
X80201D01*
X80394Y16766D02*
X80974D01*
X80126Y13554D02*
X80424D01*
X75680Y11041D02*
X76097D01*
X79011Y15056D02*
X79353D01*
X81390Y11086D02*
X81747D01*
X76275Y10967D02*
X76840D01*
X79487Y10625D02*
X80052D01*
X80230Y14773D02*
X80528D01*
X80394Y16706D02*
X80914D01*
X77777Y13762D02*
X78119D01*
X79978Y11844D02*
X80275D01*
X77807Y14729D02*
X78163D01*
X79903Y15992D02*
X80230D01*
X76141Y14223D02*
X76439D01*
X79725Y12781D02*
X80364D01*
X77034Y15918D02*
X78907D01*
X76290Y10208D02*
X76810D01*
X76097Y14565D02*
X76409D01*
X80840Y11651D02*
X81182D01*
X80320Y15844D02*
X80632D01*
X77911Y13896D02*
X78253D01*
X75249Y18178D02*
X76201D01*
X75606Y11472D02*
X76379D01*
X75963Y16022D02*
X76275D01*
X76335Y11249D02*
X76781D01*
X74892Y10729D02*
X75249D01*
X75353Y18416D02*
X75933D01*
X76706Y18803D02*
X80201D01*
X78803Y13717D02*
X79160D01*
X83546Y19829D02*
X83680D01*
X82669Y18907D02*
X82996D01*
X77405Y15145D02*
X77747D01*
X81033Y11443D02*
X81390D01*
X75413Y18461D02*
X75889D01*
X74565Y10372D02*
X74907D01*
X79963Y11784D02*
X80275D01*
X76929Y11309D02*
X77390D01*
X81465Y11011D02*
X81806D01*
X81018Y11457D02*
X81375D01*
X75770Y11651D02*
X77197D01*
X75814Y17687D02*
X76126D01*
X80067Y12870D02*
X80364D01*
X76082Y14743D02*
X76394D01*
X79963Y11651D02*
X80260D01*
X80870Y17018D02*
X81212D01*
X75160Y11011D02*
X75517D01*
X80483Y17732D02*
X80795D01*
X76022Y18431D02*
X76573D01*
X75591Y16989D02*
X76290D01*
X76052Y18461D02*
X76647D01*
X75249Y17004D02*
X75517D01*
X75205Y17375D02*
X75561D01*
X80216Y14580D02*
X80513D01*
X79680Y18877D02*
X80201D01*
X75428Y11279D02*
X76156D01*
X73911Y9688D02*
X74253D01*
X77346Y19070D02*
X78847D01*
X75978Y15859D02*
X76290D01*
X77108Y13048D02*
X77450D01*
X77227Y15323D02*
X77569D01*
X79487Y10565D02*
X80052D01*
X75249Y18163D02*
X76186D01*
X79918Y12587D02*
X80349D01*
X77747Y13732D02*
X78089D01*
X75829Y17554D02*
X76126D01*
X79680Y18461D02*
X80557D01*
X75249Y16617D02*
X75517D01*
X77004Y11086D02*
X77435D01*
X75680Y10907D02*
X76112D01*
X76721Y10625D02*
X77331D01*
X81033Y17182D02*
X81360D01*
X83145Y9301D02*
X83487D01*
X79056Y15100D02*
X79383D01*
X78580Y14610D02*
X78922D01*
X83279Y9168D02*
X83353D01*
X77034Y16141D02*
X78907D01*
X80097Y13182D02*
X80394D01*
X76097Y18505D02*
X76781D01*
X76067Y14981D02*
X76379D01*
X76766Y12692D02*
X77108D01*
X79680Y18386D02*
X80632D01*
X80216Y14699D02*
X80528D01*
X80409Y16959D02*
X80721D01*
X80453Y17420D02*
X80766D01*
X77941Y14595D02*
X78297D01*
X78000Y14535D02*
X78342D01*
X81598Y10877D02*
X81940D01*
X77435Y13405D02*
X77777D01*
X76216Y12112D02*
X76647D01*
X83606Y19888D02*
X83680D01*
X79799Y15888D02*
X80141D01*
X81851Y10610D02*
X82208D01*
X73703Y18907D02*
X74045D01*
X79903Y11041D02*
X80216D01*
X77390Y15160D02*
X77732D01*
X77851Y13836D02*
X78193D01*
X79026Y13494D02*
X79368D01*
X80305Y18282D02*
X80721D01*
X79487Y10223D02*
X80052D01*
X83576Y19858D02*
X83680D01*
X76929Y15621D02*
X78907D01*
X75413Y11264D02*
X76156D01*
X81896Y10565D02*
X82253D01*
X79338Y13167D02*
X79695D01*
X77271Y13227D02*
X77613D01*
X83160Y19427D02*
X83487D01*
X75383Y18446D02*
X75904D01*
X80483Y18104D02*
X80825D01*
X82624Y18862D02*
X82951D01*
X80141Y13703D02*
X80438D01*
X79041Y15085D02*
X79368D01*
X75666Y16914D02*
X76290D01*
X78699Y13822D02*
X79056D01*
X77584Y13554D02*
X77926D01*
X79264Y15323D02*
X79606D01*
X79472Y13033D02*
X79829D01*
X77004Y10967D02*
X77435D01*
X74982Y10818D02*
X75324D01*
X75725Y10759D02*
X76201D01*
X74521Y10327D02*
X74863D01*
X74045Y9837D02*
X74402D01*
X77688Y14848D02*
X78045D01*
X80409Y16825D02*
X81018D01*
X77569Y13539D02*
X77911D01*
X79130Y13390D02*
X79472D01*
X75368Y18431D02*
X75918D01*
X82654Y9792D02*
X83011D01*
X80260Y16379D02*
X80676D01*
X82491Y9970D02*
X82832D01*
X80959Y11517D02*
X81316D01*
X74521Y18074D02*
X74863D01*
X80171Y14149D02*
X80483D01*
X82505Y18743D02*
X82847D01*
X76290Y12498D02*
X76915D01*
X76305Y12409D02*
X76840D01*
X75249Y16676D02*
X75517D01*
X79546Y12959D02*
X79903D01*
X83085Y9361D02*
X83442D01*
X75814Y11695D02*
X77152D01*
X80334Y16037D02*
X80647D01*
X77034Y16067D02*
X78907D01*
X77346Y18357D02*
X78847D01*
X76007Y15546D02*
X76320D01*
X83041Y19293D02*
X83368D01*
X75993Y15755D02*
X76305D01*
X79219Y13301D02*
X79561D01*
X76275Y12766D02*
X76573D01*
X80186Y14223D02*
X80483D01*
X82193Y10268D02*
X82550D01*
X75338Y17866D02*
X81152D01*
X81301Y17464D02*
X81628D01*
X83442Y19725D02*
X83680D01*
X80141Y13747D02*
X80438D01*
X83115Y19383D02*
X83457D01*
X77762Y13747D02*
X78104D01*
X77628Y13599D02*
X77970D01*
X79680Y18163D02*
X80201D01*
X77762Y14773D02*
X78119D01*
X76022Y15457D02*
X76335D01*
X75249Y16602D02*
X75517D01*
X76171Y13851D02*
X76483D01*
X75249Y16453D02*
X76469D01*
X76409Y16156D02*
X76751D01*
X78966Y13554D02*
X79309D01*
X75680Y11026D02*
X76097D01*
X75145Y10982D02*
X75487D01*
X75755Y10669D02*
X76305D01*
X81777Y17970D02*
X82104D01*
X82550Y9896D02*
X82907D01*
X80453Y18148D02*
X80795D01*
X76394Y18684D02*
X77658D01*
X79309Y13197D02*
X79665D01*
X80379Y16543D02*
X80751D01*
X81435Y17613D02*
X81777D01*
X75249Y16632D02*
X75517D01*
X74060Y18550D02*
X74402D01*
X76112Y14461D02*
X76424D01*
X76231Y13271D02*
X76528D01*
X74431Y10238D02*
X74773D01*
X80989Y17137D02*
X81316D01*
X76112Y14476D02*
X76424D01*
X80394Y16736D02*
X80944D01*
X74610Y17985D02*
X74952D01*
X78461Y14476D02*
X78803D01*
X80453Y12037D02*
X80810D01*
X81539Y10937D02*
X81881D01*
X80424Y17004D02*
X80721D01*
X80067Y12959D02*
X80379D01*
X75264Y17985D02*
X81152D01*
X78520Y14535D02*
X78847D01*
X75234Y18148D02*
X76171D01*
X73911Y18699D02*
X74253D01*
X79948Y11591D02*
X80260D01*
X79948Y16037D02*
X80275D01*
X76825Y11413D02*
X77361D01*
X77123Y13063D02*
X77450D01*
X73956Y18654D02*
X74298D01*
X82208Y18431D02*
X82550D01*
X75666Y11532D02*
X77286D01*
X74863Y10699D02*
X75219D01*
X76156Y13985D02*
X76469D01*
X78847Y13673D02*
X79190D01*
X80855Y11636D02*
X81197D01*
X75517Y11383D02*
X76245D01*
X73569Y9331D02*
X73911D01*
X77078Y13019D02*
X77420D01*
X80885Y11606D02*
X81227D01*
X77331Y13286D02*
X77673D01*
X75844Y17360D02*
X76156D01*
X74446Y18148D02*
X74803D01*
X76260Y12885D02*
X76573D01*
X80305Y15755D02*
X80617D01*
X79398Y13108D02*
X79755D01*
X80438Y17182D02*
X80736D01*
X79204Y15264D02*
X79546D01*
X79487Y10253D02*
X80052D01*
X79294Y15353D02*
X79636D01*
X76290Y12513D02*
X76929D01*
X77673Y13643D02*
X78000D01*
X76498Y18728D02*
X77658D01*
X77346Y18461D02*
X78847D01*
X77242Y13197D02*
X77584D01*
X79948Y11517D02*
X80260D01*
X81554Y17732D02*
X81881D01*
X75026Y17569D02*
X75368D01*
X80320Y15888D02*
X80632D01*
X80305Y15606D02*
X80602D01*
X77346Y19056D02*
X78847D01*
X80334Y15948D02*
X80632D01*
X76260Y12810D02*
X76573D01*
X79517Y15591D02*
X79859D01*
X82074Y18282D02*
X82401D01*
X79487Y10461D02*
X80052D01*
X81479Y17658D02*
X81821D01*
X78461Y14059D02*
X78818D01*
X77926Y13911D02*
X78268D01*
X75249Y16424D02*
X76498D01*
X76037Y15294D02*
X76350D01*
X79487Y10342D02*
X80052D01*
X74387Y10194D02*
X74729D01*
X79680Y18401D02*
X80617D01*
X74818Y17777D02*
X75160D01*
X80305Y15591D02*
X80602D01*
X75829Y17569D02*
X76126D01*
X75561Y11428D02*
X76290D01*
X75651Y16929D02*
X76290D01*
X75249Y18223D02*
X76231D01*
X80662Y11829D02*
X81004D01*
X81747Y17940D02*
X82089D01*
X80156Y13866D02*
X80453D01*
X80795Y16929D02*
X81123D01*
X79963Y11755D02*
X80275D01*
X76721Y11472D02*
X77331D01*
X80082Y13033D02*
X80379D01*
X80260Y15100D02*
X80557D01*
X78907Y14952D02*
X79249D01*
X81494Y17673D02*
X81821D01*
X83308Y19576D02*
X83635D01*
X80424Y16974D02*
X80721D01*
X75695Y10877D02*
X76126D01*
X75115Y10952D02*
X75457D01*
X78223Y14312D02*
X78639D01*
X75249Y17182D02*
X76290D01*
X75993Y11889D02*
X76825D01*
X75264Y18282D02*
X76305D01*
X76870Y11383D02*
X77375D01*
X73747Y9524D02*
X74104D01*
X76082Y14877D02*
X76379D01*
X82342Y10119D02*
X82684D01*
X72974Y19933D02*
X73049D01*
X77970Y13955D02*
X78297D01*
X80453Y17450D02*
X80766D01*
X75933Y11814D02*
X76989D01*
X83085Y19353D02*
X83427D01*
X73777Y18832D02*
X74119D01*
X82580Y18818D02*
X82907D01*
X76260Y11011D02*
X76855D01*
X79918Y11249D02*
X80230D01*
X75086Y10922D02*
X75428D01*
X79487Y10595D02*
X80052D01*
X79457Y15532D02*
X79799D01*
X77152Y13108D02*
X77495D01*
X80201Y14550D02*
X80513D01*
X81911Y10550D02*
X82267D01*
X73985Y18624D02*
X74327D01*
X76260Y12840D02*
X76573D01*
X73316Y19308D02*
X73658D01*
X77048Y15502D02*
X77405D01*
X81286Y17450D02*
X81613D01*
X76156Y13941D02*
X76469D01*
X79665Y12840D02*
X80022D01*
X76275Y12781D02*
X76573D01*
X77346Y18401D02*
X78847D01*
X80067Y12944D02*
X80379D01*
X80795Y11695D02*
X81137D01*
X76305Y12379D02*
X76810D01*
X75844Y17390D02*
X76141D01*
X78684Y14714D02*
X79026D01*
X75249Y16305D02*
X76602D01*
X77361Y15189D02*
X77703D01*
X80230Y14833D02*
X80543D01*
X76290Y12647D02*
X76587D01*
X76810Y12736D02*
X77152D01*
X76915Y12855D02*
X77256D01*
X76082Y14833D02*
X76379D01*
X79487Y10580D02*
X80052D01*
X75814Y17658D02*
X76126D01*
X75874Y10491D02*
X77242D01*
X77941Y13926D02*
X78268D01*
X78744Y14773D02*
X79085D01*
X74119Y18491D02*
X74461D01*
X75948Y11829D02*
X76959D01*
X73747Y18862D02*
X74089D01*
X76900Y15651D02*
X78907D01*
X80275Y15398D02*
X80587D01*
X75904Y16647D02*
X76290D01*
X75249Y16275D02*
X76632D01*
X75264Y17316D02*
X75621D01*
X82951Y9495D02*
X83308D01*
X80245Y14907D02*
X80543D01*
X76528Y16037D02*
X76870D01*
X76691Y10610D02*
X77316D01*
X80334Y16453D02*
X80676D01*
X76007Y15651D02*
X76305D01*
X77346Y18565D02*
X78847D01*
X79978Y11814D02*
X80275D01*
X79531Y15606D02*
X79873D01*
X74268Y10060D02*
X74610D01*
X80097Y13331D02*
X80409D01*
X79948Y11576D02*
X80260D01*
X77584Y14966D02*
X77926D01*
X79680Y18312D02*
X80201D01*
X75234Y18119D02*
X76156D01*
X76082Y18491D02*
X76736D01*
X73926Y18684D02*
X74268D01*
X75680Y11130D02*
X76097D01*
X80498Y18089D02*
X80825D01*
X77123Y15428D02*
X77465D01*
X80067Y12840D02*
X80364D01*
X75963Y16156D02*
X76260D01*
X75175Y17420D02*
X75517D01*
X81167Y11309D02*
X81524D01*
X81777Y10684D02*
X82134D01*
X73970Y9747D02*
X74313D01*
X81152Y11324D02*
X81509D01*
X78892Y13628D02*
X79234D01*
X74461Y18134D02*
X74818D01*
X79413Y13093D02*
X79769D01*
X80111Y16215D02*
X80662D01*
X83516Y19799D02*
X83680D01*
X80498Y18074D02*
X80825D01*
X75264Y18253D02*
X76275D01*
X75680Y11160D02*
X76112D01*
X76171Y13807D02*
X76483D01*
X76959Y11249D02*
X77405D01*
X76141Y10268D02*
X76959D01*
X78074Y14461D02*
X78416D01*
X77450Y13420D02*
X77792D01*
X81628Y10848D02*
X81970D01*
X76141Y14178D02*
X76454D01*
X74595Y18000D02*
X74937D01*
X83308Y9138D02*
X83323D01*
X77182Y13138D02*
X77524D01*
X76766Y10640D02*
X80067D01*
X76186Y13643D02*
X76498D01*
X79948Y12558D02*
X80349D01*
X76766Y18818D02*
X80201D01*
X80424Y17018D02*
X80721D01*
X80186Y14342D02*
X80498D01*
X76126Y14268D02*
X76439D01*
X73391Y19234D02*
X73733D01*
X76156Y14000D02*
X76469D01*
X76915Y11338D02*
X77390D01*
X80082Y13138D02*
X80394D01*
X73168Y19457D02*
X73510D01*
X76007Y15532D02*
X76320D01*
X76022Y15428D02*
X76335D01*
X77346Y18446D02*
X78847D01*
X73643Y9406D02*
X73985D01*
X75695Y11561D02*
X77271D01*
X75249Y16349D02*
X76573D01*
X82966Y19219D02*
X83293D01*
X80468Y17509D02*
X80766D01*
X79933Y11309D02*
X80230D01*
X78550Y18728D02*
X80201D01*
X75249Y17093D02*
X76290D01*
X76320Y12290D02*
X76721D01*
X80334Y16022D02*
X80647D01*
X77346Y18505D02*
X78847D01*
X80320Y15903D02*
X80632D01*
X80468Y17554D02*
X80780D01*
X80260Y15234D02*
X80572D01*
X79933Y11368D02*
X80245D01*
X75249Y11100D02*
X75591D01*
X77985Y14550D02*
X78327D01*
X80305Y15651D02*
X80617D01*
X76439Y10773D02*
X76662D01*
X75740Y10714D02*
X76245D01*
X82059Y18267D02*
X82386D01*
X76231Y13286D02*
X76528D01*
X75086Y17509D02*
X75428D01*
X80007Y12171D02*
X80305D01*
X76617Y11502D02*
X77316D01*
X76022Y10342D02*
X77078D01*
X72974Y19665D02*
X73301D01*
X76260Y12900D02*
X76573D01*
X77004Y10982D02*
X77435D01*
X80275Y15294D02*
X80572D01*
X83635Y19933D02*
X83680D01*
X78669Y13851D02*
X79026D01*
X82357Y10104D02*
X82699D01*
X79918Y11234D02*
X80230D01*
X76974Y15576D02*
X77331D01*
X82803Y19056D02*
X83145D01*
X80320Y18267D02*
X80736D01*
X74238Y18371D02*
X74580D01*
X77495Y15056D02*
X77836D01*
X76201Y13509D02*
X76513D01*
X76290Y12201D02*
X76632D01*
X79680Y18862D02*
X80201D01*
X79338Y15398D02*
X79665D01*
X81093Y11383D02*
X81450D01*
X80275Y15323D02*
X80587D01*
X76201Y13539D02*
X76513D01*
X80201Y14446D02*
X80513D01*
X81004Y17152D02*
X81331D01*
X76989Y11175D02*
X77420D01*
X80230Y14862D02*
X80543D01*
X75636Y16944D02*
X76290D01*
X83279Y19546D02*
X83606D01*
X83100Y19368D02*
X83442D01*
X74788Y17807D02*
X75130D01*
X75249Y16989D02*
X75517D01*
X77851Y14684D02*
X78208D01*
X77881Y14654D02*
X78238D01*
X80097Y13242D02*
X80409D01*
X80290Y15546D02*
X80602D01*
X76632Y15933D02*
X76974D01*
X83145Y19412D02*
X83472D01*
X74848Y10669D02*
X75190D01*
X82178Y10283D02*
X82535D01*
X75710Y11591D02*
X77242D01*
X76245Y13078D02*
X76543D01*
X76989Y11190D02*
X77420D01*
X80097Y13301D02*
X80409D01*
X77346Y18371D02*
X78847D01*
X78134Y14134D02*
X78744D01*
X75249Y16929D02*
X75517D01*
X80022Y12439D02*
X80409D01*
X75294Y18342D02*
X76394D01*
X79100Y15145D02*
X79427D01*
X77197Y15353D02*
X77539D01*
X75770Y10640D02*
X76350D01*
X75249Y16513D02*
X75517D01*
X74714Y17881D02*
X75056D01*
X80334Y15992D02*
X80632D01*
X76141Y18535D02*
X76900D01*
X79591Y15665D02*
X79918D01*
X75859Y11740D02*
X77093D01*
X75785Y16795D02*
X76290D01*
X76231Y13227D02*
X76543D01*
X79769Y15859D02*
X80111D01*
X76052Y15100D02*
X76364D01*
X75963Y16097D02*
X76275D01*
X79249Y15309D02*
X79591D01*
X77777Y14758D02*
X78134D01*
X73569Y19041D02*
X73926D01*
X80186Y14253D02*
X80483D01*
X74342Y18267D02*
X74684D01*
X76929Y10788D02*
X80186D01*
X79903Y11011D02*
X80216D01*
X76275Y10937D02*
X76825D01*
X73837Y9614D02*
X74179D01*
X73658Y9242D02*
X73837D01*
X76022Y15442D02*
X76335D01*
X77034Y16082D02*
X78907D01*
X76171Y13896D02*
X76469D01*
X83204Y9242D02*
X83427D01*
X82565Y9881D02*
X82922D01*
X76201Y18580D02*
X77108D01*
X82684Y18922D02*
X83011D01*
X77346Y18520D02*
X78847D01*
X77599Y14952D02*
X77941D01*
X76067Y14996D02*
X76364D01*
X78223Y14223D02*
X78654D01*
X79963Y11666D02*
X80260D01*
X75725Y11606D02*
X77242D01*
X75844Y17331D02*
X76156D01*
X78981Y15026D02*
X79323D01*
X79918Y11264D02*
X80230D01*
X74075Y9866D02*
X74431D01*
X75264Y18015D02*
X81152D01*
X83130Y19397D02*
X83457D01*
X77732Y14803D02*
X78089D01*
X75428Y11294D02*
X76171D01*
X75249Y16334D02*
X76573D01*
X82981Y9465D02*
X83338D01*
X76320Y12231D02*
X76662D01*
X76959Y10833D02*
X80201D01*
X75918Y16572D02*
X76350D01*
X75948Y16171D02*
X76260D01*
X76810Y15755D02*
X78907D01*
X76067Y14922D02*
X76379D01*
X76097Y14639D02*
X76409D01*
X80186Y14297D02*
X80498D01*
X79204Y13316D02*
X79546D01*
X79427Y13078D02*
X79784D01*
X73688Y9450D02*
X74030D01*
X80438Y17316D02*
X80751D01*
X82550Y18788D02*
X82892D01*
X75829Y17509D02*
X76141D01*
X77361Y13316D02*
X77703D01*
X76855Y11398D02*
X77361D01*
X74000Y18609D02*
X74342D01*
X80126Y13688D02*
X80438D01*
X77450Y15100D02*
X77792D01*
X83219Y9227D02*
X83412D01*
X78074Y14074D02*
X78416D01*
X81078Y17227D02*
X81405D01*
X75249Y17212D02*
X76290D01*
X73034Y19591D02*
X73376D01*
X80587Y11904D02*
X80929D01*
X77435Y15115D02*
X77777D01*
X74179Y9970D02*
X74521D01*
X75472Y17762D02*
X81152D01*
X80082Y13167D02*
X80394D01*
X75918Y16558D02*
X76364D01*
X75978Y15963D02*
X76275D01*
X74982Y17613D02*
X75324D01*
X80379Y16558D02*
X80766D01*
X76112Y14431D02*
X76424D01*
X76706Y12632D02*
X77048D01*
X82461Y10000D02*
X82803D01*
X74654Y17940D02*
X74996D01*
X76067Y14966D02*
X76379D01*
X80067Y12929D02*
X80379D01*
Y16572D02*
X80780D01*
X73450Y19174D02*
X73792D01*
X77286Y13242D02*
X77628D01*
X82089Y18297D02*
X82416D01*
X73257Y19368D02*
X73599D01*
X76305Y12454D02*
X76885D01*
X74759Y10580D02*
X75100D01*
X74134Y9926D02*
X74476D01*
X79680Y18327D02*
X80201D01*
X78491Y14030D02*
X78847D01*
X80929Y11547D02*
X81286D01*
X76052Y15085D02*
X76364D01*
X78506Y14015D02*
X78862D01*
X77688Y13673D02*
X78030D01*
X80870Y11621D02*
X81212D01*
X76290Y11175D02*
X76825D01*
X76037Y15234D02*
X76350D01*
X82297Y10164D02*
X82639D01*
X82029Y18238D02*
X82372D01*
X80349Y12141D02*
X80706D01*
X74015Y9792D02*
X74357D01*
X77658Y13628D02*
X78000D01*
X79948Y11487D02*
X80245D01*
X83011Y9435D02*
X83368D01*
X73584Y9316D02*
X73896D01*
X72974Y19829D02*
X73138D01*
X75130Y10967D02*
X75472D01*
X75249Y16260D02*
X76290D01*
X78580Y13941D02*
X78937D01*
X79249Y13271D02*
X79591D01*
X74833Y17762D02*
X75175D01*
X80453Y17390D02*
X80766D01*
X76305Y12394D02*
X76825D01*
X75844Y10521D02*
X77256D01*
X81836Y18030D02*
X82163D01*
X81539Y17717D02*
X81866D01*
X76082Y14729D02*
X76394D01*
X81346Y11130D02*
X81702D01*
X75145Y17450D02*
X75487D01*
X79487Y10238D02*
X80052D01*
X80453Y17479D02*
X80766D01*
X74744Y10565D02*
X75086D01*
X80394Y18208D02*
X80766D01*
X80097Y13197D02*
X80394D01*
X79680Y18491D02*
X80513D01*
X77346Y18595D02*
X78847D01*
X75338Y18386D02*
X75963D01*
X80409Y16870D02*
X80721D01*
X79100Y13420D02*
X79442D01*
X79844Y15933D02*
X80186D01*
X82282Y10179D02*
X82624D01*
X74625Y17970D02*
X74967D01*
X80334Y16052D02*
X80647D01*
X76231Y13197D02*
X76543D01*
X76231Y12126D02*
X76632D01*
X77034Y15888D02*
X78907D01*
X79978Y11948D02*
X80290D01*
X80364Y18238D02*
X80751D01*
X74907Y10744D02*
X75264D01*
X81643Y17821D02*
X81970D01*
X79963Y11770D02*
X80275D01*
X76305Y11220D02*
X76796D01*
X81732Y10729D02*
X82089D01*
X74654Y10476D02*
X74996D01*
X82193Y18401D02*
X82520D01*
X81405Y17584D02*
X81747D01*
X80409Y16899D02*
X80721D01*
X79472Y15546D02*
X79814D01*
X74640Y10461D02*
X74996D01*
X74535Y10342D02*
X74878D01*
X82253Y18476D02*
X82595D01*
X82238Y18461D02*
X82580D01*
X76156Y13955D02*
X76469D01*
X82208Y18416D02*
X82535D01*
X76364Y16201D02*
X76706D01*
X80126Y13524D02*
X80424D01*
X82015Y18223D02*
X82357D01*
X79992Y12007D02*
X80290D01*
X77034Y16037D02*
X78907D01*
X73286Y19338D02*
X73629D01*
X76781Y11443D02*
X77346D01*
X73614Y9376D02*
X73956D01*
X80037Y16141D02*
X80647D01*
X75443Y11309D02*
X76171D01*
X80349Y18253D02*
X80736D01*
X76275Y10952D02*
X76840D01*
X75740Y16840D02*
X76290D01*
X76320Y12275D02*
X76706D01*
X77019Y11056D02*
X77435D01*
X82149Y10312D02*
X82505D01*
X74164Y9956D02*
X74506D01*
X75041Y10877D02*
X75383D01*
X76885Y12825D02*
X77227D01*
X76944Y12885D02*
X77286D01*
X80022Y12349D02*
X80498D01*
X79279Y13227D02*
X79636D01*
X81227Y11249D02*
X81583D01*
X76483Y10759D02*
X76617D01*
X80082Y13063D02*
X80394D01*
Y16721D02*
X80929D01*
X82609Y18847D02*
X82936D01*
X74372Y18238D02*
X74714D01*
X80156Y13941D02*
X80468D01*
X79576Y12929D02*
X79933D01*
X76974Y12915D02*
X77316D01*
X75428Y18476D02*
X75859D01*
X73926Y9703D02*
X74268D01*
X79353Y15413D02*
X79680D01*
X75963Y11844D02*
X76929D01*
X79963Y11725D02*
X80275D01*
X79636Y12870D02*
X79992D01*
X75249Y16825D02*
X75517D01*
X74506Y10312D02*
X74848D01*
X80320Y15829D02*
X80632D01*
X79918Y11205D02*
X80230D01*
X78045Y14045D02*
X78387D01*
X80230Y14818D02*
X80543D01*
X81167Y17331D02*
X81509D01*
X79963Y11695D02*
X80275D01*
X78535Y14565D02*
X78877D01*
X77688Y13658D02*
X78015D01*
X72974Y19695D02*
X73272D01*
X75680Y11056D02*
X76097D01*
X79294Y13212D02*
X79651D01*
X76870Y15680D02*
X78907D01*
X77955Y13941D02*
X78282D01*
X73733Y9495D02*
X74075D01*
X78610Y14639D02*
X78952D01*
X77628Y14922D02*
X77970D01*
X75695Y16885D02*
X76290D01*
X80453Y17375D02*
X80751D01*
X75859Y16721D02*
X76290D01*
X75517Y17747D02*
X75785D01*
X80245Y14981D02*
X80557D01*
X81137Y17301D02*
X81479D01*
X81717Y10759D02*
X82059D01*
X76097Y14699D02*
X76394D01*
X76260Y12156D02*
X76632D01*
X79546Y15621D02*
X79888D01*
X81137Y11338D02*
X81494D01*
X75190Y17405D02*
X75532D01*
X80216Y16320D02*
X80662D01*
X78996Y15041D02*
X79338D01*
X76067Y18476D02*
X76691D01*
X76260Y10996D02*
X76840D01*
X74550Y10357D02*
X74892D01*
X76959Y11264D02*
X77405D01*
X73554Y19070D02*
X73896D01*
X81925Y18119D02*
X82253D01*
X75978Y15918D02*
X76290D01*
X78193Y14193D02*
X78684D01*
X74283Y10075D02*
X74625D01*
X72974Y19888D02*
X73093D01*
X76677Y15888D02*
X77019D01*
X76840Y12766D02*
X77182D01*
X79710Y12796D02*
X80364D01*
X82773Y9673D02*
X83130D01*
X74907Y17687D02*
X75249D01*
X79710Y15799D02*
X80052D01*
X77108Y15442D02*
X77450D01*
X80290Y15532D02*
X80602D01*
X77034Y16007D02*
X78907D01*
X75279Y18297D02*
X76320D01*
X75874Y16706D02*
X76290D01*
X76067Y14892D02*
X76379D01*
X73599Y9301D02*
X73896D01*
X80275Y18297D02*
X80706D01*
X80379Y16513D02*
X80721D01*
X78089Y14089D02*
X78788D01*
X77539Y13509D02*
X77881D01*
X77792Y14743D02*
X78149D01*
X80438Y17227D02*
X80751D01*
X75249Y16558D02*
X75517D01*
X80438Y17286D02*
X80751D01*
X82936Y9510D02*
X83293D01*
X76454Y18714D02*
X77658D01*
X82550Y9911D02*
X82892D01*
X77034Y16201D02*
X78907D01*
X81256Y17420D02*
X81583D01*
X82877Y19130D02*
X83204D01*
X75844Y17345D02*
X76156D01*
X80141Y13792D02*
X80453D01*
X77390Y13346D02*
X77717D01*
X77004Y11145D02*
X77435D01*
X80379Y16587D02*
X80795D01*
X73866Y18743D02*
X74208D01*
X82386Y18609D02*
X82713D01*
X76112Y14520D02*
X76409D01*
X79026Y15071D02*
X79368D01*
X75398Y17807D02*
X81152D01*
X75814Y17643D02*
X76126D01*
X74848Y17747D02*
X75190D01*
X76944Y18862D02*
X79621D01*
X80201Y14402D02*
X80498D01*
X76275Y12692D02*
X76587D01*
X77375Y15175D02*
X77717D01*
X74996Y17598D02*
X75338D01*
X73361Y19264D02*
X73703D01*
X74030Y9807D02*
X74372D01*
X77346Y18580D02*
X78847D01*
X76305Y10892D02*
X76810D01*
X80483Y17717D02*
X80780D01*
X80840Y16989D02*
X81182D01*
X77019Y11026D02*
X77435D01*
X80216Y14610D02*
X80513D01*
X79680Y18282D02*
X80201D01*
X79651Y12855D02*
X80007D01*
X83621Y19903D02*
X83680D01*
X81435Y11041D02*
X81777D01*
X75249Y17167D02*
X76290D01*
X75829Y17479D02*
X76141D01*
X77524Y15026D02*
X77866D01*
X74610Y10431D02*
X74967D01*
X74803Y17792D02*
X75145D01*
X72974Y19903D02*
X73078D01*
X76379Y16186D02*
X76721D01*
X79814Y15903D02*
X80156D01*
X75993Y15769D02*
X76305D01*
X79071Y13450D02*
X79413D01*
X79978Y12528D02*
X80334D01*
X75591Y11457D02*
X76350D01*
X83026Y9420D02*
X83383D01*
X75279Y17955D02*
X81152D01*
X81821Y18015D02*
X82149D01*
X76201Y13450D02*
X76513D01*
X80275Y15413D02*
X80587D01*
X76691Y11487D02*
X77316D01*
X83055Y19308D02*
X83383D01*
X80260Y15204D02*
X80572D01*
X77019Y12959D02*
X77361D01*
X79383Y15457D02*
X79725D01*
X75264Y11115D02*
X75606D01*
X76126Y14357D02*
X76424D01*
X76989Y10922D02*
X80201D01*
X76974Y10863D02*
X80201D01*
X82119Y10342D02*
X82476D01*
X73673Y9435D02*
X74015D01*
X75844Y17405D02*
X76141D01*
X74298Y18312D02*
X74640D01*
X76929Y12870D02*
X77271D01*
X79487Y10387D02*
X80052D01*
X81316Y17479D02*
X81643D01*
X76855Y15695D02*
X78907D01*
X74446Y10253D02*
X74788D01*
X80736Y11755D02*
X81078D01*
X81658Y10818D02*
X82000D01*
X80007Y12498D02*
X80349D01*
X76424Y18699D02*
X77658D01*
X79680Y15769D02*
X80022D01*
X79383Y13123D02*
X79740D01*
X80305Y15680D02*
X80617D01*
X75264Y18267D02*
X76290D01*
X80022Y12379D02*
X80468D01*
X75978Y15978D02*
X76275D01*
X76825Y10684D02*
X80141D01*
X80216Y14654D02*
X80528D01*
X76275Y12706D02*
X76587D01*
X75249Y17108D02*
X76290D01*
X80275Y15383D02*
X80587D01*
X74491Y10298D02*
X74833D01*
X75904Y11784D02*
X77034D01*
X75948Y16201D02*
X76260D01*
X77866Y14669D02*
X78223D01*
X81063Y11413D02*
X81420D01*
X76037Y15353D02*
X76335D01*
X79992Y12513D02*
X80334D01*
X76885Y18847D02*
X80201D01*
X80468Y17613D02*
X80780D01*
X80171Y14059D02*
X80468D01*
X79918Y11115D02*
X80216D01*
X83189Y19457D02*
X83516D01*
X83011Y19264D02*
X83338D01*
X79665Y15755D02*
X80007D01*
X76989Y15561D02*
X77346D01*
X80201Y14476D02*
X80513D01*
X78699Y14729D02*
X79041D01*
X80914Y11576D02*
X81256D01*
X75651Y11517D02*
X77301D01*
X76944Y10803D02*
X80186D01*
X73747Y9168D02*
X73762D01*
X77524Y13494D02*
X77866D01*
X77167Y13123D02*
X77509D01*
X82282Y18505D02*
X82624D01*
X80795Y16944D02*
X81137D01*
X79100Y15160D02*
X79442D01*
X80899Y11591D02*
X81242D01*
X80245Y14996D02*
X80557D01*
X76647Y15918D02*
X76989D01*
X82803Y9643D02*
X83160D01*
X75249Y16944D02*
X75517D01*
X81420Y17598D02*
X81762D01*
X81271Y11205D02*
X81628D01*
X77346Y18981D02*
X78847D01*
X76126Y14282D02*
X76439D01*
X76275Y11145D02*
X76840D01*
X77138Y15413D02*
X77480D01*
X79175Y15234D02*
X79517D01*
X77346Y18491D02*
X78847D01*
X79160Y13361D02*
X79502D01*
X76216D02*
X76528D01*
X82312Y18535D02*
X82639D01*
X82044Y18253D02*
X82372D01*
X76052Y11948D02*
X76662D01*
X79918Y11130D02*
X80216D01*
X75740Y10729D02*
X76231D01*
X75457Y11324D02*
X76186D01*
X76007Y18416D02*
X76543D01*
X77346Y18535D02*
X78847D01*
X74357Y18253D02*
X74699D01*
X80424Y17033D02*
X80736D01*
X76052Y15160D02*
X76350D01*
X80751Y16885D02*
X81078D01*
X79992Y12112D02*
X80305D01*
X80721Y11770D02*
X81063D01*
X75844Y11725D02*
X77123D01*
X74803Y10625D02*
X75145D01*
X82059Y10402D02*
X82416D01*
X76245Y13063D02*
X76558D01*
X80305Y15725D02*
X80617D01*
X80647Y11844D02*
X80989D01*
X75814Y17628D02*
X76126D01*
X76171Y13881D02*
X76469D01*
X76156Y14059D02*
X76454D01*
X80468Y17628D02*
X80780D01*
X80186Y16290D02*
X80662D01*
X76126Y14253D02*
X76439D01*
X79561Y12944D02*
X79918D01*
X78550Y18654D02*
X80245D01*
X78030Y14506D02*
X78372D01*
X76171Y13911D02*
X76469D01*
X79323Y15383D02*
X79651D01*
X80007Y12231D02*
X80617D01*
X75249Y16751D02*
X75517D01*
X79680Y18253D02*
X80201D01*
X83650Y19948D02*
X83680D01*
X76305Y10877D02*
X76796D01*
X74461Y10268D02*
X74803D01*
X77301Y18922D02*
X79264D01*
X82535Y9926D02*
X82877D01*
X77554Y14996D02*
X77896D01*
X76245Y18609D02*
X77301D01*
X79680Y18431D02*
X80587D01*
X76944Y10818D02*
X80201D01*
X72974Y19977D02*
X73004D01*
X72974Y19948D02*
X73034D01*
X76305Y12424D02*
X76855D01*
X80156Y13970D02*
X80468D01*
X81004Y11472D02*
X81360D01*
X76275Y11160D02*
X76825D01*
X72974Y19710D02*
X73257D01*
X82089Y10372D02*
X82446D01*
X76245Y12989D02*
X76558D01*
X75963Y16067D02*
X76275D01*
X82535Y18773D02*
X82877D01*
X75249Y17227D02*
X76290D01*
X80810Y16959D02*
X81152D01*
X75249Y18044D02*
X81152D01*
X77792Y13777D02*
X78134D01*
X76037Y15219D02*
X76350D01*
X79279Y13242D02*
X79621D01*
X76156Y18550D02*
X76959D01*
X74580Y18015D02*
X74922D01*
X75249Y17137D02*
X76290D01*
Y11190D02*
X76810D01*
X73718Y9197D02*
X73792D01*
X75710Y10788D02*
X76171D01*
X76245Y10223D02*
X76855D01*
X76097Y14595D02*
X76409D01*
X76067Y15026D02*
X76364D01*
X83353Y19635D02*
X83680D01*
X80468Y17658D02*
X80780D01*
X75993Y15725D02*
X76305D01*
X76469Y16097D02*
X76810D01*
X80974Y17122D02*
X81301D01*
X76201Y13494D02*
X76513D01*
X80438Y17152D02*
X80736D01*
X73941Y9718D02*
X74283D01*
X80320Y15874D02*
X80632D01*
X77346Y15204D02*
X77688D01*
X73123Y19502D02*
X73465D01*
X80379Y16602D02*
X80810D01*
X79279Y15338D02*
X79621D01*
X79918Y11145D02*
X80216D01*
X77019Y18877D02*
X79546D01*
X83249Y19516D02*
X83576D01*
X78892Y14937D02*
X79234D01*
X74089Y9881D02*
X74446D01*
X78030Y14030D02*
X78372D01*
X79963Y11636D02*
X80260D01*
X74179Y18431D02*
X74521D01*
X80052Y16156D02*
X80647D01*
X80067Y12825D02*
X80364D01*
X77004Y10996D02*
X77435D01*
X80275Y15249D02*
X80572D01*
X75487Y18505D02*
X75814D01*
X80052Y12810D02*
X80364D01*
X78788Y14818D02*
X79115D01*
X76171Y12067D02*
X76647D01*
X76944Y11294D02*
X77405D01*
X75978Y15948D02*
X76275D01*
X75978Y15874D02*
X76290D01*
X77078Y15472D02*
X77435D01*
X82907Y9539D02*
X83264D01*
X77152Y15398D02*
X77495D01*
X72974Y19873D02*
X73108D01*
X74045Y18565D02*
X74387D01*
X82223Y18446D02*
X82565D01*
X76989Y11205D02*
X77420D01*
X77346Y19011D02*
X78847D01*
X78981Y13539D02*
X79323D01*
X76245Y13019D02*
X76558D01*
X81643Y17836D02*
X81985D01*
X80082Y13019D02*
X80379D01*
X73049Y19576D02*
X73391D01*
X77970Y14565D02*
X78312D01*
X76112Y14550D02*
X76409D01*
X73807Y9584D02*
X74164D01*
X79368Y13138D02*
X79725D01*
X78639Y13881D02*
X78996D01*
X80007Y12201D02*
X80647D01*
X80409Y16885D02*
X80721D01*
X75532Y11398D02*
X76260D01*
X77911Y14625D02*
X78268D01*
X74506Y18089D02*
X74848D01*
X82505Y9956D02*
X82847D01*
X75428Y17792D02*
X81152D01*
X75621Y16959D02*
X76290D01*
X81524Y17702D02*
X81851D01*
X78758Y13762D02*
X79115D01*
X75963Y10402D02*
X77152D01*
X73182Y19442D02*
X73524D01*
X74089Y18520D02*
X74431D01*
X78565Y14595D02*
X78907D01*
X80275Y15309D02*
X80587D01*
X78253Y14253D02*
X78625D01*
X80275Y16394D02*
X80676D01*
X76231Y13153D02*
X76543D01*
X79873Y12632D02*
X80349D01*
X80810Y11680D02*
X81152D01*
X80007Y12156D02*
X80305D01*
X79933Y11294D02*
X80230D01*
X76126Y14402D02*
X76424D01*
X75963Y16037D02*
X76275D01*
X75680Y11086D02*
X76097D01*
X80082Y13153D02*
X80394D01*
X80097Y13271D02*
X80409D01*
X80082Y13004D02*
X80379D01*
X78178Y14357D02*
X78684D01*
X80067Y16171D02*
X80662D01*
X77346Y18342D02*
X78847D01*
X74714Y10536D02*
X75056D01*
X76141Y14104D02*
X76454D01*
X76989Y10907D02*
X80201D01*
X80260Y15160D02*
X80572D01*
X81970Y18178D02*
X82312D01*
X78625Y13896D02*
X78981D01*
X80097Y16201D02*
X80662D01*
X80082Y16186D02*
X80662D01*
X80364Y12126D02*
X80721D01*
X80379Y16528D02*
X80736D01*
X77108Y18892D02*
X79457D01*
X76022Y15502D02*
X76320D01*
X79651Y15725D02*
X79978D01*
X77034Y15963D02*
X78907D01*
X80230Y14788D02*
X80543D01*
X80766Y16899D02*
X81093D01*
X76409Y11309D02*
X76691D01*
X80156Y13985D02*
X80468D01*
X79502Y15576D02*
X79844D01*
X75725Y10744D02*
X76216D01*
X78550Y18699D02*
X80201D01*
X80394Y16795D02*
X81004D01*
X75249Y17256D02*
X76290D01*
X76141Y14164D02*
X76454D01*
X83412Y19695D02*
X83680D01*
X76959Y12900D02*
X77301D01*
X79487Y13019D02*
X79844D01*
X75829Y10550D02*
X77286D01*
X75249Y16230D02*
X76290D01*
X77346Y18431D02*
X78847D01*
X74476Y18119D02*
X74833D01*
X76067Y15011D02*
X76364D01*
X77004Y11130D02*
X77435D01*
X78000Y14000D02*
X78342D01*
X75115Y17479D02*
X75457D01*
X82357Y18580D02*
X82684D01*
X78550Y13970D02*
X78907D01*
X77822Y13807D02*
X78163D01*
X79085Y13435D02*
X79427D01*
X80334Y15978D02*
X80632D01*
X78520Y14000D02*
X78877D01*
X79963Y11740D02*
X80275D01*
X80974Y11502D02*
X81331D01*
X80156Y16260D02*
X80662D01*
X75680Y11145D02*
X76112D01*
X76052Y10327D02*
X77063D01*
X76126Y14312D02*
X76439D01*
X80944Y17093D02*
X81271D01*
X80126Y13569D02*
X80424D01*
X73629Y9272D02*
X73866D01*
X80468Y18134D02*
X80810D01*
X75309Y11160D02*
X75651D01*
X80394Y16751D02*
X80959D01*
X77717Y13703D02*
X78060D01*
X73896Y18714D02*
X74238D01*
X75249Y17033D02*
X76290D01*
X79918Y11160D02*
X80230D01*
X76231Y13182D02*
X76543D01*
X76260Y11071D02*
X76855D01*
X76052Y15145D02*
X76364D01*
X75249Y16855D02*
X75517D01*
X77271Y15279D02*
X77613D01*
X81420Y11056D02*
X81762D01*
X76379Y10803D02*
X76721D01*
X79487Y10357D02*
X80052D01*
X76067Y10312D02*
X77034D01*
X76231Y18595D02*
X77197D01*
X77643Y14892D02*
X78000D01*
X77004Y10952D02*
X77435D01*
X80305Y15636D02*
X80602D01*
X76171Y13836D02*
X76483D01*
X76007Y15636D02*
X76305D01*
X75814Y17717D02*
X76112D01*
X75963Y16141D02*
X76260D01*
X80305Y15740D02*
X80617D01*
X77658Y14877D02*
X78015D01*
X77896Y14639D02*
X78253D01*
X80780Y16914D02*
X81108D01*
X81123Y17286D02*
X81465D01*
X76186Y13628D02*
X76498D01*
X80111Y13390D02*
X80409D01*
X79531Y12974D02*
X79888D01*
X79963Y11710D02*
X80275D01*
X76810Y11428D02*
X77346D01*
X79933Y11413D02*
X80245D01*
X82639Y18877D02*
X82966D01*
X75814Y10580D02*
X77301D01*
X83338Y19606D02*
X83665D01*
X76305Y11205D02*
X76810D01*
X76156Y14045D02*
X76454D01*
X76855Y12796D02*
X77197D01*
X72989Y19635D02*
X73331D01*
X80438Y17197D02*
X80736D01*
X73242Y19383D02*
X73584D01*
X80394Y16781D02*
X80989D01*
X77985Y13985D02*
X78327D01*
X77004Y12944D02*
X77346D01*
X76617Y10595D02*
X77316D01*
X78818Y14848D02*
X79145D01*
X82951Y19204D02*
X83279D01*
X82922Y19174D02*
X83249D01*
X74075Y18535D02*
X74417D01*
X79992Y12052D02*
X80305D01*
X75279Y17970D02*
X81152D01*
X80111Y13361D02*
X80409D01*
X79978Y11859D02*
X80290D01*
X74253Y18357D02*
X74595D01*
X76721Y12647D02*
X77063D01*
X79948Y11443D02*
X80245D01*
X76528Y18743D02*
X77658D01*
X81628Y17807D02*
X81955D01*
X77836Y14699D02*
X78193D01*
X75799Y11680D02*
X77167D01*
X80989Y11487D02*
X81346D01*
X83055Y19323D02*
X83398D01*
X74640Y17955D02*
X74982D01*
X79115Y15175D02*
X79457D01*
X75249Y16899D02*
X75517D01*
X76245Y13048D02*
X76558D01*
X75249Y18089D02*
X76141D01*
X80290Y15502D02*
X80602D01*
X77375Y13331D02*
X77717D01*
X79606Y12900D02*
X79963D01*
X73420Y19204D02*
X73762D01*
X80111Y13376D02*
X80409D01*
X74669Y10491D02*
X75011D01*
X78862Y14907D02*
X79204D01*
X82847Y19100D02*
X83189D01*
X75829Y17464D02*
X76141D01*
X75829Y17450D02*
X76141D01*
X75249Y16721D02*
X75517D01*
X75249Y16498D02*
X75517D01*
X80171Y14134D02*
X80483D01*
X80186Y14312D02*
X80498D01*
X79933Y12573D02*
X80349D01*
X76082Y14788D02*
X76394D01*
X75829Y17584D02*
X76126D01*
X75249Y16528D02*
X75517D01*
X74937Y10773D02*
X75279D01*
X79487Y10431D02*
X80052D01*
X75993Y10372D02*
X77123D01*
X82862Y19115D02*
X83189D01*
X76290Y10922D02*
X76825D01*
X76260Y10982D02*
X76840D01*
X78877Y13643D02*
X79219D01*
X79844Y12662D02*
X80349D01*
X73629Y9391D02*
X73970D01*
X75383Y11234D02*
X76141D01*
X73108Y19516D02*
X73450D01*
X76082Y14803D02*
X76394D01*
X75487Y11353D02*
X76216D01*
X75219Y17360D02*
X75576D01*
X72974Y19740D02*
X73227D01*
X80320Y15799D02*
X80617D01*
X80007Y12275D02*
X80572D01*
X75993Y15710D02*
X76305D01*
X78163Y14372D02*
X78699D01*
X78907Y13613D02*
X79249D01*
X75576Y11443D02*
X76320D01*
X77242Y15309D02*
X77584D01*
X74684Y10506D02*
X75026D01*
X76231Y13256D02*
X76528D01*
X75680Y10937D02*
X76112D01*
X76126Y14342D02*
X76439D01*
X76022Y15368D02*
X76335D01*
X73078Y19546D02*
X73420D01*
X79903Y10982D02*
X80201D01*
X82416Y10045D02*
X82758D01*
X80171Y14045D02*
X80468D01*
X80022Y16126D02*
X80647D01*
X77034Y12974D02*
X77375D01*
X73837Y18773D02*
X74179D01*
X74878Y10714D02*
X75234D01*
X79992Y12097D02*
X80305D01*
X78178Y14178D02*
X78699D01*
X80171Y14164D02*
X80483D01*
X82134Y10327D02*
X82491D01*
X74104Y9896D02*
X74446D01*
X80260Y15175D02*
X80572D01*
X79933Y11324D02*
X80230D01*
X82401Y18624D02*
X82728D01*
X76097Y14580D02*
X76409D01*
X76290Y12632D02*
X76587D01*
X79502Y13004D02*
X79859D01*
X76141Y14208D02*
X76439D01*
X79160Y15219D02*
X79502D01*
X77316Y13271D02*
X77658D01*
X77346Y19041D02*
X78847D01*
X80424Y17137D02*
X80736D01*
X80171Y14119D02*
X80483D01*
X79829Y15918D02*
X80171D01*
X82446Y18669D02*
X82773D01*
X78238Y14238D02*
X78639D01*
X79591Y12915D02*
X79948D01*
X75249Y16885D02*
X75517D01*
X75844Y17375D02*
X76156D01*
X76171Y10253D02*
X76929D01*
X75249Y16320D02*
X76587D01*
X82431Y18654D02*
X82758D01*
X80216Y14625D02*
X80528D01*
X73658Y9420D02*
X74000D01*
X82476Y18699D02*
X82803D01*
X76112Y14446D02*
X76424D01*
X80424Y17122D02*
X80736D01*
X75606Y18535D02*
X75695D01*
X74268Y18342D02*
X74610D01*
X79948Y16052D02*
X80290D01*
X82431Y10030D02*
X82773D01*
X76320Y11234D02*
X76781D01*
X76141Y14193D02*
X76439D01*
X76275Y12751D02*
X76587D01*
X82922Y9524D02*
X83279D01*
X83026Y19279D02*
X83353D01*
X75249Y16572D02*
X75517D01*
X78253Y14282D02*
X78610D01*
X82699Y9747D02*
X83055D01*
X75205Y11056D02*
X75547D01*
X83621Y19918D02*
X83680D01*
X74194Y18416D02*
X74535D01*
X76781Y15784D02*
X78907D01*
X80216Y14669D02*
X80528D01*
X76112Y14506D02*
X76424D01*
X76007Y10357D02*
X77093D01*
X77599Y13569D02*
X77941D01*
X80468Y17494D02*
X80766D01*
X75294Y17940D02*
X81152D01*
X80409Y16929D02*
X80721D01*
X77034Y16186D02*
X78907D01*
X76350Y10833D02*
X76766D01*
X76171Y13866D02*
X76483D01*
X75011Y17584D02*
X75353D01*
X80290Y15487D02*
X80602D01*
X75918Y11799D02*
X77019D01*
X79903Y11026D02*
X80216D01*
X75249Y17331D02*
X75606D01*
X79933Y11353D02*
X80245D01*
X76067Y15041D02*
X76364D01*
X76186Y18565D02*
X77034D01*
X79680Y18223D02*
X80201D01*
X80126Y13643D02*
X80438D01*
D29*
X92605Y13840D02*
X93473D01*
X92763Y13998D02*
X93394D01*
X92711Y13945D02*
X93421D01*
X92790Y14024D02*
X93368D01*
X92632Y13866D02*
X93473D01*
X92737Y13972D02*
X93394D01*
X92684Y13919D02*
X93421D01*
X92658Y13893D02*
X93447D01*
X87215Y14103D02*
X87635D01*
X87136Y13998D02*
X87819D01*
X87136Y13972D02*
X87846D01*
X87109Y13919D02*
X87898D01*
X87109Y13945D02*
X87898D01*
X87188Y14077D02*
X87662D01*
X87162Y14051D02*
X87714D01*
X87083Y13893D02*
X87872D01*
X92842Y14103D02*
X93316D01*
X87162Y14024D02*
X87767D01*
X92816Y14051D02*
X93368D01*
X92842Y14077D02*
X93342D01*
X92211Y13419D02*
X93710D01*
X92290Y13498D02*
X93684D01*
X86846D02*
X87635D01*
X88687Y13419D02*
X88819D01*
X92316Y13525D02*
X93657D01*
X92343Y13551D02*
X93657D01*
X86820Y13446D02*
X87609D01*
X92264Y13472D02*
X93684D01*
X92237Y13446D02*
X93710D01*
X86873Y13551D02*
X87688D01*
X86846Y13472D02*
X87635D01*
X86873Y13525D02*
X87662D01*
X88714Y13446D02*
X88766D01*
X86820Y13419D02*
X87609D01*
X88004Y15471D02*
X90291D01*
X87977Y15418D02*
X89897D01*
X87925Y15339D02*
X89397D01*
X87951Y15392D02*
X89713D01*
X87898Y15313D02*
X89266D01*
X87846Y15234D02*
X89003D01*
X87872Y15260D02*
X89082D01*
X87925Y15365D02*
X89529D01*
X87898Y15287D02*
X89161D01*
X87977Y15444D02*
X90107D01*
X87241Y14156D02*
X87530D01*
X92868Y14129D02*
X93316D01*
X92921Y14182D02*
X93289D01*
X92895Y14156D02*
X93289D01*
X87241Y14182D02*
X87478D01*
X87215Y14129D02*
X87583D01*
X87846Y15208D02*
X88924D01*
X87846Y15102D02*
X88740D01*
X87898Y15076D02*
X88714D01*
X87925Y15050D02*
X88687D01*
X87819Y15129D02*
X88792D01*
X87977Y15023D02*
X88635D01*
X87819Y15155D02*
X88819D01*
X87819Y15181D02*
X88871D01*
X88030Y14997D02*
X88608D01*
X86899Y13577D02*
X87688D01*
X87030Y13814D02*
X87846D01*
X87030Y13787D02*
X87819D01*
X86925Y13604D02*
X87714D01*
X86978Y13735D02*
X87793D01*
X86925Y13630D02*
X87714D01*
X86952Y13682D02*
X87767D01*
X87057Y13840D02*
X87846D01*
X86952Y13656D02*
X87740D01*
X87004Y13761D02*
X87793D01*
X87057Y13866D02*
X87872D01*
X86978Y13709D02*
X87767D01*
X88503Y13209D02*
X88792D01*
X88976Y13235D02*
X89134D01*
X88976Y13314D02*
X89003D01*
X88976Y13262D02*
X89082D01*
X88976Y13288D02*
X89029D01*
X88582D02*
X88845D01*
X88582Y13314D02*
X88871D01*
X88530Y13235D02*
X88792D01*
X88556Y13262D02*
X88819D01*
X86794Y13393D02*
X87583D01*
X92185D02*
X93736D01*
X92158Y13367D02*
X93763D01*
X88635D02*
X88898D01*
X88661Y13393D02*
X88845D01*
X88608Y13341D02*
X88924D01*
X86768D02*
X87556D01*
X86768Y13367D02*
X87556D01*
X92132Y13341D02*
X93763D01*
X92053Y13235D02*
X93815D01*
X92106Y13288D02*
X93789D01*
X86715Y13262D02*
X87504D01*
X92080D02*
X93815D01*
X92106Y13314D02*
X93789D01*
X86741Y13288D02*
X87504D01*
X86715Y13235D02*
X87478D01*
X86741Y13314D02*
X87530D01*
X92500Y13735D02*
X93526D01*
X92422Y13630D02*
X93605D01*
X92553Y13787D02*
X93500D01*
X92474Y13709D02*
X93552D01*
X92395Y13604D02*
X93605D01*
X92422Y13656D02*
X93579D01*
X92448Y13682D02*
X93579D01*
X92369Y13577D02*
X93631D01*
X92527Y13761D02*
X93526D01*
X92579Y13814D02*
X93500D01*
X87294Y14261D02*
X87346D01*
X87267Y14208D02*
X87451D01*
X88398Y14787D02*
X88451D01*
X92974Y14235D02*
X93263D01*
X92947Y14208D02*
X93263D01*
X93053Y14313D02*
X93210D01*
X88345Y14813D02*
X88477D01*
X93026Y14287D02*
X93210D01*
X93132Y14392D02*
X93158D01*
X93000Y14261D02*
X93237D01*
X87267Y14235D02*
X87399D01*
X93105Y14366D02*
X93184D01*
X93079Y14340D02*
X93184D01*
X88293Y14839D02*
X88503D01*
X88214Y14892D02*
X88530D01*
X88082Y14971D02*
X88582D01*
X88161Y14918D02*
X88556D01*
X88109Y14945D02*
X88582D01*
X88266Y14866D02*
X88503D01*
X88345Y16075D02*
X92132D01*
X88372Y16102D02*
X92158D01*
X88319Y16023D02*
X92053D01*
X88293Y15970D02*
X91948D01*
X88319Y16049D02*
X92080D01*
X88293Y15997D02*
X92001D01*
X88266Y15944D02*
X91922D01*
X88477Y16312D02*
X92053D01*
X88582Y16470D02*
X91948D01*
X88556Y16444D02*
X91974D01*
X88503Y16338D02*
X92027D01*
X88530Y16417D02*
X91974D01*
X88477Y16286D02*
X92053D01*
X88451Y16259D02*
X92080D01*
X88530Y16391D02*
X92001D01*
X88503Y16365D02*
X92027D01*
X88004Y15497D02*
X90449D01*
X88030Y15523D02*
X90633D01*
X88082Y15602D02*
X91001D01*
X88030Y15549D02*
X90765D01*
X88056Y15576D02*
X90896D01*
X88082Y15628D02*
X91107D01*
X88424Y16207D02*
X92106D01*
X88424Y16233D02*
X92106D01*
X88398Y16154D02*
X92132D01*
X88372Y16128D02*
X92158D01*
X88398Y16181D02*
X92132D01*
X88240Y15891D02*
X91817D01*
X88161Y15760D02*
X91501D01*
X88188Y15786D02*
X91580D01*
X88188Y15812D02*
X91632D01*
X88135Y15733D02*
X91422D01*
X88240Y15918D02*
X91869D01*
X88214Y15865D02*
X91738D01*
X88135Y15707D02*
X91370D01*
X88109Y15681D02*
X91291D01*
X88214Y15839D02*
X91685D01*
X88109Y15655D02*
X91186D01*
X88714Y12736D02*
X88898D01*
X86399Y12709D02*
X87320D01*
X91948Y12736D02*
X94104D01*
X92001Y12709D02*
X94131D01*
X88319Y12736D02*
X88503D01*
X88714Y12709D02*
X88898D01*
X91896Y12762D02*
X94104D01*
X89450Y12683D02*
X89792D01*
X88319Y12657D02*
X88503D01*
X89134Y12604D02*
X89266D01*
X89476D02*
X89713D01*
X89476Y12630D02*
X89739D01*
X88714D02*
X88898D01*
X89476Y12657D02*
X89765D01*
X88714Y12604D02*
X88898D01*
X89134Y12630D02*
X89266D01*
X88319D02*
X88503D01*
X88714Y12657D02*
X88898D01*
X89134D02*
X89266D01*
X89108Y12683D02*
X89266D01*
X92579Y12368D02*
X94341D01*
X92448Y12446D02*
X94289D01*
X92211Y12578D02*
X94210D01*
X92369Y12499D02*
X94262D01*
X89476Y12551D02*
X89686D01*
X92316Y12525D02*
X94236D01*
X92500Y12420D02*
X94289D01*
X92264Y12551D02*
X94210D01*
X89476Y12578D02*
X89713D01*
X92553Y12394D02*
X94315D01*
X92395Y12473D02*
X94262D01*
X88319Y12604D02*
X88530D01*
X92080Y12657D02*
X94157D01*
X92132Y12630D02*
X94183D01*
X92185Y12604D02*
X94183D01*
X92027Y12683D02*
X94157D01*
X88740Y12578D02*
X88898D01*
X88319Y12551D02*
X88530D01*
X88319Y12525D02*
X88530D01*
X88319Y12473D02*
X88530D01*
X88319Y12578D02*
X88530D01*
X88740Y12551D02*
X88898D01*
X88319Y12499D02*
X88530D01*
X88766Y12525D02*
X88898D01*
X86373Y12657D02*
X87346D01*
X86268Y12473D02*
X87399D01*
X86347Y12604D02*
X87346D01*
X86215Y12394D02*
X87399D01*
X86347Y12630D02*
X87346D01*
X86294Y12525D02*
X87372D01*
X86320Y12578D02*
X87372D01*
X86242Y12446D02*
X87399D01*
X86268Y12499D02*
X87372D01*
X86189Y12368D02*
X87425D01*
X86242Y12420D02*
X87399D01*
X86320Y12551D02*
X87372D01*
X89161Y12315D02*
X89450D01*
X88319Y12394D02*
X88530D01*
X89161Y12446D02*
X89581D01*
X88319Y12341D02*
X88530D01*
X88819Y12368D02*
X88950D01*
X88319D02*
X88530D01*
X88319Y12420D02*
X88530D01*
X88845Y12341D02*
X88950D01*
X89161Y12420D02*
X89555D01*
X88319Y12446D02*
X88530D01*
X89161Y12368D02*
X89502D01*
X89161Y12394D02*
X89529D01*
X88819D02*
X88924D01*
X88792Y12420D02*
X88924D01*
X88792Y12446D02*
X88924D01*
X89161Y12499D02*
X89318D01*
X88766Y12473D02*
X88924D01*
X89450Y12525D02*
X89660D01*
X88766Y12499D02*
X88898D01*
X89134Y12551D02*
X89292D01*
X89397Y12473D02*
X89608D01*
X89134Y12578D02*
X89266D01*
X89424Y12499D02*
X89634D01*
X89161Y12473D02*
X89345D01*
X89161Y12525D02*
X89292D01*
X86426Y12736D02*
X87320D01*
X88714Y12762D02*
X88898D01*
X89424Y12736D02*
X89844D01*
X89108Y12709D02*
X89266D01*
X88714Y12683D02*
X88898D01*
X89108Y12736D02*
X89266D01*
X88319Y12683D02*
X88503D01*
X86373D02*
X87346D01*
X89108Y12762D02*
X89266D01*
X89424Y12709D02*
X89818D01*
X89424Y12762D02*
X89844D01*
X86426D02*
X87320D01*
X88319D02*
X88503D01*
X88319Y12709D02*
X88503D01*
X89134Y17443D02*
X91396D01*
X89108Y17417D02*
X91422D01*
X89108Y17390D02*
X91422D01*
X89187Y17522D02*
X91343D01*
X89161Y17495D02*
X91370D01*
X89082Y17364D02*
X91448D01*
X89082Y17338D02*
X91448D01*
X89161Y17469D02*
X91370D01*
X88766Y16785D02*
X91764D01*
X88740Y16759D02*
X91790D01*
X88714Y16733D02*
X91817D01*
X88766Y16812D02*
X91764D01*
X88635Y16575D02*
X91896D01*
X88661Y16628D02*
X91869D01*
X88687Y16654D02*
X91843D01*
X88687Y16680D02*
X91843D01*
X88635Y16601D02*
X91869D01*
X88608Y16549D02*
X91922D01*
X88714Y16707D02*
X91817D01*
X88950Y17127D02*
X91580D01*
X88976Y17180D02*
X91554D01*
X88976Y17154D02*
X91554D01*
X88924Y17075D02*
X91606D01*
X88845Y16943D02*
X91685D01*
X88898Y17048D02*
X91632D01*
X88924Y17101D02*
X91580D01*
X88871Y16969D02*
X91659D01*
X88898Y17022D02*
X91632D01*
X88871Y16996D02*
X91659D01*
X88819Y16891D02*
X91711D01*
X89055Y17311D02*
X91475D01*
X89029Y17259D02*
X91501D01*
X89003Y17206D02*
X91527D01*
X88819Y16917D02*
X91711D01*
X89055Y17285D02*
X91475D01*
X89003Y17233D02*
X91527D01*
X88792Y16838D02*
X91738D01*
X88792Y16864D02*
X91738D01*
X91817Y12815D02*
X94078D01*
X91738Y12920D02*
X93999D01*
X91711Y12893D02*
X94026D01*
X91790Y12972D02*
X93973D01*
X91869Y12788D02*
X94078D01*
X91764Y12946D02*
X93999D01*
X91711Y12867D02*
X94052D01*
X91764Y12841D02*
X94052D01*
X89502Y12999D02*
X89529D01*
X86583Y13051D02*
X87372D01*
X91843Y13025D02*
X93947D01*
X89240Y13077D02*
X89397D01*
X88871D02*
X89055D01*
X88845Y13051D02*
X89029D01*
X88398D02*
X88661D01*
X89240D02*
X89371D01*
X89476Y13025D02*
X89502D01*
X91896Y13077D02*
X93920D01*
X86610D02*
X87372D01*
X91869Y13051D02*
X93947D01*
X88424Y13077D02*
X88687D01*
X91817Y12999D02*
X93973D01*
X92027Y13209D02*
X93841D01*
X88950D02*
X89187D01*
X91974Y13156D02*
X93868D01*
X91922Y13104D02*
X93894D01*
X89240D02*
X89371D01*
X91948Y13130D02*
X93894D01*
X92001Y13183D02*
X93868D01*
X89240Y13025D02*
X89345D01*
X89187Y12972D02*
X89292D01*
X88372Y12999D02*
X88608D01*
X89213D02*
X89318D01*
X89161Y12946D02*
X89292D01*
X86583Y13025D02*
X87346D01*
X88819Y12999D02*
X89003D01*
X88398Y13025D02*
X88635D01*
X86531Y12946D02*
X87320D01*
X88372Y12972D02*
X88582D01*
X89502D02*
X89581D01*
X88819D02*
X88976D01*
X86557Y12999D02*
X87346D01*
X88845Y13025D02*
X89003D01*
X86557Y12972D02*
X87320D01*
X86636Y13130D02*
X87399D01*
X88477Y13156D02*
X88740D01*
X88451Y13130D02*
X88714D01*
X86662Y13156D02*
X87425D01*
X89240Y13130D02*
X89318D01*
X88871Y13104D02*
X89082D01*
X88924Y13156D02*
X89134D01*
X86662Y13183D02*
X87451D01*
X88503D02*
X88766D01*
X86689Y13209D02*
X87451D01*
X89213Y13156D02*
X89266D01*
X86636Y13104D02*
X87399D01*
X88950Y13183D02*
X89213D01*
X88898Y13130D02*
X89108D01*
X88451Y13104D02*
X88687D01*
X89082Y12815D02*
X89266D01*
X86531Y12920D02*
X87320D01*
X88319Y12815D02*
X88503D01*
X88740Y12841D02*
X88924D01*
X89108Y12893D02*
X89266D01*
X88766D02*
X88950D01*
X88319Y12841D02*
X88503D01*
X88319Y12920D02*
X88556D01*
X88766Y12867D02*
X88924D01*
X89134Y12920D02*
X89266D01*
X89082Y12841D02*
X89266D01*
X88319Y12893D02*
X88530D01*
X88792Y12920D02*
X88950D01*
X88740Y12815D02*
X88924D01*
X88345Y12946D02*
X88556D01*
X89450Y12893D02*
X89713D01*
X88319Y12867D02*
X88503D01*
X89502Y12946D02*
X89634D01*
X89476Y12920D02*
X89686D01*
X88792Y12946D02*
X88976D01*
X89082Y12867D02*
X89266D01*
X88319Y12788D02*
X88503D01*
X86478Y12841D02*
X87320D01*
X89424Y12815D02*
X89871D01*
X86478Y12867D02*
X87320D01*
X88740Y12788D02*
X88898D01*
X86452D02*
X87320D01*
X89082D02*
X89266D01*
X86505Y12893D02*
X87320D01*
X89424Y12867D02*
X89765D01*
X89424Y12841D02*
X89818D01*
X86452Y12815D02*
X87320D01*
X89424Y12788D02*
X89871D01*
X95130Y10895D02*
X95183D01*
X89634Y10842D02*
X93289D01*
X89634Y10816D02*
X93316D01*
X89660Y10869D02*
X93237D01*
X88530Y10842D02*
X89082D01*
X88530Y10869D02*
X89108D01*
X88530Y10895D02*
X89108D01*
X88556Y10921D02*
X89108D01*
X88477Y10737D02*
X89108D01*
X85374Y10921D02*
X87846D01*
X95104D02*
X95156D01*
X89686Y10895D02*
X93184D01*
X88451Y10711D02*
X89108D01*
X88135Y10869D02*
X88214D01*
X89581Y10763D02*
X93421D01*
X85295Y10790D02*
X87925D01*
X88477Y10763D02*
X89108D01*
X88503Y10816D02*
X89082D01*
X89555Y10737D02*
X93473D01*
X85347Y10869D02*
X87872D01*
X88161Y10816D02*
X88240D01*
X89713Y10921D02*
X93132D01*
X85347Y10895D02*
X87872D01*
X85216Y10684D02*
X88004D01*
X88135Y10921D02*
X88214D01*
X88135Y10842D02*
X88240D01*
X88135Y10895D02*
X88214D01*
X86189Y12341D02*
X87425D01*
X88845Y12315D02*
X88950D01*
X92632Y12341D02*
X94341D01*
X89161D02*
X89476D01*
X86163Y12315D02*
X87425D01*
X88319D02*
X88530D01*
X85163Y10553D02*
X93789D01*
X85190Y10605D02*
X89161D01*
X85216Y10658D02*
X88030D01*
X89345Y10579D02*
X93736D01*
X85269Y10763D02*
X87951D01*
X85269Y10737D02*
X87977D01*
X85242Y10711D02*
X87977D01*
X85321Y10842D02*
X87898D01*
X89424Y10632D02*
X93657D01*
X85190D02*
X88056D01*
X88398D02*
X89161D01*
X85295Y10816D02*
X87925D01*
X88161Y10632D02*
X88293D01*
X89397Y10605D02*
X93684D01*
X85163Y10579D02*
X89187D01*
X88161Y10790D02*
X88240D01*
X88398Y10658D02*
X89134D01*
X88161Y10684D02*
X88266D01*
X88161Y10658D02*
X88293D01*
X88503Y10790D02*
X89082D01*
X89502Y10684D02*
X93552D01*
X89608Y10790D02*
X93368D01*
X89476Y10658D02*
X93605D01*
X88424Y10684D02*
X89108D01*
X88161Y10763D02*
X88240D01*
X88161Y10737D02*
X88266D01*
X88161Y10711D02*
X88266D01*
X89529D02*
X93500D01*
X94999Y10974D02*
X95130D01*
X94867Y11053D02*
X95077D01*
X85453Y11079D02*
X87767D01*
X94815D02*
X95077D01*
X85453Y11053D02*
X87793D01*
X94946Y11000D02*
X95130D01*
X85426Y11026D02*
X87793D01*
X85400Y10974D02*
X87819D01*
X94920Y11026D02*
X95104D01*
X89765Y11079D02*
X92868D01*
X89765Y11053D02*
X92921D01*
X89003Y10974D02*
X89134D01*
X89739D02*
X93053D01*
X85400Y11000D02*
X87819D01*
X88582Y11421D02*
X88976D01*
X88582Y11394D02*
X88976D01*
X88582Y11316D02*
X88976D01*
X88582Y11342D02*
X88976D01*
X88582Y11368D02*
X88976D01*
X94446Y11289D02*
X94946D01*
X94315Y11368D02*
X94893D01*
X94368Y11342D02*
X94920D01*
X94420Y11316D02*
X94946D01*
X94236Y11421D02*
X94867D01*
X94262Y11394D02*
X94893D01*
X85558Y11263D02*
X87793D01*
X87898D02*
X88109D01*
X85558Y11237D02*
X87767D01*
X88030Y11158D02*
X88135D01*
X88004Y11210D02*
X88135D01*
X87977Y11237D02*
X88109D01*
X89739Y11263D02*
X89897D01*
X89765Y11184D02*
X92684D01*
X89161Y11237D02*
X89292D01*
X89134Y11184D02*
X89266D01*
X89765Y11210D02*
X92632D01*
X89923Y11263D02*
X92553D01*
X89739Y11237D02*
X92605D01*
X89187Y11263D02*
X89318D01*
X88056Y11132D02*
X88161D01*
X88109Y10974D02*
X88188D01*
X88556Y10947D02*
X89108D01*
X88109Y11000D02*
X88188D01*
X88082Y11053D02*
X88188D01*
X88082Y11079D02*
X88161D01*
X85374Y10947D02*
X87846D01*
X88082Y11026D02*
X88188D01*
X88056Y11105D02*
X88161D01*
X88109Y10947D02*
X88214D01*
X85479Y11105D02*
X87767D01*
X85479Y11132D02*
X87767D01*
X88556Y10974D02*
X88950D01*
X89003Y11000D02*
X89134D01*
X88608Y11158D02*
X88950D01*
X88582Y11105D02*
X88950D01*
X88582Y11000D02*
X88950D01*
X89029Y11026D02*
X89161D01*
X88582D02*
X88950D01*
X89082Y11132D02*
X89213D01*
X88608Y11210D02*
X88976D01*
X88582Y11079D02*
X88950D01*
X89082Y11105D02*
X89213D01*
X88608Y11184D02*
X88950D01*
X89055Y11053D02*
X89161D01*
X88608Y11132D02*
X88950D01*
X88582Y11053D02*
X88950D01*
X89055Y11079D02*
X89187D01*
X94736Y11132D02*
X95051D01*
X89134Y11210D02*
X89292D01*
X88030Y11184D02*
X88135D01*
X85505Y11158D02*
X87767D01*
X94551Y11237D02*
X94972D01*
X94683Y11158D02*
X95025D01*
X88608Y11263D02*
X88976D01*
X89108Y11158D02*
X89240D01*
X94604Y11210D02*
X94999D01*
X89765Y11158D02*
X92737D01*
X88608Y11237D02*
X88976D01*
X85505Y11184D02*
X87740D01*
X85532Y11210D02*
X87740D01*
X94630Y11184D02*
X95025D01*
X94499Y11263D02*
X94972D01*
X89765Y11132D02*
X92790D01*
X89713Y10947D02*
X93105D01*
X89739Y11000D02*
X93000D01*
X89765Y11105D02*
X92816D01*
X94788D02*
X95051D01*
Y10947D02*
X95156D01*
X89739Y11026D02*
X92974D01*
X89686Y11316D02*
X89871D01*
X89976D02*
X92448D01*
X90002Y11342D02*
X92422D01*
X90028Y11368D02*
X92369D01*
X89240Y11342D02*
X89397D01*
X89292Y11394D02*
X89818D01*
X89608Y11368D02*
X89844D01*
X89660Y11342D02*
X89844D01*
X89266Y11368D02*
X89450D01*
X90055Y11394D02*
X92316D01*
X89318Y11421D02*
X89792D01*
X90081D02*
X92290D01*
X89950Y11289D02*
X92500D01*
X85663Y11421D02*
X87688D01*
X85610Y11342D02*
X88030D01*
X89713Y11289D02*
X89871D01*
X85584Y11316D02*
X88056D01*
X89213D02*
X89371D01*
X88608Y11289D02*
X88976D01*
X85584D02*
X88082D01*
X85637Y11394D02*
X87714D01*
X87872Y11368D02*
X88004D01*
X89187Y11289D02*
X89345D01*
X85637Y11368D02*
X87740D01*
X85663Y11447D02*
X87662D01*
X88556Y11473D02*
X88976D01*
X85689D02*
X87662D01*
X89397D02*
X89713D01*
X90107D02*
X92185D01*
X88556Y11447D02*
X88976D01*
X94183D02*
X94867D01*
X89345D02*
X89765D01*
X90107D02*
X92237D01*
X94131Y11473D02*
X94841D01*
X93421Y11894D02*
X94604D01*
X90476Y11868D02*
X91501D01*
X90449Y11841D02*
X91554D01*
X93368Y11920D02*
X94578D01*
X93500Y11841D02*
X94630D01*
X93447Y11868D02*
X94630D01*
X93868Y11631D02*
X94762D01*
X88477D02*
X89003D01*
X90239D02*
X91922D01*
X85768D02*
X87583D01*
X93684Y11736D02*
X94683D01*
X93631Y11763D02*
X94683D01*
X90344Y11736D02*
X91738D01*
X88819Y11815D02*
X89055D01*
X93579Y11789D02*
X94657D01*
X93552Y11815D02*
X94657D01*
X88503Y11605D02*
X89003D01*
X90212Y11579D02*
X92001D01*
X85742D02*
X87609D01*
X93947D02*
X94788D01*
X88530D02*
X89003D01*
X93920Y11605D02*
X94762D01*
X90239D02*
X91948D01*
X85768D02*
X87609D01*
X93316Y11947D02*
X94578D01*
X85952Y11920D02*
X87504D01*
X88319Y11841D02*
X88530D01*
X85926Y11894D02*
X87530D01*
X85873Y11815D02*
X87530D01*
X88398Y11736D02*
X88556D01*
X88319Y11815D02*
X88530D01*
X85873Y11789D02*
X87556D01*
X90423Y11815D02*
X91606D01*
X90397Y11789D02*
X91632D01*
X85847Y11763D02*
X87556D01*
X88766Y11736D02*
X89029D01*
X88819Y11789D02*
X89055D01*
X90370Y11763D02*
X91685D01*
X88792D02*
X89029D01*
X88372D02*
X88556D01*
X85847Y11736D02*
X87556D01*
X88345Y11789D02*
X88530D01*
X90134Y11500D02*
X92132D01*
X89476D02*
X89634D01*
X90186Y11552D02*
X92053D01*
X88530D02*
X89003D01*
X94052Y11526D02*
X94815D01*
X90160D02*
X92106D01*
X93999Y11552D02*
X94788D01*
X85742D02*
X87609D01*
X85716Y11526D02*
X87635D01*
X88530D02*
X89003D01*
X94104Y11500D02*
X94841D01*
X88556D02*
X88976D01*
X85689D02*
X87635D01*
X85952Y11947D02*
X87504D01*
X88319D02*
X88503D01*
X88319Y11868D02*
X88503D01*
X88319Y11894D02*
X88503D01*
X85900Y11868D02*
X87530D01*
X88871Y11894D02*
X89108D01*
X88898Y11920D02*
X89108D01*
X90502Y11894D02*
X91448D01*
X88845Y11841D02*
X89082D01*
X90554Y11947D02*
X91370D01*
X90528Y11920D02*
X91422D01*
X85900Y11841D02*
X87530D01*
X88871Y11868D02*
X89082D01*
X88898Y11947D02*
X89134D01*
X88319Y11920D02*
X88503D01*
X85821Y11710D02*
X87556D01*
X88714D02*
X89029D01*
X85794Y11657D02*
X87583D01*
X85794Y11684D02*
X87583D01*
X90318Y11710D02*
X91764D01*
X90265Y11657D02*
X91869D01*
X88424Y11710D02*
X88582D01*
X88661Y11684D02*
X89003D01*
X88477Y11657D02*
X89003D01*
X88451Y11684D02*
X88608D01*
X90291D02*
X91817D01*
X93736Y11710D02*
X94709D01*
X93815Y11657D02*
X94736D01*
X93763Y11684D02*
X94736D01*
X90186Y19257D02*
X90344D01*
X88582Y16496D02*
X91948D01*
X90160Y19205D02*
X90370D01*
X90081Y19073D02*
X90449D01*
X89213Y17601D02*
X91317D01*
X90134Y19152D02*
X90397D01*
X90081Y19100D02*
X90449D01*
X89213Y17574D02*
X91317D01*
X90055Y19047D02*
X90476D01*
X89187Y17548D02*
X91343D01*
X90134Y19179D02*
X90397D01*
X90160Y19231D02*
X90370D01*
X88608Y16522D02*
X91922D01*
X90107Y19126D02*
X90423D01*
X85111Y10474D02*
X93920D01*
X84927Y10185D02*
X94420D01*
X84927Y10158D02*
X94473D01*
X85006Y10290D02*
X94236D01*
X85084Y10422D02*
X93999D01*
X85058Y10369D02*
X94104D01*
X85084Y10448D02*
X93973D01*
X85032Y10343D02*
X94157D01*
X85058Y10395D02*
X94052D01*
X85137Y10527D02*
X93815D01*
X84953Y10211D02*
X94368D01*
X85006Y10316D02*
X94183D01*
X85111Y10500D02*
X93868D01*
X84979Y10237D02*
X94341D01*
X84979Y10264D02*
X94289D01*
X84848Y10001D02*
X94736D01*
X84900Y10106D02*
X94551D01*
X84900Y10132D02*
X94499D01*
X84874Y10080D02*
X94604D01*
X84848Y10027D02*
X94683D01*
X84874Y10053D02*
X94657D01*
X90239Y19336D02*
X90291D01*
X90212Y19310D02*
X90318D01*
X90239Y19362D02*
X90291D01*
X90186Y19284D02*
X90344D01*
X89581Y18205D02*
X90949D01*
X89660Y18363D02*
X90870D01*
X89502Y18100D02*
X91028D01*
X89502Y18074D02*
X91028D01*
X89581Y18232D02*
X90949D01*
X89634Y18311D02*
X90896D01*
X89529Y18127D02*
X91001D01*
X89608Y18258D02*
X90922D01*
X89555Y18153D02*
X90975D01*
X89660Y18337D02*
X90870D01*
X89608Y18284D02*
X90922D01*
X89555Y18179D02*
X90975D01*
X90055Y19021D02*
X90476D01*
X89713Y18442D02*
X90817D01*
X89686Y18416D02*
X90844D01*
X89476Y18048D02*
X91054D01*
X89686Y18390D02*
X90844D01*
X89476Y18021D02*
X91054D01*
X90028Y18994D02*
X90502D01*
X90002Y18968D02*
X90528D01*
X89739Y18468D02*
X90791D01*
X89871Y18705D02*
X90660D01*
X89844Y18652D02*
X90686D01*
X89897Y18784D02*
X90633D01*
X89897Y18758D02*
X90633D01*
X89818Y18626D02*
X90712D01*
X89923Y18810D02*
X90607D01*
X89765Y18547D02*
X90765D01*
X89792Y18600D02*
X90738D01*
X89739Y18495D02*
X90791D01*
X89844Y18679D02*
X90686D01*
X89765Y18521D02*
X90765D01*
X89871Y18731D02*
X90660D01*
X89792Y18574D02*
X90738D01*
X89240Y17627D02*
X91291D01*
X89371Y17837D02*
X91159D01*
X89292Y17706D02*
X91238D01*
X89318Y17758D02*
X91212D01*
X89292Y17732D02*
X91238D01*
X89450Y17995D02*
X91080D01*
X89266Y17653D02*
X91264D01*
X89450Y17969D02*
X91080D01*
X89266Y17680D02*
X91264D01*
X89318Y17785D02*
X91186D01*
X89397Y17916D02*
X91133D01*
X89424Y17943D02*
X91107D01*
X89397Y17890D02*
X91133D01*
X89371Y17864D02*
X91159D01*
X89345Y17811D02*
X91186D01*
X89976Y18889D02*
X90554D01*
X89950Y18837D02*
X90581D01*
X89976Y18915D02*
X90554D01*
X89950Y18863D02*
X90581D01*
X90002Y18942D02*
X90528D01*
X90581Y11973D02*
X91317D01*
X93237Y11999D02*
X94551D01*
X90607D02*
X91264D01*
X88898Y11973D02*
X89161D01*
X93263D02*
X94551D01*
X93184Y12026D02*
X94525D01*
X90660Y12052D02*
X91186D01*
X93079Y12078D02*
X94499D01*
X90686D02*
X91133D01*
X93132Y12052D02*
X94499D01*
X90633Y12026D02*
X91238D01*
X93053Y12105D02*
X94473D01*
X90712D02*
X91080D01*
X88319Y12262D02*
X88530D01*
X88319Y12131D02*
X88503D01*
X88319Y12157D02*
X88503D01*
X89108Y12210D02*
X89345D01*
X92816Y12236D02*
X94394D01*
X93000Y12131D02*
X94473D01*
X88898D02*
X89266D01*
X90738D02*
X91054D01*
X88898Y12157D02*
X89292D01*
X92763Y12262D02*
X94394D01*
X92895Y12183D02*
X94446D01*
X89134Y12262D02*
X89397D01*
X92947Y12157D02*
X94446D01*
X89134Y12236D02*
X89371D01*
X92684Y12315D02*
X94368D01*
X92868Y12210D02*
X94420D01*
X86163Y12289D02*
X87425D01*
X92711D02*
X94368D01*
X90791Y12183D02*
X90949D01*
X89161Y12289D02*
X89424D01*
X90844Y12210D02*
X90922D01*
X88871Y12289D02*
X88976D01*
X88871Y12262D02*
X89003D01*
X90765Y12157D02*
X91001D01*
X86110Y12210D02*
X87451D01*
X86084Y12183D02*
X87451D01*
X86084Y12157D02*
X87451D01*
X88319Y12289D02*
X88530D01*
X86136Y12262D02*
X87425D01*
X85979Y11999D02*
X87504D01*
X88319Y12026D02*
X88503D01*
X88319Y11999D02*
X88503D01*
X88924Y12026D02*
X89187D01*
X85979Y11973D02*
X87504D01*
X88898Y11999D02*
X89161D01*
X88319Y11973D02*
X88503D01*
X86005Y12026D02*
X87504D01*
X86136Y12236D02*
X87451D01*
X88898Y12183D02*
X89318D01*
X88319Y12210D02*
X88530D01*
X88319Y12183D02*
X88530D01*
X88898Y12236D02*
X89003D01*
X88319D02*
X88530D01*
X88898Y12210D02*
X89029D01*
X86058Y12131D02*
X87478D01*
X86031Y12078D02*
X87478D01*
X88319Y12052D02*
X88503D01*
X86058Y12105D02*
X87478D01*
X88924Y12052D02*
X89213D01*
X88319Y12105D02*
X88503D01*
X88924Y12078D02*
X89240D01*
X86031Y12052D02*
X87478D01*
X88924Y12105D02*
X89266D01*
X88319Y12078D02*
X88503D01*
M02*
