G04*
G04 #@! TF.GenerationSoftware,Altium Limited,Altium Designer,22.9.1 (49)*
G04*
G04 Layer_Color=8388736*
%FSLAX44Y44*%
%MOMM*%
G71*
G04*
G04 #@! TF.SameCoordinates,28A18DAE-CB9E-4B37-A36C-106CF66A5601*
G04*
G04*
G04 #@! TF.FilePolarity,Negative*
G04*
G01*
G75*
G04:AMPARAMS|DCode=15|XSize=1.8132mm|YSize=0.7832mm|CornerRadius=0.1741mm|HoleSize=0mm|Usage=FLASHONLY|Rotation=90.000|XOffset=0mm|YOffset=0mm|HoleType=Round|Shape=RoundedRectangle|*
%AMROUNDEDRECTD15*
21,1,1.8132,0.4350,0,0,90.0*
21,1,1.4650,0.7832,0,0,90.0*
1,1,0.3482,0.2175,0.7325*
1,1,0.3482,0.2175,-0.7325*
1,1,0.3482,-0.2175,-0.7325*
1,1,0.3482,-0.2175,0.7325*
%
%ADD15ROUNDEDRECTD15*%
%ADD16R,1.5032X1.6032*%
%ADD17C,0.2032*%
%ADD18C,1.7032*%
%ADD19R,1.7032X1.7032*%
%ADD20C,0.8032*%
D15*
X82931Y72980D02*
D03*
X95631D02*
D03*
X108331D02*
D03*
X121031D02*
D03*
Y145080D02*
D03*
X108331D02*
D03*
X95631D02*
D03*
X82931D02*
D03*
D16*
X99000Y167000D02*
D03*
X83000D02*
D03*
D17*
X109000Y198000D02*
D03*
Y29000D02*
D03*
D18*
X26900Y150090D02*
D03*
Y124690D02*
D03*
Y99290D02*
D03*
Y73890D02*
D03*
Y48490D02*
D03*
Y23090D02*
D03*
Y175490D02*
D03*
D19*
Y200890D02*
D03*
D20*
X67000Y132000D02*
D03*
X50000Y73000D02*
D03*
M02*
