G04*
G04 #@! TF.GenerationSoftware,Altium Limited,Altium Designer,22.9.1 (49)*
G04*
G04 Layer_Physical_Order=1*
G04 Layer_Color=255*
%FSLAX44Y44*%
%MOMM*%
G71*
G04*
G04 #@! TF.SameCoordinates,28A18DAE-CB9E-4B37-A36C-106CF66A5601*
G04*
G04*
G04 #@! TF.FilePolarity,Positive*
G04*
G01*
G75*
G04:AMPARAMS|DCode=13|XSize=1.61mm|YSize=0.58mm|CornerRadius=0.0725mm|HoleSize=0mm|Usage=FLASHONLY|Rotation=90.000|XOffset=0mm|YOffset=0mm|HoleType=Round|Shape=RoundedRectangle|*
%AMROUNDEDRECTD13*
21,1,1.6100,0.4350,0,0,90.0*
21,1,1.4650,0.5800,0,0,90.0*
1,1,0.1450,0.2175,0.7325*
1,1,0.1450,0.2175,-0.7325*
1,1,0.1450,-0.2175,-0.7325*
1,1,0.1450,-0.2175,0.7325*
%
%ADD13ROUNDEDRECTD13*%
%ADD14R,1.3000X1.4000*%
%ADD21C,0.3000*%
%ADD22C,0.5000*%
%ADD23C,1.5000*%
%ADD24R,1.5000X1.5000*%
%ADD25C,0.6000*%
G36*
X22647Y218881D02*
X115257D01*
X116520Y218864D01*
X117747Y218759D01*
X119747Y218495D01*
X122770Y217243D01*
X125366Y215251D01*
X127358Y212655D01*
X128611Y209631D01*
X128970Y206900D01*
X128881Y206451D01*
Y20120D01*
X128982Y19609D01*
X128643Y17030D01*
X127391Y14006D01*
X125399Y11410D01*
X122802Y9418D01*
X119779Y8166D01*
X117204Y7827D01*
X116690Y7929D01*
X22432D01*
X22151Y7873D01*
X19253Y8255D01*
X16230Y9507D01*
X13634Y11499D01*
X11642Y14095D01*
X10389Y17119D01*
X10034Y19816D01*
X10119Y20242D01*
Y205257D01*
X10136Y206520D01*
X10242Y207747D01*
X10505Y209747D01*
X11757Y212770D01*
X13749Y215366D01*
X16345Y217358D01*
X19369Y218611D01*
X22159Y218978D01*
X22647Y218881D01*
D02*
G37*
%LPC*%
G36*
X110728Y215540D02*
X107273D01*
X103884Y214866D01*
X100692Y213544D01*
X97819Y211624D01*
X95376Y209181D01*
X93456Y206308D01*
X92134Y203116D01*
X91460Y199727D01*
Y196273D01*
X92134Y192884D01*
X93456Y189692D01*
X95376Y186819D01*
X97819Y184376D01*
X100692Y182456D01*
X103884Y181134D01*
X107273Y180460D01*
X110728D01*
X114116Y181134D01*
X117308Y182456D01*
X120181Y184376D01*
X122624Y186819D01*
X124544Y189692D01*
X125866Y192884D01*
X126540Y196273D01*
Y199727D01*
X125866Y203116D01*
X124544Y206308D01*
X122624Y209181D01*
X120181Y211624D01*
X117308Y213544D01*
X114116Y214866D01*
X110728Y215540D01*
D02*
G37*
G36*
X28222Y185530D02*
X28170D01*
Y176760D01*
X36940D01*
Y176812D01*
X36256Y179365D01*
X34934Y181655D01*
X33065Y183524D01*
X30775Y184846D01*
X28222Y185530D01*
D02*
G37*
G36*
X25630D02*
X25578D01*
X23025Y184846D01*
X20735Y183524D01*
X18866Y181655D01*
X17544Y179365D01*
X16860Y176812D01*
Y176760D01*
X25630D01*
Y185530D01*
D02*
G37*
G36*
X108040Y176540D02*
X100270D01*
Y168270D01*
X108040D01*
Y176540D01*
D02*
G37*
G36*
X36940Y174220D02*
X28170D01*
Y165450D01*
X28222D01*
X30775Y166134D01*
X33065Y167456D01*
X34934Y169325D01*
X36256Y171615D01*
X36940Y174168D01*
Y174220D01*
D02*
G37*
G36*
X25630D02*
X16860D01*
Y174168D01*
X17544Y171615D01*
X18866Y169325D01*
X20735Y167456D01*
X23025Y166134D01*
X25578Y165450D01*
X25630D01*
Y174220D01*
D02*
G37*
G36*
X108040Y165730D02*
X100270D01*
Y157460D01*
X108040D01*
Y165730D01*
D02*
G37*
G36*
X28222Y160130D02*
X25578D01*
X23025Y159446D01*
X20735Y158124D01*
X18866Y156255D01*
X17544Y153965D01*
X16860Y151412D01*
Y148768D01*
X17544Y146215D01*
X18866Y143925D01*
X20735Y142056D01*
X23025Y140734D01*
X25578Y140050D01*
X28222D01*
X30775Y140734D01*
X33065Y142056D01*
X34934Y143925D01*
X36256Y146215D01*
X36940Y148768D01*
Y151412D01*
X36256Y153965D01*
X34934Y156255D01*
X33065Y158124D01*
X30775Y159446D01*
X28222Y160130D01*
D02*
G37*
G36*
X36940Y210930D02*
X16860D01*
Y190850D01*
X36940D01*
Y195516D01*
X36976Y195530D01*
X37352Y195631D01*
X37884Y195719D01*
X38254Y195751D01*
X47481D01*
X72030Y171203D01*
X72871Y170297D01*
X73464Y169556D01*
X73915Y168908D01*
X73960Y168829D01*
Y166995D01*
X73941Y166898D01*
X73960Y166801D01*
Y157460D01*
X77591D01*
X77606Y157424D01*
X77706Y157048D01*
X77794Y156516D01*
X77827Y156146D01*
Y155437D01*
X77790Y154465D01*
X77719Y153737D01*
X77680Y153679D01*
X77427Y152405D01*
Y137755D01*
X77500Y137389D01*
X76511Y136119D01*
X73847D01*
X71920Y136185D01*
X70791Y136294D01*
X70492Y136343D01*
X70138Y136697D01*
X68102Y137540D01*
X65898D01*
X63862Y136697D01*
X62303Y135138D01*
X61460Y133102D01*
Y130898D01*
X61799Y130079D01*
X60951Y128809D01*
X47298D01*
X46801Y128817D01*
X42414Y129111D01*
X40581Y129356D01*
X38937Y129670D01*
X37510Y130041D01*
X36307Y130459D01*
X35332Y130911D01*
X34582Y131375D01*
X33871Y131975D01*
X33742Y132046D01*
X33065Y132724D01*
X30775Y134046D01*
X28222Y134730D01*
X25578D01*
X23025Y134046D01*
X20735Y132724D01*
X18866Y130855D01*
X17544Y128565D01*
X16860Y126012D01*
Y123368D01*
X17544Y120815D01*
X18866Y118525D01*
X20735Y116656D01*
X23025Y115334D01*
X25578Y114650D01*
X28222D01*
X30775Y115334D01*
X33065Y116656D01*
X33742Y117334D01*
X33871Y117405D01*
X34582Y118005D01*
X35332Y118469D01*
X36307Y118921D01*
X37510Y119339D01*
X38937Y119710D01*
X40523Y120012D01*
X46827Y120564D01*
X47298Y120571D01*
X102690D01*
X104266Y120884D01*
X105603Y121777D01*
X111244Y127418D01*
X112137Y128755D01*
X112450Y130331D01*
Y134628D01*
X112453Y134658D01*
X112486Y134884D01*
X112523Y135052D01*
X112558Y135163D01*
X112569Y135188D01*
X112595Y135209D01*
X112627Y135245D01*
X112860Y135401D01*
X113190Y135896D01*
X113257Y135973D01*
X113272Y136018D01*
X113582Y136481D01*
X113835Y137755D01*
Y152405D01*
X113582Y153679D01*
X112860Y154759D01*
X111780Y155481D01*
X110506Y155734D01*
X106156D01*
X104882Y155481D01*
X103802Y154759D01*
X103080Y153679D01*
X102827Y152405D01*
Y137755D01*
X103080Y136481D01*
X103390Y136018D01*
X103405Y135973D01*
X103472Y135896D01*
X103802Y135401D01*
X104035Y135245D01*
X104067Y135209D01*
X104094Y135188D01*
X104104Y135163D01*
X104139Y135052D01*
X104176Y134884D01*
X104209Y134658D01*
X104212Y134628D01*
Y132037D01*
X100984Y128809D01*
X98304D01*
X97778Y130079D01*
X98544Y130845D01*
X99437Y132181D01*
X99750Y133757D01*
Y134628D01*
X99753Y134658D01*
X99786Y134884D01*
X99823Y135052D01*
X99858Y135163D01*
X99868Y135188D01*
X99895Y135209D01*
X99927Y135245D01*
X100160Y135401D01*
X100490Y135896D01*
X100557Y135973D01*
X100572Y136018D01*
X100882Y136481D01*
X101135Y137755D01*
Y152405D01*
X100882Y153679D01*
X100160Y154759D01*
X99080Y155481D01*
X97806Y155734D01*
X93456D01*
X92182Y155481D01*
X91102Y154759D01*
X90380Y153679D01*
X90127Y152405D01*
Y137755D01*
X89281Y137191D01*
X89249Y137212D01*
X88435Y138207D01*
Y152405D01*
X88343Y152865D01*
X88155Y156266D01*
X88999Y157460D01*
X97730D01*
Y167000D01*
Y176540D01*
X83699D01*
X83602Y176559D01*
X83505Y176540D01*
X81671D01*
X81592Y176585D01*
X80974Y177015D01*
X79531Y178236D01*
X53244Y204524D01*
X51576Y205638D01*
X49610Y206029D01*
X38254D01*
X37884Y206061D01*
X37352Y206149D01*
X36976Y206250D01*
X36940Y206264D01*
Y210930D01*
D02*
G37*
G36*
X123206Y155734D02*
X118856D01*
X117582Y155481D01*
X116502Y154759D01*
X115780Y153679D01*
X115527Y152405D01*
Y137755D01*
X115780Y136481D01*
X116090Y136018D01*
X116105Y135973D01*
X116172Y135896D01*
X116502Y135401D01*
X116735Y135245D01*
X116767Y135209D01*
X116793Y135188D01*
X116804Y135163D01*
X116839Y135052D01*
X116876Y134884D01*
X116909Y134658D01*
X116912Y134628D01*
Y126737D01*
X93584Y103409D01*
X47298D01*
X46801Y103417D01*
X42414Y103711D01*
X40581Y103956D01*
X38937Y104270D01*
X37510Y104641D01*
X36307Y105059D01*
X35332Y105511D01*
X34582Y105975D01*
X33871Y106575D01*
X33742Y106646D01*
X33065Y107324D01*
X30775Y108646D01*
X28222Y109330D01*
X25578D01*
X23025Y108646D01*
X20735Y107324D01*
X18866Y105455D01*
X17544Y103165D01*
X16860Y100612D01*
Y97968D01*
X17544Y95415D01*
X18866Y93125D01*
X20735Y91256D01*
X23025Y89934D01*
X25578Y89250D01*
X28222D01*
X30775Y89934D01*
X33065Y91256D01*
X33742Y91934D01*
X33871Y92005D01*
X34582Y92605D01*
X35332Y93069D01*
X36307Y93521D01*
X37510Y93939D01*
X38937Y94310D01*
X40523Y94612D01*
X46827Y95164D01*
X47298Y95171D01*
X95290D01*
X96866Y95484D01*
X98203Y96377D01*
X123944Y122118D01*
X124837Y123455D01*
X125150Y125031D01*
Y134628D01*
X125153Y134658D01*
X125186Y134884D01*
X125223Y135052D01*
X125258Y135163D01*
X125268Y135188D01*
X125295Y135209D01*
X125327Y135245D01*
X125560Y135401D01*
X125890Y135896D01*
X125957Y135973D01*
X125972Y136018D01*
X126282Y136481D01*
X126535Y137755D01*
Y152405D01*
X126282Y153679D01*
X125560Y154759D01*
X124480Y155481D01*
X123206Y155734D01*
D02*
G37*
G36*
Y83634D02*
X122301D01*
Y74250D01*
X126535D01*
Y80305D01*
X126282Y81579D01*
X125560Y82659D01*
X124480Y83381D01*
X123206Y83634D01*
D02*
G37*
G36*
X119761D02*
X118856D01*
X117582Y83381D01*
X116502Y82659D01*
X115780Y81579D01*
X115527Y80305D01*
Y74250D01*
X119761D01*
Y83634D01*
D02*
G37*
G36*
X126535Y71710D02*
X122301D01*
Y62326D01*
X123206D01*
X124480Y62579D01*
X125560Y63301D01*
X126282Y64381D01*
X126535Y65655D01*
Y71710D01*
D02*
G37*
G36*
X119761D02*
X115527D01*
Y65655D01*
X115780Y64381D01*
X116502Y63301D01*
X117582Y62579D01*
X118856Y62326D01*
X119761D01*
Y71710D01*
D02*
G37*
G36*
X91000Y92119D02*
X41010D01*
X39434Y91806D01*
X38097Y90913D01*
X37637Y90453D01*
X35377Y88373D01*
X34099Y87358D01*
X32841Y86468D01*
X31630Y85721D01*
X30468Y85113D01*
X29358Y84640D01*
X28301Y84296D01*
X27298Y84075D01*
X26197Y83952D01*
X26127Y83930D01*
X25578D01*
X23025Y83246D01*
X20735Y81924D01*
X18866Y80055D01*
X17544Y77765D01*
X16860Y75212D01*
Y72568D01*
X17544Y70015D01*
X18866Y67725D01*
X20735Y65856D01*
X23025Y64534D01*
X25578Y63850D01*
X28222D01*
X30775Y64534D01*
X33065Y65856D01*
X34934Y67725D01*
X36256Y70015D01*
X36940Y72568D01*
Y73117D01*
X36962Y73187D01*
X37085Y74288D01*
X37306Y75291D01*
X37650Y76348D01*
X38123Y77458D01*
X38731Y78620D01*
X39478Y79831D01*
X40349Y81062D01*
X42601Y83753D01*
X42724Y83881D01*
X77945D01*
X78314Y82895D01*
X78370Y82611D01*
X77680Y81579D01*
X77427Y80305D01*
Y77119D01*
X56847D01*
X54920Y77185D01*
X53791Y77294D01*
X53492Y77343D01*
X53138Y77697D01*
X51102Y78540D01*
X48898D01*
X46862Y77697D01*
X45303Y76138D01*
X44460Y74102D01*
Y71898D01*
X45303Y69862D01*
X46862Y68303D01*
X48898Y67460D01*
X51102D01*
X53138Y68303D01*
X53467Y68633D01*
X57215Y68881D01*
X77427D01*
Y65655D01*
X77680Y64381D01*
X78402Y63301D01*
X79482Y62579D01*
X80756Y62326D01*
X85106D01*
X86380Y62579D01*
X87460Y63301D01*
X88182Y64381D01*
X88435Y65655D01*
Y80305D01*
X88182Y81579D01*
X87492Y82611D01*
X87548Y82895D01*
X87917Y83881D01*
X89294D01*
X90867Y82308D01*
X90752Y82136D01*
X90692Y82065D01*
X90680Y82027D01*
X90380Y81579D01*
X90127Y80305D01*
Y65655D01*
X90380Y64381D01*
X91102Y63301D01*
X92182Y62579D01*
X93456Y62326D01*
X97806D01*
X99080Y62579D01*
X100160Y63301D01*
X100882Y64381D01*
X101135Y65655D01*
Y80305D01*
X100882Y81579D01*
X100160Y82659D01*
X99500Y83100D01*
Y83619D01*
X99186Y85196D01*
X98294Y86532D01*
X93913Y90913D01*
X92576Y91806D01*
X91000Y92119D01*
D02*
G37*
G36*
X110506Y83634D02*
X106156D01*
X104882Y83381D01*
X103802Y82659D01*
X103080Y81579D01*
X102827Y80305D01*
Y65655D01*
X103080Y64381D01*
X103390Y63918D01*
X103405Y63873D01*
X103472Y63796D01*
X103802Y63301D01*
X104035Y63145D01*
X104067Y63109D01*
X104094Y63088D01*
X104104Y63063D01*
X104139Y62952D01*
X104176Y62784D01*
X104209Y62558D01*
X104212Y62527D01*
Y61037D01*
X95784Y52609D01*
X47298D01*
X46801Y52617D01*
X42414Y52911D01*
X40581Y53156D01*
X38937Y53470D01*
X37510Y53841D01*
X36307Y54259D01*
X35332Y54711D01*
X34582Y55175D01*
X33871Y55775D01*
X33742Y55846D01*
X33065Y56524D01*
X30775Y57846D01*
X28222Y58530D01*
X25578D01*
X23025Y57846D01*
X20735Y56524D01*
X18866Y54655D01*
X17544Y52365D01*
X16860Y49812D01*
Y47168D01*
X17544Y44615D01*
X18866Y42325D01*
X20735Y40456D01*
X23025Y39134D01*
X25578Y38450D01*
X28222D01*
X30775Y39134D01*
X33065Y40456D01*
X33742Y41134D01*
X33871Y41205D01*
X34582Y41805D01*
X35332Y42269D01*
X36307Y42721D01*
X37510Y43139D01*
X38937Y43510D01*
X40523Y43812D01*
X46827Y44364D01*
X47298Y44371D01*
X97490D01*
X98426Y44557D01*
X98921Y43361D01*
X97819Y42624D01*
X95376Y40181D01*
X93456Y37308D01*
X92134Y34116D01*
X91460Y30728D01*
Y27273D01*
X92134Y23884D01*
X93456Y20692D01*
X95376Y17819D01*
X97819Y15376D01*
X100692Y13456D01*
X103884Y12134D01*
X107273Y11460D01*
X110728D01*
X114116Y12134D01*
X117308Y13456D01*
X120181Y15376D01*
X122624Y17819D01*
X124544Y20692D01*
X125866Y23884D01*
X126540Y27273D01*
Y30728D01*
X125866Y34116D01*
X124544Y37308D01*
X122624Y40181D01*
X120181Y42624D01*
X117308Y44544D01*
X114116Y45866D01*
X110728Y46540D01*
X107273D01*
X103884Y45866D01*
X101500Y44879D01*
X100780Y45955D01*
X111244Y56418D01*
X112137Y57755D01*
X112450Y59331D01*
Y62527D01*
X112453Y62558D01*
X112486Y62784D01*
X112523Y62952D01*
X112558Y63063D01*
X112569Y63088D01*
X112595Y63109D01*
X112627Y63145D01*
X112860Y63301D01*
X113190Y63796D01*
X113257Y63873D01*
X113272Y63918D01*
X113582Y64381D01*
X113835Y65655D01*
Y80305D01*
X113582Y81579D01*
X112860Y82659D01*
X111780Y83381D01*
X110506Y83634D01*
D02*
G37*
G36*
X28222Y33130D02*
X25578D01*
X23025Y32446D01*
X20735Y31124D01*
X18866Y29255D01*
X17544Y26965D01*
X16860Y24412D01*
Y21768D01*
X17544Y19215D01*
X18866Y16925D01*
X20735Y15056D01*
X23025Y13734D01*
X25578Y13050D01*
X28222D01*
X30775Y13734D01*
X33065Y15056D01*
X34934Y16925D01*
X36256Y19215D01*
X36940Y21768D01*
Y24412D01*
X36256Y26965D01*
X34934Y29255D01*
X33065Y31124D01*
X30775Y32446D01*
X28222Y33130D01*
D02*
G37*
%LPD*%
G36*
X34389Y205415D02*
X34540Y204990D01*
X34792Y204615D01*
X35144Y204290D01*
X35597Y204015D01*
X36150Y203790D01*
X36804Y203615D01*
X37559Y203490D01*
X38414Y203415D01*
X39369Y203390D01*
Y198390D01*
X38414Y198365D01*
X37559Y198290D01*
X36804Y198165D01*
X36150Y197990D01*
X35597Y197765D01*
X35144Y197490D01*
X34792Y197165D01*
X34540Y196790D01*
X34389Y196365D01*
X34339Y195890D01*
Y205890D01*
X34389Y205415D01*
D02*
G37*
G36*
X77556Y176515D02*
X79394Y174959D01*
X80208Y174394D01*
X80950Y173969D01*
X81622Y173687D01*
X82223Y173545D01*
X82753D01*
X83213Y173687D01*
X83602Y173969D01*
X76530Y166898D01*
X76813Y167287D01*
X76955Y167747D01*
Y168277D01*
X76813Y168878D01*
X76530Y169550D01*
X76106Y170292D01*
X75541Y171106D01*
X74833Y171990D01*
X72995Y173969D01*
X76530Y177505D01*
X77556Y176515D01*
D02*
G37*
G36*
X87491Y160011D02*
X87065Y159860D01*
X86691Y159608D01*
X86365Y159256D01*
X86090Y158803D01*
X85865Y158250D01*
X85690Y157596D01*
X85566Y156841D01*
X85543Y156591D01*
X85760Y152676D01*
X80102D01*
X80171Y152828D01*
X80233Y153065D01*
X80287Y153388D01*
X80375Y154291D01*
X80440Y155995D01*
X80365Y156841D01*
X80240Y157596D01*
X80065Y158250D01*
X79840Y158803D01*
X79566Y159256D01*
X79240Y159608D01*
X78865Y159860D01*
X78440Y160011D01*
X77965Y160061D01*
X87965D01*
X87491Y160011D01*
D02*
G37*
G36*
X110783Y137081D02*
X110583Y136875D01*
X110407Y136636D01*
X110254Y136364D01*
X110125Y136060D01*
X110019Y135723D01*
X109937Y135353D01*
X109878Y134950D01*
X109843Y134515D01*
X109831Y134047D01*
X106831D01*
X106819Y134515D01*
X106784Y134950D01*
X106725Y135353D01*
X106643Y135723D01*
X106537Y136060D01*
X106408Y136364D01*
X106255Y136636D01*
X106079Y136875D01*
X105879Y137081D01*
X105655Y137254D01*
X111007D01*
X110783Y137081D01*
D02*
G37*
G36*
X98083D02*
X97883Y136875D01*
X97707Y136636D01*
X97554Y136364D01*
X97425Y136060D01*
X97319Y135723D01*
X97237Y135353D01*
X97178Y134950D01*
X97143Y134515D01*
X97131Y134047D01*
X94131D01*
X94119Y134515D01*
X94084Y134950D01*
X94025Y135353D01*
X93943Y135723D01*
X93837Y136060D01*
X93708Y136364D01*
X93555Y136636D01*
X93379Y136875D01*
X93179Y137081D01*
X92955Y137254D01*
X98307D01*
X98083Y137081D01*
D02*
G37*
G36*
X69297Y134004D02*
X69579Y133898D01*
X69965Y133805D01*
X70456Y133724D01*
X71751Y133600D01*
X74479Y133506D01*
X75598Y133500D01*
Y130500D01*
X74479Y130494D01*
X69965Y130195D01*
X69579Y130101D01*
X69297Y129996D01*
X69120Y129877D01*
Y134123D01*
X69297Y134004D01*
D02*
G37*
G36*
X33057Y129273D02*
X34102Y128626D01*
X35335Y128055D01*
X36757Y127560D01*
X38368Y127142D01*
X40167Y126799D01*
X42155Y126533D01*
X46695Y126228D01*
X49248Y126190D01*
Y123190D01*
X46695Y123152D01*
X40167Y122581D01*
X38368Y122238D01*
X36757Y121820D01*
X35335Y121325D01*
X34102Y120754D01*
X33057Y120107D01*
X32200Y119383D01*
Y129997D01*
X33057Y129273D01*
D02*
G37*
G36*
X123483Y137081D02*
X123283Y136875D01*
X123107Y136636D01*
X122954Y136364D01*
X122825Y136060D01*
X122719Y135723D01*
X122637Y135353D01*
X122578Y134950D01*
X122543Y134515D01*
X122531Y134047D01*
X119531D01*
X119519Y134515D01*
X119484Y134950D01*
X119425Y135353D01*
X119343Y135723D01*
X119237Y136060D01*
X119108Y136364D01*
X118955Y136636D01*
X118779Y136875D01*
X118579Y137081D01*
X118355Y137254D01*
X123707D01*
X123483Y137081D01*
D02*
G37*
G36*
X33057Y103873D02*
X34102Y103226D01*
X35335Y102655D01*
X36757Y102160D01*
X38368Y101742D01*
X40167Y101399D01*
X42155Y101133D01*
X46695Y100828D01*
X49248Y100790D01*
Y97790D01*
X46695Y97752D01*
X40167Y97181D01*
X38368Y96838D01*
X36757Y96420D01*
X35335Y95925D01*
X34102Y95354D01*
X33057Y94707D01*
X32200Y93983D01*
Y104597D01*
X33057Y103873D01*
D02*
G37*
G36*
X96892Y83106D02*
X96980Y82243D01*
X97057Y81894D01*
X97156Y81600D01*
X97277Y81360D01*
X97420Y81175D01*
X97585Y81044D01*
X97772Y80968D01*
X97981Y80947D01*
X92955Y80806D01*
X93131Y80945D01*
X93288Y81116D01*
X93427Y81319D01*
X93548Y81553D01*
X93650Y81818D01*
X93733Y82115D01*
X93798Y82444D01*
X93844Y82804D01*
X93872Y83196D01*
X93881Y83619D01*
X96881D01*
X96892Y83106D01*
D02*
G37*
G36*
X42071Y86939D02*
X40672Y85483D01*
X38296Y82644D01*
X37317Y81261D01*
X36479Y79902D01*
X35781Y78568D01*
X35223Y77258D01*
X34804Y75972D01*
X34527Y74711D01*
X34388Y73474D01*
X26484Y81378D01*
X27721Y81517D01*
X28982Y81795D01*
X30268Y82213D01*
X31578Y82771D01*
X32912Y83469D01*
X34271Y84307D01*
X35654Y85286D01*
X37061Y86404D01*
X39949Y89061D01*
X42071Y86939D01*
D02*
G37*
G36*
X52297Y75004D02*
X52579Y74899D01*
X52965Y74805D01*
X53456Y74724D01*
X54751Y74600D01*
X57479Y74506D01*
X58598Y74500D01*
Y71500D01*
X57479Y71494D01*
X52965Y71195D01*
X52579Y71101D01*
X52297Y70996D01*
X52120Y70877D01*
Y75123D01*
X52297Y75004D01*
D02*
G37*
G36*
X80078Y70000D02*
X80048Y70285D01*
X79957Y70540D01*
X79806Y70765D01*
X79594Y70960D01*
X79321Y71125D01*
X78987Y71260D01*
X78593Y71365D01*
X78139Y71440D01*
X77624Y71485D01*
X77048Y71500D01*
Y74500D01*
X77624Y74515D01*
X78139Y74560D01*
X78593Y74635D01*
X78987Y74740D01*
X79321Y74875D01*
X79594Y75040D01*
X79806Y75235D01*
X79957Y75460D01*
X80048Y75715D01*
X80078Y76000D01*
Y70000D01*
D02*
G37*
G36*
X110783Y64981D02*
X110583Y64775D01*
X110407Y64536D01*
X110254Y64264D01*
X110125Y63960D01*
X110019Y63622D01*
X109937Y63253D01*
X109878Y62850D01*
X109843Y62415D01*
X109831Y61947D01*
X106831D01*
X106819Y62415D01*
X106784Y62850D01*
X106725Y63253D01*
X106643Y63622D01*
X106537Y63960D01*
X106408Y64264D01*
X106255Y64536D01*
X106079Y64775D01*
X105879Y64981D01*
X105655Y65154D01*
X111007D01*
X110783Y64981D01*
D02*
G37*
G36*
X33057Y53073D02*
X34102Y52426D01*
X35335Y51855D01*
X36757Y51360D01*
X38368Y50942D01*
X40167Y50599D01*
X42155Y50333D01*
X46695Y50028D01*
X49248Y49990D01*
Y46990D01*
X46695Y46952D01*
X40167Y46381D01*
X38368Y46038D01*
X36757Y45620D01*
X35335Y45125D01*
X34102Y44554D01*
X33057Y43907D01*
X32200Y43183D01*
Y53797D01*
X33057Y53073D01*
D02*
G37*
D13*
X82931Y72980D02*
D03*
X95631D02*
D03*
X108331D02*
D03*
X121031D02*
D03*
Y145080D02*
D03*
X108331D02*
D03*
X95631D02*
D03*
X82931D02*
D03*
D14*
X99000Y167000D02*
D03*
X83000D02*
D03*
D21*
X26900Y73890D02*
X41010Y88000D01*
X91000D02*
X95381Y83619D01*
X41010Y88000D02*
X91000D01*
X121031Y125031D02*
Y145080D01*
X95290Y99290D02*
X121031Y125031D01*
X26900Y99290D02*
X95290D01*
X50000Y73000D02*
X82911D01*
X82931Y72980D01*
X67000Y132000D02*
X93874D01*
X95631Y133757D01*
X102690Y124690D02*
X108331Y130331D01*
X26900Y124690D02*
X102690D01*
X95631Y133757D02*
Y145080D01*
X108331Y59331D02*
Y72980D01*
X26900Y48490D02*
X97490D01*
X108331Y59331D01*
X95381Y73230D02*
Y83619D01*
Y73230D02*
X95631Y72980D01*
X108331Y130331D02*
Y145080D01*
D22*
X82965Y166966D02*
X83000Y167000D01*
X82965Y145114D02*
Y166966D01*
X82931Y145080D02*
X82965Y145114D01*
X49610Y200890D02*
X83000Y167500D01*
X26900Y200890D02*
X49610D01*
X83000Y167000D02*
Y167500D01*
D23*
X26900Y150090D02*
D03*
Y124690D02*
D03*
Y99290D02*
D03*
Y73890D02*
D03*
Y48490D02*
D03*
Y23090D02*
D03*
Y175490D02*
D03*
D24*
Y200890D02*
D03*
D25*
X67000Y132000D02*
D03*
X50000Y73000D02*
D03*
M02*
